# Made in Blockbench 4.10.1
mtllib shock_staff.mtl

o cube
v 0.2004182904846603 -0.1517959457861962 0.36684211298624675
v 0.15096372871886599 -0.12324334123805984 -0.06691501386479543
v 0.07746623593450287 -0.11689393581859618 0.38315788701375325
v 0.028011674168708534 -0.0883413312704598 -0.05059923983728892
v 0.2316682904846606 -0.09766935804966896 0.3668421129862467
v 0.18221372871886626 -0.06911675350153258 -0.06691501386479548
v 0.13996623593450336 -0.008640760345541669 0.38315788701375314
v 0.09051167416870902 0.019911844202594703 -0.05059923983728898
v 0.20748322787977377 -0.15587488929307283 0.4288074168221099
v 0.23873322787977405 -0.10174830155654557 0.4288074168221098
v 0.08453117332961635 -0.12097287932547279 0.4451231908496164
v 0.14703117332961682 -0.012719703852418293 0.44512319084961627
vt 0 0.875
vt 0 1
vt 0.43749999999999994 1
vt 0.43749999999999994 0.875
vt 0.43749999999999994 0.875
vt 0.43749999999999994 1
vt 0 1
vt 0 0.875
vt 0.875 0.9375
vt 0.4375 0.9375
vt 0.4375 1
vt 0.875 1
vt 0 0.75
vt 0.43749999999999994 0.75
vt 0.43749999999999994 0.625
vt 0 0.625
vt 0.25 0.7499999999999976
vt 0.21875 0.8749999999999976
vt 0.15625 0.8749999999999976
vt 0.125 0.7499999999999976
vt 0.125 0.7499999999999976
vt 0.09375 0.8749999999999976
vt 0.03125 0.8749999999999976
vt 0 0.7499999999999976
vt 0.31057812500000004 0.8105781249999968
vt 0.439421875 0.8105781249999968
vt 0.439421875 0.8730781249999968
vt 0.31057812500000004 0.8730781249999968
vt 0.25 0.8125
vt 0.3125 0.8125
vt 0.3125 0.875
vt 0.25 0.875
vt 0.31057812500000004 0.8105781249999968
vt 0.439421875 0.8105781249999968
vt 0.439421875 0.8730781249999968
vt 0.31057812500000004 0.8730781249999968
vt 0.375 0.8124999999999976
vt 0.25 0.8124999999999976
vt 0.25 0.7499999999999976
vt 0.375 0.7499999999999976
vn -0.27682617600362197 -0.9603983999879835 -0.031657251613702274
vn 0.693316324141718 0.7199377008456237 -0.031657251613703336
vn 0.8586164364012586 -0.4957224306869093 -0.13052619222005182
vn -0.8586164364012586 0.4957224306869093 0.13052619222005182
vn -0.11303899832181563 0.06526309611002597 -0.9914448613738104
vn 0.11303899832181563 -0.06526309611002597 0.9914448613738104
vn -0.27682617600362197 -0.9603983999879835 -0.031657251613702274
vn 0.8586164364012586 -0.4957224306869093 -0.13052619222005182
vn 0.693316324141718 0.7199377008456237 -0.031657251613703336
vn -0.8586164364012586 0.4957224306869093 0.13052619222005182
usemtl m_2563571e-b2ed-418d-a0e4-951a44577149
f 4/1/1 2/2/1 1/3/1 3/4/1
f 7/5/2 5/6/2 6/7/2 8/8/2
f 1/9/3 2/10/3 6/11/3 5/12/3
f 4/13/4 3/14/4 7/15/4 8/16/4
f 8/17/5 6/18/5 2/19/5 4/20/5
f 11/21/6 9/22/6 10/23/6 12/24/6
f 9/25/7 11/26/7 3/27/7 1/28/7
f 10/29/8 9/30/8 1/31/8 5/32/8
f 12/33/9 10/34/9 5/35/9 7/36/9
f 11/37/10 12/38/10 7/39/10 3/40/10
o cube
v -0.200418290484662 0.15179594578619404 0.36684211298624675
v -0.15096372871886768 0.12324334123805783 -0.06691501386479537
v -0.07746623593450416 0.11689393581859536 0.3831578870137532
v -0.028011674168709845 0.08834133127045915 -0.05059923983728898
v -0.23166829048466167 0.09766935804966645 0.3668421129862468
v -0.18221372871886735 0.06911675350153024 -0.06691501386479537
v -0.13996623593450347 0.00864076034554014 0.38315788701375325
v -0.09051167416870914 -0.019911844202596063 -0.05059923983728887
v -0.20748322787977547 0.15587488929307064 0.4288074168221099
v -0.23873322787977513 0.10174830155654305 0.42880741682210993
v -0.08453117332961763 0.12097287932547196 0.4451231908496163
v -0.14703117332961693 0.01271970385241674 0.4451231908496164
vt 0 0.875
vt 0 1
vt 0.43749999999999994 1
vt 0.43749999999999994 0.875
vt 0.43749999999999994 0.875
vt 0.43749999999999994 1
vt 0 1
vt 0 0.875
vt 0.875 0.9375
vt 0.4375 0.9375
vt 0.4375 1
vt 0.875 1
vt 0 0.75
vt 0.43749999999999994 0.75
vt 0.43749999999999994 0.625
vt 0 0.625
vt 0.25 0.7499999999999976
vt 0.21875 0.8749999999999976
vt 0.15625 0.8749999999999976
vt 0.125 0.7499999999999976
vt 0.125 0.7499999999999976
vt 0.09375 0.8749999999999976
vt 0.03125 0.8749999999999976
vt 0 0.7499999999999976
vt 0.4375 0.8125
vt 0.3125 0.8125
vt 0.3125 0.875
vt 0.4375 0.875
vt 0.25 0.8125
vt 0.3125 0.8125
vt 0.3125 0.875
vt 0.25 0.875
vt 0.3125 0.8125
vt 0.4375 0.8125
vt 0.4375 0.875
vt 0.3125 0.875
vt 0.375 0.8124999999999976
vt 0.25 0.8124999999999976
vt 0.25 0.7499999999999976
vt 0.375 0.7499999999999976
vn 0.2768261760036114 0.9603983999879864 -0.03165725161370331
vn -0.6933163241417102 -0.7199377008456316 -0.03165725161370219
vn -0.8586164364012642 0.49572243068689986 -0.1305261922200516
vn 0.8586164364012642 -0.49572243068689986 0.1305261922200516
vn 0.11303899832181558 -0.06526309611002562 -0.9914448613738105
vn -0.11303899832181558 0.06526309611002562 0.9914448613738105
vn 0.2768261760036114 0.9603983999879864 -0.03165725161370331
vn -0.8586164364012642 0.49572243068689986 -0.1305261922200516
vn -0.6933163241417102 -0.7199377008456316 -0.03165725161370219
vn 0.8586164364012642 -0.49572243068689986 0.1305261922200516
usemtl m_2563571e-b2ed-418d-a0e4-951a44577149
f 16/41/11 14/42/11 13/43/11 15/44/11
f 19/45/12 17/46/12 18/47/12 20/48/12
f 13/49/13 14/50/13 18/51/13 17/52/13
f 16/53/14 15/54/14 19/55/14 20/56/14
f 20/57/15 18/58/15 14/59/15 16/60/15
f 23/61/16 21/62/16 22/63/16 24/64/16
f 21/65/17 23/66/17 15/67/17 13/68/17
f 22/69/18 21/70/18 13/71/18 17/72/18
f 24/73/19 22/74/19 17/75/19 19/76/19
f 23/77/20 24/78/20 19/79/20 15/80/20
o cube
v 0.031249999999998463 0.24946530383586335 0.3668421129862467
v 0.031249999999998578 0.1923600947395907 -0.06691501386479543
v 0.06249999999999924 0.12553469616413723 0.38315788701375314
v 0.06249999999999935 0.06842948706786457 -0.05059923983728898
v -0.031250000000001533 0.24946530383586296 0.36684211298624675
v -0.03125000000000142 0.19236009473959031 -0.06691501386479543
v -0.06250000000000076 0.12553469616413646 0.38315788701375325
v -0.06250000000000065 0.0684294870678638 -0.05059923983728892
v 0.03124999999999845 0.2576231908496166 0.4288074168221099
v -0.03125000000000155 0.2576231908496162 0.4288074168221099
v 0.06249999999999922 0.13369258317789046 0.4451231908496163
v -0.06250000000000079 0.13369258317788968 0.4451231908496164
vt 0 0.875
vt 0 1
vt 0.43749999999999994 1
vt 0.43749999999999994 0.875
vt 0.43749999999999994 0.875
vt 0.43749999999999994 1
vt 0 1
vt 0 0.875
vt 0 0.75
vt 0.43749999999999994 0.75
vt 0.43749999999999994 0.625
vt 0 0.625
vt 0.25 0.7499999999999976
vt 0.21875 0.8749999999999976
vt 0.15625 0.8749999999999976
vt 0.125 0.7499999999999976
vt 0.125 0.7499999999999976
vt 0.09375 0.8749999999999976
vt 0.03125 0.8749999999999976
vt 0 0.7499999999999976
vt 0.4375 0.8125
vt 0.3125 0.8125
vt 0.3125 0.875
vt 0.4375 0.875
vt 0.25 0.8125
vt 0.3125 0.8125
vt 0.3125 0.875
vt 0.25 0.875
vt 0.3125 0.8125
vt 0.4375 0.8125
vt 0.4375 0.875
vt 0.3125 0.875
vt 0.375 0.8124999999999976
vt 0.25 0.8124999999999976
vt 0.25 0.7499999999999976
vt 0.375 0.7499999999999976
vt 0.875 0.9375
vt 0.4375 0.9375
vt 0.4375 1
vt 0.875 1
vn 0.9701425001453304 0.24046069914236348 -0.03165725161370332
vn -0.9701425001453335 0.24046069914235166 -0.03165725161370226
vn 6.153912908789902e-15 -0.9914448613738104 0.13052619222005177
vn 2.5744154254834703e-16 -0.13052619222005177 -0.9914448613738104
vn -2.5744154254834703e-16 0.13052619222005177 0.9914448613738104
vn 0.9701425001453304 0.24046069914236348 -0.03165725161370332
vn -6.153912908789902e-15 0.9914448613738104 -0.13052619222005177
vn -0.9701425001453335 0.24046069914235166 -0.03165725161370226
vn 6.153912908789902e-15 -0.9914448613738104 0.13052619222005177
vn -6.153912908789902e-15 0.9914448613738104 -0.13052619222005177
usemtl m_2563571e-b2ed-418d-a0e4-951a44577149
f 28/81/21 26/82/21 25/83/21 27/84/21
f 31/85/22 29/86/22 30/87/22 32/88/22
f 28/89/23 27/90/23 31/91/23 32/92/23
f 32/93/24 30/94/24 26/95/24 28/96/24
f 35/97/25 33/98/25 34/99/25 36/100/25
f 33/101/26 35/102/26 27/103/26 25/104/26
f 34/105/27 33/106/27 25/107/27 29/108/27
f 36/109/28 34/110/28 29/111/28 31/112/28
f 35/113/29 36/114/29 31/115/29 27/116/29
f 25/117/30 26/118/30 30/119/30 29/120/30
o cube
v 0.23166829048466042 0.09766935804966943 0.36684211298624675
v 0.18221372871886615 0.06911675350153305 -0.06691501386479543
v 0.13996623593450336 0.00864076034554194 0.38315788701375314
v 0.09051167416870909 -0.019911844202594432 -0.05059923983728898
v 0.20041829048466003 0.15179594578619662 0.36684211298624675
v 0.15096372871886576 0.12324334123806026 -0.06691501386479537
v 0.07746623593450264 0.11689393581859635 0.38315788701375325
v 0.02801167416870838 0.08834133127045997 -0.05059923983728887
v 0.23873322787977388 0.10174830155654604 0.4288074168221099
v 0.2074832278797735 0.15587488929307325 0.42880741682210993
v 0.14703117332961682 0.012719703852418563 0.4451231908496163
v 0.0845311733296161 0.12097287932547296 0.4451231908496164
vt 0 0.875
vt 0 1
vt 0.43749999999999994 1
vt 0.43749999999999994 0.875
vt 0.43749999999999994 0.875
vt 0.43749999999999994 1
vt 0 1
vt 0 0.875
vt 0.875 0.9375
vt 0.4375 0.9375
vt 0.4375 1
vt 0.875 1
vt 0 0.75
vt 0.43749999999999994 0.75
vt 0.43749999999999994 0.625
vt 0 0.625
vt 0.25 0.7499999999999976
vt 0.21875 0.8749999999999976
vt 0.15625 0.8749999999999976
vt 0.125 0.7499999999999976
vt 0.125 0.7499999999999976
vt 0.09375 0.8749999999999976
vt 0.03125 0.8749999999999976
vt 0 0.7499999999999976
vt 0.4375 0.8125
vt 0.3125 0.8125
vt 0.3125 0.875
vt 0.4375 0.875
vt 0.25 0.8125
vt 0.3125 0.8125
vt 0.3125 0.875
vt 0.25 0.875
vt 0.3125 0.8125
vt 0.4375 0.8125
vt 0.4375 0.875
vt 0.3125 0.875
vt 0.375 0.8124999999999976
vt 0.25 0.8124999999999976
vt 0.25 0.7499999999999976
vt 0.375 0.7499999999999976
vn 0.6933163241417194 -0.7199377008456225 -0.03165725161370346
vn -0.2768261760036238 0.9603983999879829 -0.031657251613702066
vn 0.8586164364012577 0.4957224306869111 -0.13052619222005168
vn -0.8586164364012577 -0.4957224306869111 0.13052619222005168
vn -0.11303899832181544 -0.06526309611002601 -0.9914448613738105
vn 0.11303899832181544 0.06526309611002601 0.9914448613738105
vn 0.6933163241417194 -0.7199377008456225 -0.03165725161370346
vn 0.8586164364012577 0.4957224306869111 -0.13052619222005168
vn -0.2768261760036238 0.9603983999879829 -0.031657251613702066
vn -0.8586164364012577 -0.4957224306869111 0.13052619222005168
usemtl m_2563571e-b2ed-418d-a0e4-951a44577149
f 40/121/31 38/122/31 37/123/31 39/124/31
f 43/125/32 41/126/32 42/127/32 44/128/32
f 37/129/33 38/130/33 42/131/33 41/132/33
f 40/133/34 39/134/34 43/135/34 44/136/34
f 44/137/35 42/138/35 38/139/35 40/140/35
f 47/141/36 45/142/36 46/143/36 48/144/36
f 45/145/37 47/146/37 39/147/37 37/148/37
f 46/149/38 45/150/38 37/151/38 41/152/38
f 48/153/39 46/154/39 41/155/39 43/156/39
f 47/157/40 48/158/40 43/159/40 39/160/40
o cube
v -0.031249999999998966 -0.24946530383586327 0.36684211298624675
v -0.031249999999999053 -0.19236009473959065 -0.06691501386479543
v -0.06249999999999947 -0.1255346961641371 0.3831578870137532
v -0.06249999999999956 -0.06842948706786445 -0.05059923983728898
v 0.03125000000000102 -0.249465303835863 0.36684211298624675
v 0.03125000000000093 -0.19236009473959037 -0.06691501386479537
v 0.0625000000000005 -0.12553469616413657 0.38315788701375325
v 0.06250000000000042 -0.06842948706786392 -0.05059923983728892
v -0.031249999999998952 -0.2576231908496165 0.4288074168221099
v 0.03125000000000103 -0.2576231908496162 0.4288074168221099
v -0.062499999999999466 -0.13369258317789032 0.4451231908496163
v 0.06250000000000051 -0.1336925831778898 0.4451231908496164
vt 0 0.875
vt 0 1
vt 0.43749999999999994 1
vt 0.43749999999999994 0.875
vt 0.43749999999999994 0.875
vt 0.43749999999999994 1
vt 0 1
vt 0 0.875
vt 0.875 0.9375
vt 0.4375 0.9375
vt 0.4375 1
vt 0.875 1
vt 0 0.75
vt 0.43749999999999994 0.75
vt 0.43749999999999994 0.625
vt 0 0.625
vt 0.25 0.7499999999999976
vt 0.21875 0.8749999999999976
vt 0.15625 0.8749999999999976
vt 0.125 0.7499999999999976
vt 0.125 0.7499999999999976
vt 0.09375 0.8749999999999976
vt 0.03125 0.8749999999999976
vt 0 0.7499999999999976
vt 0.4375 0.8125
vt 0.3125 0.8125
vt 0.3125 0.875
vt 0.4375 0.875
vt 0.25 0.8125
vt 0.3125 0.8125
vt 0.3125 0.875
vt 0.25 0.875
vt 0.3125 0.8125
vt 0.4375 0.8125
vt 0.4375 0.875
vt 0.3125 0.875
vt 0.375 0.8124999999999976
vt 0.25 0.8124999999999976
vt 0.25 0.7499999999999976
vt 0.375 0.7499999999999976
vn -0.9701425001453309 -0.24046069914236154 -0.031657251613703107
vn 0.9701425001453329 -0.24046069914235355 -0.03165725161370244
vn 4.1192675685652995e-15 -0.9914448613738104 -0.1305261922200517
vn -4.1192675685652995e-15 0.9914448613738104 0.1305261922200517
vn -1.9747595013007064e-16 0.13052619222005174 -0.9914448613738105
vn 1.9747595013007064e-16 -0.13052619222005174 0.9914448613738105
vn -0.9701425001453309 -0.24046069914236154 -0.031657251613703107
vn 4.1192675685652995e-15 -0.9914448613738104 -0.1305261922200517
vn 0.9701425001453329 -0.24046069914235355 -0.03165725161370244
vn -4.1192675685652995e-15 0.9914448613738104 0.1305261922200517
usemtl m_2563571e-b2ed-418d-a0e4-951a44577149
f 52/161/41 50/162/41 49/163/41 51/164/41
f 55/165/42 53/166/42 54/167/42 56/168/42
f 49/169/43 50/170/43 54/171/43 53/172/43
f 52/173/44 51/174/44 55/175/44 56/176/44
f 56/177/45 54/178/45 50/179/45 52/180/45
f 59/181/46 57/182/46 58/183/46 60/184/46
f 57/185/47 59/186/47 51/187/47 49/188/47
f 58/189/48 57/190/48 49/191/48 53/192/48
f 60/193/49 58/194/49 53/195/49 55/196/49
f 59/197/50 60/198/50 55/199/50 51/200/50
o cube
v -0.23166829048466103 -0.09766935804966785 0.36684211298624675
v -0.18221372871886676 -0.06911675350153143 -0.06691501386479537
v -0.13996623593450339 -0.008640760345541006 0.38315788701375325
v -0.09051167416870913 0.01991184420259541 -0.05059923983728892
v -0.20041829048466103 -0.15179594578619524 0.36684211298624675
v -0.15096372871886676 -0.12324334123805883 -0.06691501386479543
v -0.0774662359345034 -0.1168939358185958 0.3831578870137532
v -0.028011674168709158 -0.08834133127045939 -0.05059923983728898
v -0.2387332278797745 -0.10174830155654448 0.4288074168221099
v -0.2074832278797745 -0.15587488929307186 0.4288074168221099
v -0.14703117332961685 -0.012719703852417635 0.4451231908496164
v -0.08453117332961686 -0.12097287932547243 0.4451231908496163
vt 0 0.875
vt 0 1
vt 0.43749999999999994 1
vt 0.43749999999999994 0.875
vt 0.43749999999999994 0.875
vt 0.43749999999999994 1
vt 0 1
vt 0 0.875
vt 0.875 0.9375
vt 0.4375 0.9375
vt 0.4375 1
vt 0.875 1
vt 0 0.75
vt 0.43749999999999994 0.75
vt 0.43749999999999994 0.625
vt 0 0.625
vt 0.25 0.7499999999999976
vt 0.21875 0.8749999999999976
vt 0.15625 0.8749999999999976
vt 0.125 0.7499999999999976
vt 0.125 0.7499999999999976
vt 0.09375 0.8749999999999976
vt 0.03125 0.8749999999999976
vt 0 0.7499999999999976
vt 0.4375 0.8125
vt 0.3125 0.8125
vt 0.3125 0.875
vt 0.4375 0.875
vt 0.25 0.8125
vt 0.3125 0.8125
vt 0.3125 0.875
vt 0.25 0.875
vt 0.3125 0.8125
vt 0.4375 0.8125
vt 0.4375 0.875
vt 0.3125 0.875
vt 0.375 0.8124999999999976
vt 0.25 0.8124999999999976
vt 0.25 0.7499999999999976
vt 0.375 0.7499999999999976
vn -0.6933163241417146 0.7199377008456272 -0.03165725161370252
vn 0.27682617600361736 -0.9603983999879848 -0.03165725161370304
vn -0.858616436401261 -0.49572243068690514 -0.1305261922200517
vn 0.858616436401261 0.49572243068690514 0.1305261922200517
vn 0.11303899832181542 0.06526309611002606 -0.9914448613738105
vn -0.11303899832181542 -0.06526309611002606 0.9914448613738105
vn -0.6933163241417146 0.7199377008456272 -0.03165725161370252
vn -0.858616436401261 -0.49572243068690514 -0.1305261922200517
vn 0.27682617600361736 -0.9603983999879848 -0.03165725161370304
vn 0.858616436401261 0.49572243068690514 0.1305261922200517
usemtl m_2563571e-b2ed-418d-a0e4-951a44577149
f 64/201/51 62/202/51 61/203/51 63/204/51
f 67/205/52 65/206/52 66/207/52 68/208/52
f 61/209/53 62/210/53 66/211/53 65/212/53
f 64/213/54 63/214/54 67/215/54 68/216/54
f 68/217/55 66/218/55 62/219/55 64/220/55
f 71/221/56 69/222/56 70/223/56 72/224/56
f 69/225/57 71/226/57 63/227/57 61/228/57
f 70/229/58 69/230/58 61/231/58 65/232/58
f 72/233/59 70/234/59 65/235/59 67/236/59
f 71/237/60 72/238/60 67/239/60 63/240/60
o cube
v 0.125 0.0625 0.5
v 0.125 0.0625 0.3125
v 0.125 -0.0625 0.5
v 0.125 -0.0625 0.3125
v -0.125 0.0625 0.5
v -0.125 0.0625 0.3125
v -0.125 -0.0625 0.5
v -0.125 -0.0625 0.3125
v 0.0625 0.125 0.3125
v -0.0625 0.125 0.3125
v 0.0625 0.125 0.5
v -0.0625 0.125 0.5
v 0.0625 -0.125 0.5
v -0.0625 -0.125 0.5
v 0.0625 -0.125 0.3125
v -0.0625 -0.125 0.3125
vt 0.1875 0.25
vt 0.1875 0.375
vt 0 0.375
vt 0 0.25
vt 0 0.25
vt 0 0.375
vt 0.1875 0.375
vt 0.1875 0.25
vt 0 0.25
vt 0.1875 0.25
vt 0.1875 0.375
vt 0 0.375
vt 0.1875 0.25
vt 0 0.25
vt 0 0.375
vt 0.1875 0.375
vt 0.25 0.0625
vt 0.25 0.1875
vt 0 0.1875
vt 0 0.0625
vt 0.25 0.0625
vt 0.25 0.1875
vt 0 0.1875
vt 0 0.0625
vt 0.1875 0.3437499999999968
vt 0.375 0.3437499999999968
vt 0.375 0.25536249999999683
vt 0.1875 0.25536249999999683
vt 0.1875 0.25
vt 0.0625 0.25
vt 0 0.1875
vt 0.25 0.1875
vt 0.375 0.34375
vt 0.1875 0.34375
vt 0.1875 0.25
vt 0.375 0.25
vt 0.1875 0.25
vt 0.0625 0.25
vt 0 0.1875
vt 0.25 0.1875
vt 0.375 0.25536249999999683
vt 0.1875 0.25536249999999683
vt 0.1875 0.3437499999999968
vt 0.375 0.3437499999999968
vt 0.0625 0
vt 0.1875 0
vt 0.25 0.0625
vt 0 0.0625
vt 0.1875 0.25536249999999683
vt 0.375 0.25536249999999683
vt 0.375 0.3437499999999968
vt 0.1875 0.3437499999999968
vt 0.0625 0
vt 0.1875 0
vt 0.25 0.0625
vt 0 0.0625
vn 1 0 0
vn -1 0 0
vn 0 1 0
vn 0 -1 0
vn 0 0 1
vn 0 0 -1
vn 0.7071067811865476 0.7071067811865476 0
vn 0 0 -1
vn -0.7071067811865476 0.7071067811865476 0
vn 0 0 1
vn 0.7071067811865476 -0.7071067811865476 0
vn 0 0 1
vn -0.7071067811865476 -0.7071067811865476 0
vn 0 0 -1
usemtl m_2563571e-b2ed-418d-a0e4-951a44577149
f 76/241/61 74/242/61 73/243/61 75/244/61
f 79/245/62 77/246/62 78/247/62 80/248/62
f 83/249/63 81/250/63 82/251/63 84/252/63
f 87/253/64 85/254/64 86/255/64 88/256/64
f 75/257/65 73/258/65 77/259/65 79/260/65
f 80/261/66 78/262/66 74/263/66 76/264/66
f 81/265/67 83/266/67 73/267/67 74/268/67
f 82/269/68 81/270/68 74/271/68 78/272/68
f 84/273/69 82/274/69 78/275/69 77/276/69
f 83/277/70 84/278/70 77/279/70 73/280/70
f 85/281/71 87/282/71 76/283/71 75/284/71
f 86/285/72 85/286/72 75/287/72 79/288/72
f 88/289/73 86/290/73 79/291/73 80/292/73
f 87/293/74 88/294/74 80/295/74 76/296/74