# Made in Blockbench 4.10.1
mtllib stomach.mtl

o cube
v 1.1875 1.375 1.1875
v 1.1875 1.375 -1.1875
v 1.1875 -0.375 1.1875
v 1.1875 -0.375 -1.1875
v 1.375 0.21874999999999994 1.375
v 1.375 0.20833333333333326 -1.375
v 1.375 0.78125 1.375
v 1.375 0.7916666666666666 -1.375
v -1.1875 1.375 1.1875
v -1.1875 1.375 -1.1875
v -1.1875 -0.375 1.1875
v -1.1875 -0.375 -1.1875
v -1.375 0.21874999999999994 1.375
v -1.375 0.20833333333333326 -1.375
v -1.375 0.78125 1.375
v -1.375 0.7916666666666666 -1.375
vt 0.046875 1
vt 0 0.84681875
vt 0.6875 0.84681875
vt 0.640625 1
vt 0.046875 1
vt 0 0.84681875
vt 0.6875 0.84681875
vt 0.640625 1
vt 0.640625 0.5474609375000001
vt 0.6875 0.7031250000000002
vt 0 0.7031250000000002
vt 0.046875 0.5474609375000001
vt 0.6875 0.703125
vt 0.6875 0.84375
vt 0 0.84375
vt 0 0.703125
vt 0.640625 0.5474609375000001
vt 0.6875 0.7031250000000002
vt 0 0.7031250000000002
vt 0.046875 0.5474609375000001
vt 0.6875 0.703125
vt 0.6875 0.84375
vt 0 0.84375
vt 0 0.703125
vt 2.220446049250313e-16 0.8445093099770922
vt 0.6875038751684113 0.8445093099770918
vt 0.6411821681762545 0.9978588183864741
vt 0.04743598807999855 1
vt 0.6874993775095396 0.7006890948722613
vt 0 0.7031724827798151
vt 0.046874874288807544 0.5475081223323014
vt 0.6406233503764901 0.5475081223323012
vt 0.6880377072541831 0.8437499999999998
vt 0.0005327731649995004 0.8437499999999996
vt 0 0.7031260092382712
vt 0.6874851978032713 0.6979166716249425
vt 0.046875 1
vt 0 0.84681875
vt 0.6875 0.84681875
vt 0.640625 1
vt 0.640625 0.5474609375000001
vt 0.6875 0.7031250000000002
vt 0 0.7031250000000002
vt 0.046875 0.5474609375000001
vt 0.6875 0.703125
vt 0.6875 0.84375
vt 0 0.84375
vt 0 0.703125
vn 0 0.3011313679370974 0.9535826651341418
vn 0 0.30600918041312064 -0.9520285612852643
vn 0 -0.3060091804131207 -0.9520285612852643
vn 0 0 -1
vn 0 -0.3011313679370974 0.9535826651341418
vn 0 0 1
vn 0.9521362860569565 0.30567164108516803 0.0011578471253226022
vn 0.9534784403320954 -0.3014590517936206 0.0011418903477031102
vn 1 0 0
vn -0.9521362860569565 0.30567164108516803 0.0011578471253226063
vn -0.9534784403320954 -0.3014590517936206 0.0011418903477031163
vn -1 0 0
usemtl m_3a19786c-4343-f913-0a07-25fc21ab0ca5
f 9/1/1 15/2/1 7/3/1 1/4/1
f 2/5/2 8/6/2 16/7/2 10/8/2
f 12/9/3 14/10/3 6/11/3 4/12/3
f 14/13/4 16/14/4 8/15/4 6/16/4
f 3/17/5 5/18/5 13/19/5 11/20/5
f 5/21/6 7/22/6 15/23/6 13/24/6
f 7/25/7 8/26/7 2/27/7 1/28/7
f 6/29/8 5/30/8 3/31/8 4/32/8
f 8/33/9 7/34/9 5/35/9 6/36/9
f 10/37/10 16/38/10 15/39/10 9/40/10
f 11/41/11 13/42/11 14/43/11 12/44/11
f 13/45/12 15/46/12 16/47/12 14/48/12
o cube
v -1.375 1.375 1.5
v -1.375 1.375 1.375
v -1.375 -0.375 1.5
v -1.375 -0.375 1.375
v -1.5 1.375 1.375
v -1.5 1.375 1.5
v -1.5 -0.375 1.375
v -1.5 -0.375 1.5
vt 0.71875 1
vt 0.75 1
vt 0.75 0.5625
vt 0.71875 0.5625
vt 0.71875 1
vt 0.75 1
vt 0.75 0.5625
vt 0.71875 0.5625
vt 0.71875 1
vt 0.75 1
vt 0.75 0.5625
vt 0.71875 0.5625
vt 0.71875 1
vt 0.75 1
vt 0.75 0.5625
vt 0.71875 0.5625
vn 0 0 -1
vn 1 0 0
vn 0 0 1
vn -1 0 0
usemtl m_3a19786c-4343-f913-0a07-25fc21ab0ca5
f 20/52/13 23/51/13 21/50/13 18/49/13
f 19/56/14 20/55/14 18/54/14 17/53/14
f 24/60/15 19/59/15 17/58/15 22/57/15
f 23/64/16 24/63/16 22/62/16 21/61/16
o cube
v -1.375 1.375 -1.375
v -1.375 1.375 -1.5
v -1.375 -0.375 -1.375
v -1.375 -0.375 -1.5
v -1.5 1.375 -1.5
v -1.5 1.375 -1.375
v -1.5 -0.375 -1.5
v -1.5 -0.375 -1.375
vt 0.71875 1
vt 0.75 1
vt 0.75 0.5625
vt 0.71875 0.5625
vt 0.71875 1
vt 0.75 1
vt 0.75 0.5625
vt 0.71875 0.5625
vt 0.71875 1
vt 0.75 1
vt 0.75 0.5625
vt 0.71875 0.5625
vt 0.71875 1
vt 0.75 1
vt 0.75 0.5625
vt 0.71875 0.5625
vn 0 0 -1
vn 1 0 0
vn 0 0 1
vn -1 0 0
usemtl m_3a19786c-4343-f913-0a07-25fc21ab0ca5
f 28/68/17 31/67/17 29/66/17 26/65/17
f 27/72/18 28/71/18 26/70/18 25/69/18
f 32/76/19 27/75/19 25/74/19 30/73/19
f 31/80/20 32/79/20 30/78/20 29/77/20
o cube
v 1.5 1.375 1.5
v 1.5 1.375 1.375
v 1.5 -0.375 1.5
v 1.5 -0.375 1.375
v 1.375 1.375 1.375
v 1.375 1.375 1.5
v 1.375 -0.375 1.375
v 1.375 -0.375 1.5
vt 0.71875 1
vt 0.75 1
vt 0.75 0.5625
vt 0.71875 0.5625
vt 0.71875 1
vt 0.75 1
vt 0.75 0.5625
vt 0.71875 0.5625
vt 0.71875 1
vt 0.75 1
vt 0.75 0.5625
vt 0.71875 0.5625
vt 0.71875 1
vt 0.75 1
vt 0.75 0.5625
vt 0.71875 0.5625
vn 0 0 -1
vn 1 0 0
vn 0 0 1
vn -1 0 0
usemtl m_3a19786c-4343-f913-0a07-25fc21ab0ca5
f 36/84/21 39/83/21 37/82/21 34/81/21
f 35/88/22 36/87/22 34/86/22 33/85/22
f 40/92/23 35/91/23 33/90/23 38/89/23
f 39/96/24 40/95/24 38/94/24 37/93/24
o cube
v 1.5 1.375 -1.375
v 1.5 1.375 -1.5
v 1.5 -0.375 -1.375
v 1.5 -0.375 -1.5
v 1.375 1.375 -1.5
v 1.375 1.375 -1.375
v 1.375 -0.375 -1.5
v 1.375 -0.375 -1.375
vt 0.71875 1
vt 0.75 1
vt 0.75 0.5625
vt 0.71875 0.5625
vt 0.71875 1
vt 0.75 1
vt 0.75 0.5625
vt 0.71875 0.5625
vt 0.71875 1
vt 0.75 1
vt 0.75 0.5625
vt 0.71875 0.5625
vt 0.71875 1
vt 0.75 1
vt 0.75 0.5625
vt 0.71875 0.5625
vn 0 0 -1
vn 1 0 0
vn 0 0 1
vn -1 0 0
usemtl m_3a19786c-4343-f913-0a07-25fc21ab0ca5
f 44/100/25 47/99/25 45/98/25 42/97/25
f 43/104/26 44/103/26 42/102/26 41/101/26
f 48/108/27 43/107/27 41/106/27 46/105/27
f 47/112/28 48/111/28 46/110/28 45/109/28
o cube
v 1.5 1.5 -0.5
v 1.5 1.5 -1.5
v 1.5 1.375 -0.5
v 1.5 1.375 -1.5
v -1.5 1.5 -1.5
v -1.5 1.5 -0.5
v -1.5 1.375 -1.5
v -1.5 1.375 -0.5
vt 0.75 0.25
vt 0.75 1
vt 0.78125 1
vt 0.78125 0.25
vt 0.75 1
vt 1 1
vt 1 0.96875
vt 0.75 0.96875
vt 0.75 1
vt 1 1
vt 1 0.96875
vt 0.75 0.96875
vt 0.75 0.25
vt 0.75 1
vt 1 1
vt 1 0.25
vt 0.75 0.25
vt 0.75 1
vt 1 1
vt 1 0.25
vn 0 0 -1
vn 1 0 0
vn -1 0 0
vn 0 1 0
vn 0 -1 0
usemtl m_3a19786c-4343-f913-0a07-25fc21ab0ca5
f 52/116/29 55/115/29 53/114/29 50/113/29
f 51/120/30 52/119/30 50/118/30 49/117/30
f 55/124/31 56/123/31 54/122/31 53/121/31
f 54/128/32 49/127/32 50/126/32 53/125/32
f 55/132/33 52/131/33 51/130/33 56/129/33
o cube
v 1.5 1.5 0.5
v 1.5 1.5 -0.5
v 1.5 1.375 0.5
v 1.5 1.375 -0.5
v -1.5 1.5 -0.5
v -1.5 1.5 0.5
v -1.5 1.375 -0.5
v -1.5 1.375 0.5
vt 0.75 1
vt 1 1
vt 1 0.96875
vt 0.75 0.96875
vt 0.75 1
vt 1 1
vt 1 0.96875
vt 0.75 0.96875
vt 0.75 0.25
vt 0.75 1
vt 1 1
vt 1 0.25
vt 0.75 0.25
vt 0.75 1
vt 1 1
vt 1 0.25
vn 1 0 0
vn -1 0 0
vn 0 1 0
vn 0 -1 0
usemtl m_3a19786c-4343-f913-0a07-25fc21ab0ca5
f 59/136/34 60/135/34 58/134/34 57/133/34
f 63/140/35 64/139/35 62/138/35 61/137/35
f 62/144/36 57/143/36 58/142/36 61/141/36
f 63/148/37 60/147/37 59/146/37 64/145/37
o cube
v 1.5 1.5 1.5
v 1.5 1.5 0.5
v 1.5 1.375 1.5
v 1.5 1.375 0.5
v -1.5 1.5 0.5
v -1.5 1.5 1.5
v -1.5 1.375 0.5
v -1.5 1.375 1.5
vt 0.75 1
vt 1 1
vt 1 0.96875
vt 0.75 0.96875
vt 0.75 0.25
vt 0.75 1
vt 0.78125 1
vt 0.78125 0.25
vt 0.75 1
vt 1 1
vt 1 0.96875
vt 0.75 0.96875
vt 0.75 0.25
vt 0.75 1
vt 1 1
vt 1 0.25
vt 0.75 0.25
vt 0.75 1
vt 1 1
vt 1 0.25
vn 1 0 0
vn 0 0 1
vn -1 0 0
vn 0 1 0
vn 0 -1 0
usemtl m_3a19786c-4343-f913-0a07-25fc21ab0ca5
f 67/152/38 68/151/38 66/150/38 65/149/38
f 72/156/39 67/155/39 65/154/39 70/153/39
f 71/160/40 72/159/40 70/158/40 69/157/40
f 70/164/41 65/163/41 66/162/41 69/161/41
f 71/168/42 68/167/42 67/166/42 72/165/42
o cube
v 1.5 -0.375 1.5
v 1.5 -0.375 0.5
v 1.5 -0.5 1.5
v 1.5 -0.5 0.5
v -1.5 -0.375 0.5
v -1.5 -0.375 1.5
v -1.5 -0.5 0.5
v -1.5 -0.5 1.5
vt 0.75 1
vt 1 1
vt 1 0.96875
vt 0.75 0.96875
vt 0.75 0.25
vt 0.75 1
vt 0.78125 1
vt 0.78125 0.25
vt 0.75 1
vt 1 1
vt 1 0.96875
vt 0.75 0.96875
vt 0.75 0.25
vt 0.75 1
vt 1 1
vt 1 0.25
vt 0.75 0.25
vt 0.75 1
vt 1 1
vt 1 0.25
vn 1 0 0
vn 0 0 1
vn -1 0 0
vn 0 1 0
vn 0 -1 0
usemtl m_3a19786c-4343-f913-0a07-25fc21ab0ca5
f 75/172/43 76/171/43 74/170/43 73/169/43
f 80/176/44 75/175/44 73/174/44 78/173/44
f 79/180/45 80/179/45 78/178/45 77/177/45
f 78/184/46 73/183/46 74/182/46 77/181/46
f 79/188/47 76/187/47 75/186/47 80/185/47
o cube
v 1.5 -0.375 0.5
v 1.5 -0.375 -0.5
v 1.5 -0.5 0.5
v 1.5 -0.5 -0.5
v -1.5 -0.375 -0.5
v -1.5 -0.375 0.5
v -1.5 -0.5 -0.5
v -1.5 -0.5 0.5
vt 0.75 1
vt 1 1
vt 1 0.96875
vt 0.75 0.96875
vt 0.75 1
vt 1 1
vt 1 0.96875
vt 0.75 0.96875
vt 0.75 0.25
vt 0.75 1
vt 1 1
vt 1 0.25
vt 0.75 0.25
vt 0.75 1
vt 1 1
vt 1 0.25
vn 1 0 0
vn -1 0 0
vn 0 1 0
vn 0 -1 0
usemtl m_3a19786c-4343-f913-0a07-25fc21ab0ca5
f 83/192/48 84/191/48 82/190/48 81/189/48
f 87/196/49 88/195/49 86/194/49 85/193/49
f 86/200/50 81/199/50 82/198/50 85/197/50
f 87/204/51 84/203/51 83/202/51 88/201/51
o cube
v 1.5 -0.375 -0.5
v 1.5 -0.375 -1.5
v 1.5 -0.5 -0.5
v 1.5 -0.5 -1.5
v -1.5 -0.375 -1.5
v -1.5 -0.375 -0.5
v -1.5 -0.5 -1.5
v -1.5 -0.5 -0.5
vt 0.75 0.25
vt 0.75 1
vt 0.78125 1
vt 0.78125 0.25
vt 0.75 1
vt 1 1
vt 1 0.96875
vt 0.75 0.96875
vt 0.75 1
vt 1 1
vt 1 0.96875
vt 0.75 0.96875
vt 0.75 0.25
vt 0.75 1
vt 1 1
vt 1 0.25
vt 0.75 0.25
vt 0.75 1
vt 1 1
vt 1 0.25
vn 0 0 -1
vn 1 0 0
vn -1 0 0
vn 0 1 0
vn 0 -1 0
usemtl m_3a19786c-4343-f913-0a07-25fc21ab0ca5
f 92/208/52 95/207/52 93/206/52 90/205/52
f 91/212/53 92/211/53 90/210/53 89/209/53
f 95/216/54 96/215/54 94/214/54 93/213/54
f 94/220/55 89/219/55 90/218/55 93/217/55
f 95/224/56 92/223/56 91/222/56 96/221/56