# Made in Blockbench 4.9.0
mtllib large_motor.mtl

o cube
v 0.125 1.125 -1.4375
v 0.125 1.125 -1.5625
v 0.125 0.875 -1.4375
v 0.125 0.875 -1.5625
v -0.125 1.125 -1.5625
v -0.125 1.125 -1.4375
v -0.125 0.875 -1.5625
v -0.125 0.875 -1.4375
vt 0 1
vt 0.0625 1
vt 0.0625 0.9375
vt 0 0.9375
vt 0 1
vt 0.03125 1
vt 0.03125 0.9375
vt 0 0.9375
vt 0 1
vt 0.0625 1
vt 0.0625 0.9375
vt 0 0.9375
vt 0 1
vt 0.03125 1
vt 0.03125 0.9375
vt 0 0.9375
vt 0 1
vt 0.0625 1
vt 0.0625 0.96875
vt 0 0.96875
vt 0 1
vt 0.0625 1
vt 0.0625 0.96875
vt 0 0.96875
vn 0 0 -1
vn 1 0 0
vn 0 0 1
vn -1 0 0
vn 0 1 0
vn 0 -1 0
usemtl none
f 4/4/1 7/3/1 5/2/1 2/1/1
f 3/8/2 4/7/2 2/6/2 1/5/2
f 8/12/3 3/11/3 1/10/3 6/9/3
f 7/16/4 8/15/4 6/14/4 5/13/4
f 6/20/5 1/19/5 2/18/5 5/17/5
f 7/24/6 4/23/6 3/22/6 8/21/6
o cube
v 0.6875 1.25 0.0625
v 0.6875 1.25 -1.0625
v 0.6875 0.9375 0.0625
v 0.6875 0.9375 -1.0625
v -0.6875 1.25 -1.0625
v -0.6875 1.25 0.0625
v -0.6875 0.9375 -1.0625
v -0.6875 0.9375 0.0625
vt 0 1
vt 0.34375 1
vt 0.34375 0.875
vt 0 0.875
vt 0.65625 0.890625
vt 0.375 0.890625
vt 0.375 0.8125
vt 0.65625 0.8125
vt 0 1
vt 0.34375 1
vt 0.34375 0.875
vt 0 0.875
vt 0.375 0.890625
vt 0.65625 0.890625
vt 0.65625 0.8125
vt 0.375 0.8125
vt 0.375 0.8125
vt 0.71875 0.8125
vt 0.71875 0.53125
vt 0.375 0.53125
vn 0 0 -1
vn 1 0 0
vn 0 0 1
vn -1 0 0
vn 0 1 0
usemtl none
f 12/28/7 15/27/7 13/26/7 10/25/7
usemtl m_d840f091-48f5-6d80-9500-3d3122962757
f 11/32/8 12/31/8 10/30/8 9/29/8
usemtl none
f 16/36/9 11/35/9 9/34/9 14/33/9
usemtl m_d840f091-48f5-6d80-9500-3d3122962757
f 15/40/10 16/39/10 14/38/10 13/37/10
f 14/44/11 9/43/11 10/42/11 13/41/11
o cube
v 0.4419417382415922 1.0883883476483185 -0.5625
v 0.4419417382415922 1.0883883476483185 -1.0625
v 0.08838834764831838 1.4419417382415922 -0.5625
v 0.08838834764831838 1.4419417382415922 -1.0625
v 0.6629126073623883 1.3093592167691146 -1.0625
v 0.6629126073623883 1.3093592167691146 -0.5625
v 0.3093592167691144 1.6629126073623883 -1.0625
v 0.3093592167691144 1.6629126073623883 -0.5625
vt 0.796875 0.5
vt 0.875 0.5
vt 0.875 0.375
vt 0.796875 0.375
vt 0.875 0.5
vt 1 0.5
vt 1 0.375
vt 0.875 0.375
vt 0.796875 0.5
vt 0.875 0.5
vt 0.875 0.375
vt 0.796875 0.375
vt 0.796875 0.5
vt 0.875 0.5
vt 0.875 0.375
vt 0.796875 0.375
vn 0 0 1
vn 0.7071067811865475 0.7071067811865477 0
vn 0.7071067811865477 -0.7071067811865475 0
vn -0.7071067811865477 0.7071067811865475 0
usemtl m_d840f091-48f5-6d80-9500-3d3122962757
f 24/48/12 19/47/12 17/46/12 22/45/12
f 23/52/13 24/51/13 22/50/13 21/49/13
f 22/56/14 17/55/14 18/54/14 21/53/14
f 23/60/15 20/59/15 19/58/15 24/57/15
o cube
v 0.75 1.375 0.4375
v 0.75 1.375 0.0625
v 0.75 0.25 0.4375
v 0.75 0.25 0.0625
v -0.75 1.375 0.4375
v -0.75 1.375 0.0625
v -0.75 0.25 0.4375
v -0.75 0.25 0.0625
v -0.375 1.75 0.4375
v -0.375 1.75 0.0625
v 0.375 1.75 0.4375
v 0.375 1.75 0.0625
v -0.375 -0.125 0.0625
v 0.375 -0.125 0.0625
v -0.375 -0.125 0.4375
v 0.375 -0.125 0.4375
vt 0.375 0.53125
vt 0.375 0.8125
vt 0.28125 0.8125
vt 0.28125 0.53125
vt 0.375 0.53125
vt 0.375 0.8125
vt 0.28125 0.8125
vt 0.28125 0.53125
vt 0.375 0.8125
vt 0.375 0.9375
vt 0.28125 0.9375
vt 0.28125 0.8125
vt 0 0.90625
vt 0.09375 1
vt 0.09375 0.53125
vt 0 0.625
vt 0 0.625
vt 0.09375 0.53125
vt 0.09375 1
vt 0 0.90625
vt 0.375 0.8125
vt 0.375 0.9375
vt 0.28125 0.9375
vt 0.28125 0.8125
vt 0.375 0.90625
vt 0.5625 0.90625
vt 0.5625 1
vt 0.375 1
vt 0 0.90625
vt 0.09375 1
vt 0.09375 0.53125
vt 0 0.625
vt 0.09375 1
vt 0.28125 1
vt 0.28125 0.53125
vt 0.09375 0.53125
vt 0 0.625
vt 0.09375 0.53125
vt 0.09375 1
vt 0 0.90625
vt 0.09375 0.53125
vt 0.28125 0.53125
vt 0.28125 1
vt 0.09375 1
vn 1 0 0
vn -1 0 0
vn 0.7071067811865476 0.7071067811865476 0
vn 0 0 1
vn 0 0 -1
vn -0.7071067811865476 0.7071067811865476 0
vn 0 1 0
vn 0 0 -1
vn 0 0 -1
vn 0 0 1
vn 0 0 1
usemtl m_d840f091-48f5-6d80-9500-3d3122962757
f 28/61/16 26/62/16 25/63/16 27/64/16
f 31/65/17 29/66/17 30/67/17 32/68/17
f 26/69/18 36/70/18 35/71/18 25/72/18
f 25/73/19 35/74/19 40/75/19 27/76/19
f 28/77/20 38/78/20 36/79/20 26/80/20
f 29/81/21 33/82/21 34/83/21 30/84/21
f 33/85/22 35/86/22 36/87/22 34/88/22
f 30/89/23 34/90/23 37/91/23 32/92/23
f 34/93/24 36/94/24 38/95/24 37/96/24
f 31/97/25 39/98/25 33/99/25 29/100/25
f 39/101/26 40/102/26 35/103/26 33/104/26
o cube
v 0.8125 0.9375 0.0625
v 0.8125 0.9375 -1.0625
v 0.8125 0.5625 0.0625
v 0.8125 0.5625 -1.0625
v -0.8125 0.9375 0.0625
v -0.8125 0.9375 -1.0625
v -0.8125 0.5625 0.0625
v -0.8125 0.5625 -1.0625
v 0.9375 0.25 0.0625
v -0.9375 0.25 0.0625
v 0.9375 0.25 -1.0625
v -0.9375 0.25 -1.0625
vt 0.6875 0.90625
vt 0.6875 1
vt 0.40625 1
vt 0.40625 0.90625
vt 0.6875 0.90625
vt 0.6875 1
vt 0.40625 1
vt 0.40625 0.90625
vt 0.40625 0.71875
vt 0.40625 1
vt 0 1
vt 0 0.71875
vt 0.40625 0.625
vt 0.40625 0.71875
vt 0 0.71875
vt 0 0.625
vt 0.40625 0.625
vt 0.40625 0.71875
vt 0 0.71875
vt 0 0.625
vt 0.40625 0.8221078125
vt 0.6875 0.8221078125
vt 0.6875 0.90625
vt 0.40625 0.90625
vt 0 0.546875
vt 0.46875 0.546875
vt 0.4375 0.625
vt 0.03125 0.625
vt 0.40625 0.8221078125
vt 0.6875 0.8221078125
vt 0.6875 0.90625
vt 0.40625 0.90625
vt 0 0.546875
vt 0.46875 0.546875
vt 0.4375 0.625
vt 0.03125 0.625
vn 1 0 0
vn -1 0 0
vn 0 1 0
vn 0 0 1
vn 0 0 -1
vn 0.9284766908852593 0.3713906763541037 0
vn 0 0 1
vn -0.9284766908852593 0.3713906763541037 0
vn 0 0 -1
usemtl m_6a28f9be-20d6-969d-8125-46fc549e4449
f 44/105/27 42/106/27 41/107/27 43/108/27
f 47/109/28 45/110/28 46/111/28 48/112/28
f 41/113/29 42/114/29 46/115/29 45/116/29
f 43/117/30 41/118/30 45/119/30 47/120/30
f 48/121/31 46/122/31 42/123/31 44/124/31
f 49/125/32 51/126/32 44/127/32 43/128/32
f 50/129/33 49/130/33 43/131/33 47/132/33
f 52/133/34 50/134/34 47/135/34 48/136/34
f 51/137/35 52/138/35 48/139/35 44/140/35
o cube
v 0.375 1.375 0.75
v 0.375 1.375 0.4375
v 0.375 0.625 0.75
v 0.375 0.625 0.4375
v -0.375 1.375 0.4375
v -0.375 1.375 0.75
v -0.375 0.625 0.4375
v -0.375 0.625 0.75
vt 0 1
vt 0.1875 1
vt 0.1875 0.8125
vt 0 0.8125
vt 0 1
vt 0.078125 1
vt 0.078125 0.8125
vt 0 0.8125
vt 0 1
vt 0.1875 1
vt 0.1875 0.8125
vt 0 0.8125
vt 0 1
vt 0.078125 1
vt 0.078125 0.8125
vt 0 0.8125
vt 0 1
vt 0.1875 1
vt 0.1875 0.921875
vt 0 0.921875
vt 0 1
vt 0.1875 1
vt 0.1875 0.921875
vt 0 0.921875
vn 0 0 -1
vn 1 0 0
vn 0 0 1
vn -1 0 0
vn 0 1 0
vn 0 -1 0
usemtl none
f 56/144/36 59/143/36 57/142/36 54/141/36
f 55/148/37 56/147/37 54/146/37 53/145/37
f 60/152/38 55/151/38 53/150/38 58/149/38
f 59/156/39 60/155/39 58/154/39 57/153/39
f 58/160/40 53/159/40 54/158/40 57/157/40
f 59/164/41 56/163/41 55/162/41 60/161/41
o cube
v 1 0.25 0.5
v 1 0.25 -1.5
v 1 -0.5 0.5
v 1 -0.5 -1.5
v -1 0.25 0.5
v -1 0.25 -1.5
v -1 -0.5 0.5
v -1 -0.5 -1.5
v -0.625 0.25 0.5
v -0.625 0.25 -1.5
v 0.625 0.25 0.5
v 0.625 0.25 -1.5
v -0.625 -0.5 -1.5
v 0.625 -0.5 -1.5
v -0.625 -0.5 0.5
v 0.625 -0.5 0.5
v -0.4375 0.0625 0.5
v -0.4375 0.0625 -1.5
v 0.4375 0.0625 0.5
v 0.4375 0.0625 -1.5
v -0.4375 -0.5 -1.5
v 0.4375 -0.5 -1.5
v -0.4375 -0.5 0.5
v 0.4375 -0.5 0.5
vt 1 0.1875
vt 1 0.375
vt 0.5 0.375
vt 0.5 0.1875
vt 1 0.1875
vt 1 0.375
vt 0.5 0.375
vt 0.5 0.1875
vt 0.09375 0.5
vt 0 0.5
vt 0 0
vt 0.09375 0
vt 1 0.1875
vt 0.90625 0.1875
vt 0.90625 0
vt 1 0
vt 0.5 0
vt 0.59375 0
vt 0.59375 0.1875
vt 0.5 0.1875
vt 0.09375 0.5
vt 0 0.5
vt 0 0
vt 0.09375 0
vt 0.15814531249999997 0.5
vt 0.09185468750000003 0.5
vt 0.09185468750000003 0
vt 0.15814531249999997 0
vt 1 0.1875
vt 0.90625 0.1875
vt 0.90625 0
vt 1 0
vt 0.59375 0
vt 0.640625 0
vt 0.640625 0.140625
vt 0.59375 0.1875
vt 0.5 0
vt 0.59375 0
vt 0.59375 0.1875
vt 0.5 0.1875
vt 0.90625 0.1875
vt 0.859375 0.140625
vt 0.859375 0
vt 0.90625 0
vt 0.171875 0.5
vt 0.09375 0.5
vt 0.09375 0
vt 0.171875 0
vt 0.140625 0
vt 0.359375 0
vt 0.359375 0.5
vt 0.140625 0.5
vt 0.90625 0.1875
vt 0.859375 0.140625
vt 0.859375 0
vt 0.90625 0
vt 0.859375 0.140625
vt 0.640625 0.140625
vt 0.640625 0
vt 0.859375 0
vt 0.59375 0
vt 0.640625 0
vt 0.640625 0.140625
vt 0.59375 0.1875
vt 0.859375 0
vt 0.640625 0
vt 0.640625 0.140625
vt 0.859375 0.140625
vn 1 0 0
vn -1 0 0
vn 0 1 0
vn 0 0 1
vn 0 0 -1
vn 0 1 0
vn -0.7071067811865476 0.7071067811865476 0
vn 0 0 -1
vn 0 0 -1
vn 0 0 1
vn 0 0 1
vn 0.7071067811865476 0.7071067811865476 0
vn 0 1 0
vn 0 0 -1
vn 0 0 -1
vn 0 0 1
vn 0 0 1
usemtl m_d840f091-48f5-6d80-9500-3d3122962757
f 64/165/42 62/166/42 61/167/42 63/168/42
f 67/169/43 65/170/43 66/171/43 68/172/43
f 62/173/44 72/174/44 71/175/44 61/176/44
f 61/177/45 71/178/45 76/179/45 63/180/45
f 64/181/46 74/182/46 72/183/46 62/184/46
f 65/185/47 69/186/47 70/187/47 66/188/47
f 72/189/48 80/190/48 79/191/48 71/192/48
f 66/193/49 70/194/49 73/195/49 68/196/49
f 74/197/50 82/198/50 80/199/50 72/200/50
f 67/201/51 75/202/51 69/203/51 65/204/51
f 71/205/52 79/206/52 84/207/52 76/208/52
f 69/209/53 77/210/53 78/211/53 70/212/53
f 77/213/54 79/214/54 80/215/54 78/216/54
f 70/217/55 78/218/55 81/219/55 73/220/55
f 78/221/56 80/222/56 82/223/56 81/224/56
f 75/225/57 83/226/57 77/227/57 69/228/57
f 83/229/58 84/230/58 79/231/58 77/232/58
o cube
v 0.75 1.375 -1.0625
v 0.75 1.375 -1.4375
v 0.75 0.25 -1.0625
v 0.75 0.25 -1.4375
v -0.75 1.375 -1.0625
v -0.75 1.375 -1.4375
v -0.75 0.25 -1.0625
v -0.75 0.25 -1.4375
v -0.375 1.75 -1.0625
v -0.375 1.75 -1.4375
v 0.375 1.75 -1.0625
v 0.375 1.75 -1.4375
v -0.375 -0.125 -1.4375
v 0.375 -0.125 -1.4375
v -0.375 -0.125 -1.0625
v 0.375 -0.125 -1.0625
vt 0.375 0.53125
vt 0.375 0.8125
vt 0.28125 0.8125
vt 0.28125 0.53125
vt 0.375 0.53125
vt 0.375 0.8125
vt 0.28125 0.8125
vt 0.28125 0.53125
vt 0.375 0.8125
vt 0.375 0.9375
vt 0.28125 0.9375
vt 0.28125 0.8125
vt 0 0.90625
vt 0.09375 1
vt 0.09375 0.53125
vt 0 0.625
vt 0 0.625
vt 0.09375 0.53125
vt 0.09375 1
vt 0 0.90625
vt 0.375 0.8125
vt 0.375 0.9375
vt 0.28125 0.9375
vt 0.28125 0.8125
vt 0.375 0.90625
vt 0.5625 0.90625
vt 0.5625 1
vt 0.375 1
vt 0 0.90625
vt 0.09375 1
vt 0.09375 0.53125
vt 0 0.625
vt 0.09375 1
vt 0.28125 1
vt 0.28125 0.53125
vt 0.09375 0.53125
vt 0 0.625
vt 0.09375 0.53125
vt 0.09375 1
vt 0 0.90625
vt 0.09375 0.53125
vt 0.28125 0.53125
vt 0.28125 1
vt 0.09375 1
vn 1 0 0
vn -1 0 0
vn 0.7071067811865476 0.7071067811865476 0
vn 0 0 1
vn 0 0 -1
vn -0.7071067811865476 0.7071067811865476 0
vn 0 1 0
vn 0 0 -1
vn 0 0 -1
vn 0 0 1
vn 0 0 1
usemtl m_d840f091-48f5-6d80-9500-3d3122962757
f 88/233/59 86/234/59 85/235/59 87/236/59
f 91/237/60 89/238/60 90/239/60 92/240/60
f 86/241/61 96/242/61 95/243/61 85/244/61
f 85/245/62 95/246/62 100/247/62 87/248/62
f 88/249/63 98/250/63 96/251/63 86/252/63
f 89/253/64 93/254/64 94/255/64 90/256/64
f 93/257/65 95/258/65 96/259/65 94/260/65
f 90/261/66 94/262/66 97/263/66 92/264/66
f 94/265/67 96/266/67 98/267/67 97/268/67
f 91/269/68 99/270/68 93/271/68 89/272/68
f 99/273/69 100/274/69 95/275/69 93/276/69
o cube_selection
v -1 -0.5 0.5
v -1 -0.5 -1.5
v 1 -0.5 -1.5
v 1 -0.5 0.5
vt 0 0
vt 0.5 0
vt 0.5 0.5
vt 0 0.5
vn 0 -1 0
usemtl m_d840f091-48f5-6d80-9500-3d3122962757
f 102/277/70 103/278/70 104/279/70 101/280/70
o cube
v 0.2499999999999999 1.375 -0.5625
v 0.2499999999999999 1.375 -1.0625
v -0.2500000000000001 1.375 -0.5625
v -0.2500000000000001 1.375 -1.0625
v 0.24999999999999978 1.6875 -1.0625
v 0.24999999999999978 1.6875 -0.5625
v -0.25000000000000017 1.6875 -1.0625
v -0.25000000000000017 1.6875 -0.5625
vt 0.796875 0.5
vt 0.875 0.5
vt 0.875 0.375
vt 0.796875 0.375
vt 0.875 0.5
vt 1 0.5
vt 1 0.375
vt 0.875 0.375
vt 0.796875 0.5
vt 0.875 0.5
vt 0.875 0.375
vt 0.796875 0.375
vt 0.796875 0.5
vt 0.875 0.5
vt 0.875 0.375
vt 0.796875 0.375
vn 0 0 1
vn -2.220446049250313e-16 1 0
vn 1 2.220446049250313e-16 0
vn -1 -2.220446049250313e-16 0
usemtl m_d840f091-48f5-6d80-9500-3d3122962757
f 112/284/71 107/283/71 105/282/71 110/281/71
f 111/288/72 112/287/72 110/286/72 109/285/72
f 110/292/73 105/291/73 106/290/73 109/289/73
f 111/296/74 108/295/74 107/294/74 112/293/74
o cube
v -0.08838834764831838 1.4419417382415922 -0.5625
v -0.08838834764831838 1.4419417382415922 -1.0625
v -0.4419417382415922 1.0883883476483185 -0.5625
v -0.4419417382415922 1.0883883476483185 -1.0625
v -0.3093592167691145 1.6629126073623883 -1.0625
v -0.3093592167691145 1.6629126073623883 -0.5625
v -0.6629126073623882 1.3093592167691146 -1.0625
v -0.6629126073623882 1.3093592167691146 -0.5625
vt 0.796875 0.5
vt 0.875 0.5
vt 0.875 0.375
vt 0.796875 0.375
vt 0.875 0.5
vt 1 0.5
vt 1 0.375
vt 0.875 0.375
vt 0.796875 0.5
vt 0.875 0.5
vt 0.875 0.375
vt 0.796875 0.375
vt 0.796875 0.5
vt 0.875 0.5
vt 0.875 0.375
vt 0.796875 0.375
vn 0 0 1
vn -0.7071067811865475 0.7071067811865476 0
vn 0.7071067811865476 0.7071067811865475 0
vn -0.7071067811865476 -0.7071067811865475 0
usemtl m_d840f091-48f5-6d80-9500-3d3122962757
f 120/300/75 115/299/75 113/298/75 118/297/75
f 119/304/76 120/303/76 118/302/76 117/301/76
f 118/308/77 113/307/77 114/306/77 117/305/77
f 119/312/78 116/311/78 115/310/78 120/309/78
o cube
v 0.618718433538229 1.353553390593274 -0.625
v 0.618718433538229 1.353553390593274 -1
v 0.35355339059327373 1.6187184335382292 -0.625
v 0.35355339059327373 1.6187184335382292 -1
v 0.6629126073623883 1.397747564417433 -1
v 0.6629126073623883 1.397747564417433 -0.625
v 0.39774756441743286 1.6629126073623883 -1
v 0.39774756441743286 1.6629126073623883 -0.625
vt 0.890625 0.484375
vt 0.90625 0.484375
vt 0.90625 0.390625
vt 0.890625 0.390625
vt 0.890625 0.484375
vt 0.90625 0.484375
vt 0.90625 0.390625
vt 0.890625 0.390625
vt 0.890625 0.484375
vt 0.984375 0.484375
vt 0.984375 0.390625
vt 0.890625 0.390625
vt 0.890625 0.484375
vt 0.90625 0.484375
vt 0.90625 0.390625
vt 0.890625 0.390625
vt 0.890625 0.484375
vt 0.90625 0.484375
vt 0.90625 0.390625
vt 0.890625 0.390625
vn 0 0 -1
vn 0 0 1
vn 0.7071067811865475 0.7071067811865477 0
vn 0.7071067811865477 -0.7071067811865475 0
vn -0.7071067811865477 0.7071067811865475 0
usemtl m_d840f091-48f5-6d80-9500-3d3122962757
f 124/316/79 127/315/79 125/314/79 122/313/79
f 128/320/80 123/319/80 121/318/80 126/317/80
f 127/324/81 128/323/81 126/322/81 125/321/81
f 126/328/82 121/327/82 122/326/82 125/325/82
f 127/332/83 124/331/83 123/330/83 128/329/83
o cube
v 0.18749999999999978 1.6875 -0.625
v 0.18749999999999978 1.6875 -1
v -0.18750000000000017 1.6875 -0.625
v -0.18750000000000017 1.6875 -1
v 0.18749999999999978 1.75 -1
v 0.18749999999999978 1.75 -0.625
v -0.18750000000000017 1.75 -1
v -0.18750000000000017 1.75 -0.625
vt 0.890625 0.484375
vt 0.90625 0.484375
vt 0.90625 0.390625
vt 0.890625 0.390625
vt 0.890625 0.484375
vt 0.90625 0.484375
vt 0.90625 0.390625
vt 0.890625 0.390625
vt 0.984375 0.390625
vt 0.890625 0.390625
vt 0.890625 0.484375
vt 0.984375 0.484375
vt 0.890625 0.484375
vt 0.90625 0.484375
vt 0.90625 0.390625
vt 0.890625 0.390625
vt 0.890625 0.484375
vt 0.90625 0.484375
vt 0.90625 0.390625
vt 0.890625 0.390625
vn 0 0 -1
vn 0 0 1
vn -2.220446049250313e-16 1 0
vn 1 2.220446049250313e-16 0
vn -1 -2.220446049250313e-16 0
usemtl m_d840f091-48f5-6d80-9500-3d3122962757
f 132/336/84 135/335/84 133/334/84 130/333/84
f 136/340/85 131/339/85 129/338/85 134/337/85
f 135/344/86 136/343/86 134/342/86 133/341/86
f 134/348/87 129/347/87 130/346/87 133/345/87
f 135/352/88 132/351/88 131/350/88 136/349/88
o cube
v -0.3535533905932737 1.6187184335382292 -0.625
v -0.3535533905932737 1.6187184335382292 -1
v -0.618718433538229 1.353553390593274 -0.625
v -0.618718433538229 1.353553390593274 -1
v -0.3977475644174329 1.6629126073623883 -1
v -0.3977475644174329 1.6629126073623883 -0.625
v -0.6629126073623883 1.397747564417433 -1
v -0.6629126073623883 1.397747564417433 -0.625
vt 0.890625 0.484375
vt 0.90625 0.484375
vt 0.90625 0.390625
vt 0.890625 0.390625
vt 0.890625 0.484375
vt 0.90625 0.484375
vt 0.90625 0.390625
vt 0.890625 0.390625
vt 0.890625 0.484375
vt 0.984375 0.484375
vt 0.984375 0.390625
vt 0.890625 0.390625
vt 0.890625 0.484375
vt 0.90625 0.484375
vt 0.90625 0.390625
vt 0.890625 0.390625
vt 0.890625 0.484375
vt 0.90625 0.484375
vt 0.90625 0.390625
vt 0.890625 0.390625
vn 0 0 -1
vn 0 0 1
vn -0.7071067811865475 0.7071067811865476 0
vn 0.7071067811865476 0.7071067811865475 0
vn -0.7071067811865476 -0.7071067811865475 0
usemtl m_d840f091-48f5-6d80-9500-3d3122962757
f 140/356/89 143/355/89 141/354/89 138/353/89
f 144/360/90 139/359/90 137/358/90 142/357/90
f 143/364/91 144/363/91 142/362/91 141/361/91
f 142/368/92 137/367/92 138/366/92 141/365/92
f 143/372/93 140/371/93 139/370/93 144/369/93
o cube
v 0.6875 0.8125 -0.625
v 0.6875 0.8125 -1
v 0.6875 1.1875 -0.625
v 0.6875 1.1875 -1
v 0.75 0.8125 -1
v 0.75 0.8125 -0.625
v 0.75 1.1875 -1
v 0.75 1.1875 -0.625
vt 0.890625 0.484375
vt 0.90625 0.484375
vt 0.90625 0.390625
vt 0.890625 0.390625
vt 0.890625 0.484375
vt 0.90625 0.484375
vt 0.90625 0.390625
vt 0.890625 0.390625
vt 0.890625 0.484375
vt 0.984375 0.484375
vt 0.984375 0.390625
vt 0.890625 0.390625
vt 0.890625 0.484375
vt 0.90625 0.484375
vt 0.90625 0.390625
vt 0.890625 0.390625
vt 0.890625 0.484375
vt 0.90625 0.484375
vt 0.90625 0.390625
vt 0.890625 0.390625
vn 0 0 -1
vn 0 0 1
vn 1 1.2246467991473532e-16 0
vn 1.2246467991473532e-16 -1 0
vn -1.2246467991473532e-16 1 0
usemtl m_d840f091-48f5-6d80-9500-3d3122962757
f 148/376/94 151/375/94 149/374/94 146/373/94
f 152/380/95 147/379/95 145/378/95 150/377/95
f 151/384/96 152/383/96 150/382/96 149/381/96
f 150/388/97 145/387/97 146/386/97 149/385/97
f 151/392/98 148/391/98 147/390/98 152/389/98
o cube
v -0.6875 1.1875 -0.625
v -0.6875 1.1875 -1
v -0.6875 0.8125 -0.625
v -0.6875 0.8125 -1
v -0.75 1.1875 -1
v -0.75 1.1875 -0.625
v -0.75 0.8125 -1
v -0.75 0.8125 -0.625
vt 0.890625 0.484375
vt 0.90625 0.484375
vt 0.90625 0.390625
vt 0.890625 0.390625
vt 0.890625 0.484375
vt 0.90625 0.484375
vt 0.90625 0.390625
vt 0.890625 0.390625
vt 0.890625 0.484375
vt 0.984375 0.484375
vt 0.984375 0.390625
vt 0.890625 0.390625
vt 0.890625 0.484375
vt 0.90625 0.484375
vt 0.90625 0.390625
vt 0.890625 0.390625
vt 0.890625 0.484375
vt 0.90625 0.484375
vt 0.90625 0.390625
vt 0.890625 0.390625
vn 0 0 -1
vn 0 0 1
vn -1 0 0
vn 0 1 0
vn 0 -1 0
usemtl m_d840f091-48f5-6d80-9500-3d3122962757
f 156/396/99 159/395/99 157/394/99 154/393/99
f 160/400/100 155/399/100 153/398/100 158/397/100
f 159/404/101 160/403/101 158/402/101 157/401/101
f 158/408/102 153/407/102 154/406/102 157/405/102
f 159/412/103 156/411/103 155/410/103 160/409/103
o cube
v 0.5 1.5625 0.0625
v 0.5 1.5625 -0.5625
v 0.5 1.25 0.0625
v 0.5 1.25 -0.5625
v -0.5 1.5625 0.0625
v -0.5 1.5625 -0.5625
v -0.5 1.25 0.0625
v -0.5 1.25 -0.5625
vt 0.640625 0.375
vt 0.640625 0.453125
vt 0.796875 0.453125
vt 0.796875 0.375
vt 0.796875 0.375
vt 0.796875 0.453125
vt 0.640625 0.453125
vt 0.640625 0.375
vt 1 0.5
vt 1 0.65625
vt 0.75 0.65625
vt 0.75 0.5
vt 1 0.5
vt 1 0.578125
vt 0.75 0.578125
vt 0.75 0.5
vn 1 0 0
vn -1 0 0
vn 0 1 0
vn 0 0 -1
usemtl m_d840f091-48f5-6d80-9500-3d3122962757
f 164/413/104 162/414/104 161/415/104 163/416/104
f 167/417/105 165/418/105 166/419/105 168/420/105
f 161/421/106 162/422/106 166/423/106 165/424/106
f 168/425/107 166/426/107 162/427/107 164/428/107