# Made in Blockbench 4.10.1
mtllib disruptor_segment.mtl

o cube
v 0.5 0.375 1.25
v -0.5 0.375 1.25
v 0.4999999999999998 0.375 -1.25
v -0.5 0.375 -1.25
v 1.25 0.375 0.4999999999999998
v -1.25 0.375 0.5
v 1.25 0.375 -0.5000000000000002
v -1.25 0.375 -0.5
v -1.25 0.5 0.5
v -1.25 0.5 -0.5
v 1.25 0.5 0.5
v 1.25 0.5 -0.5
v -0.5 0.5 1.25
v 0.5 0.5 1.25
v 0.5 0.5 -1.25
v -0.5 0.5 -1.25
vt 0.625 0.75
vt 0.4375 0.5625
vt 0.1875 0.5625
vt 0 0.75
vt 0 0.75
vt 0.625 0.75
vt 0.625 1
vt 0 1
vt 0.625 0.75
vt 0.4375 0.5625
vt 0.1875 0.5625
vt 0 0.75
vt 0.359375 0.46875
vt 0.609375 0.46875
vt 0.609375 0.5
vt 0.359375 0.5
vt 0 0.46875
vt 0.2651640625 0.46875
vt 0.2651640625 0.5
vt 0 0.5
vt 0 0.46875
vt 0.2651640625 0.46875
vt 0.2651640625 0.5
vt 0 0.5
vt 0.359375 0.46875
vt 0.609375 0.46875
vt 0.609375 0.5
vt 0.359375 0.5
vt 0.359375 0.46875
vt 0.609375 0.46875
vt 0.609375 0.5
vt 0.359375 0.5
vt 0 0.46875
vt 0.2651640625 0.46875
vt 0.2651640625 0.5
vt 0 0.5
vt 0.359375 0.46875
vt 0.609375 0.46875
vt 0.609375 0.5
vt 0.359375 0.5
vt 0 0.46875
vt 0.2651640625 0.46875
vt 0.2651640625 0.5
vt 0 0.5
vt 0 0.75
vt 0.625 0.75
vt 0.625 1
vt 0 1
vt 0.625 0.75
vt 0.4375 0.5625
vt 0.1875 0.5625
vt 0 0.75
vt 0.625 0.75
vt 0.4375 0.5625
vt 0.1875 0.5625
vt 0 0.75
vn 0 -1 0
vn 0 -1 0
vn 0 -1 0
vn 0 0 1
vn 0.7071067811865477 -1.6747652892626932e-15 0.7071067811865475
vn -0.7071067811865476 0 0.7071067811865476
vn 1 0 0
vn -1 0 0
vn 0.7071067811865474 -1.6747652892626936e-15 -0.7071067811865478
vn 0 0 -1
vn -0.7071067811865476 0 -0.7071067811865476
vn 0 1 0
vn 0 1 0
vn 0 1 0
usemtl m_3a539f61-3129-c122-0122-50154180bbf2
f 5/1/1 1/2/1 2/3/1 6/4/1
f 6/5/2 8/6/2 7/7/2 5/8/2
f 8/9/3 4/10/3 3/11/3 7/12/3
f 2/13/4 1/14/4 14/15/4 13/16/4
f 1/17/5 5/18/5 11/19/5 14/20/5
f 6/21/6 2/22/6 13/23/6 9/24/6
f 5/25/7 7/26/7 12/27/7 11/28/7
f 8/29/8 6/30/8 9/31/8 10/32/8
f 7/33/9 3/34/9 15/35/9 12/36/9
f 3/37/10 4/38/10 16/39/10 15/40/10
f 4/41/11 8/42/11 10/43/11 16/44/11
f 9/45/12 11/46/12 12/47/12 10/48/12
f 9/49/13 13/50/13 14/51/13 11/52/13
f 12/53/14 15/54/14 16/55/14 10/56/14
o cube
v 0.5 -0.5 1.25
v -0.5 -0.5 1.25
v 0.4999999999999998 -0.5 -1.25
v -0.5 -0.5 -1.25
v 1.25 -0.5 0.4999999999999998
v -1.25 -0.5 0.5
v 1.25 -0.5 -0.5000000000000002
v -1.25 -0.5 -0.5
v -1.25 -0.375 0.5
v -1.25 -0.375 -0.5
v 1.25 -0.375 0.5
v 1.25 -0.375 -0.5
v -0.5 -0.375 1.25
v 0.5 -0.375 1.25
v 0.5 -0.375 -1.25
v -0.5 -0.375 -1.25
vt 0.625 0.75
vt 0.4375 0.5625
vt 0.1875 0.5625
vt 0 0.75
vt 0 0.75
vt 0.625 0.75
vt 0.625 1
vt 0 1
vt 0.625 0.75
vt 0.4375 0.5625
vt 0.1875 0.5625
vt 0 0.75
vt 0.359375 0.46875
vt 0.609375 0.46875
vt 0.609375 0.5
vt 0.359375 0.5
vt 0 0.46875
vt 0.2651640625 0.46875
vt 0.2651640625 0.5
vt 0 0.5
vt 0 0.46875
vt 0.2651640625 0.46875
vt 0.2651640625 0.5
vt 0 0.5
vt 0.359375 0.46875
vt 0.609375 0.46875
vt 0.609375 0.5
vt 0.359375 0.5
vt 0.359375 0.46875
vt 0.609375 0.46875
vt 0.609375 0.5
vt 0.359375 0.5
vt 0 0.46875
vt 0.2651640625 0.46875
vt 0.2651640625 0.5
vt 0 0.5
vt 0.359375 0.46875
vt 0.609375 0.46875
vt 0.609375 0.5
vt 0.359375 0.5
vt 0 0.46875
vt 0.2651640625 0.46875
vt 0.2651640625 0.5
vt 0 0.5
vt 0 0.75
vt 0.625 0.75
vt 0.625 1
vt 0 1
vt 0.625 0.75
vt 0.4375 0.5625
vt 0.1875 0.5625
vt 0 0.75
vt 0.625 0.75
vt 0.4375 0.5625
vt 0.1875 0.5625
vt 0 0.75
vn 0 -1 0
vn 0 -1 0
vn 0 -1 0
vn 0 0 1
vn 0.7071067811865477 -1.6747652892626932e-15 0.7071067811865475
vn -0.7071067811865476 0 0.7071067811865476
vn 1 0 0
vn -1 0 0
vn 0.7071067811865474 -1.6747652892626936e-15 -0.7071067811865478
vn 0 0 -1
vn -0.7071067811865476 0 -0.7071067811865476
vn 0 1 0
vn 0 1 0
vn 0 1 0
usemtl m_3a539f61-3129-c122-0122-50154180bbf2
f 21/57/15 17/58/15 18/59/15 22/60/15
f 22/61/16 24/62/16 23/63/16 21/64/16
f 24/65/17 20/66/17 19/67/17 23/68/17
f 18/69/18 17/70/18 30/71/18 29/72/18
f 17/73/19 21/74/19 27/75/19 30/76/19
f 22/77/20 18/78/20 29/79/20 25/80/20
f 21/81/21 23/82/21 28/83/21 27/84/21
f 24/85/22 22/86/22 25/87/22 26/88/22
f 23/89/23 19/90/23 31/91/23 28/92/23
f 19/93/24 20/94/24 32/95/24 31/96/24
f 20/97/25 24/98/25 26/99/25 32/100/25
f 25/101/26 27/102/26 28/103/26 26/104/26
f 25/105/27 29/106/27 30/107/27 27/108/27
f 28/109/28 31/110/28 32/111/28 26/112/28