# Made in Blockbench 4.9.4
mtllib large_crusher_jaw.mtl

o cube
v -1.1250000037252892 2.3418291483239595 -1.2934698676400842
v -1.1249999990686763 2.4614177209380497 -1.0047575137303082
v -1.12500000372529 0.7250399664292084 -0.6237738610011774
v -1.1249999990686772 0.8446285390432986 -0.33506150709140126
v 1.1250000009313237 2.4614177081075868 -1.004757544705783
v 1.1249999962747108 2.3418291354934966 -1.2934698986155593
v 1.1250000009313228 0.8446285262128357 -0.3350615380668761
v 1.12499999627471 0.7250399535987455 -0.6237738919766522
vt 0 1
vt 0.5625 1
vt 0.5625 0.5625000000000002
vt 0 0.5625000000000002
vt 0 0.5625
vt 0.5625 0.5625
vt 0.5625 0.4843750000000002
vt 0 0.4843750000000002
vn 1.49011612480539e-8 0.38268343236508984 0.9238795325112867
vn 4.90404742276898e-16 0.9238795325112867 -0.38268343236508984
usemtl m_9ab97e7e-4af0-9a69-2e2d-622299f7fcaa
f 4/4/1 7/3/1 5/2/1 2/1/1
f 6/8/2 1/7/2 2/6/2 5/5/2
o cube
v -0.8749999990686763 2.4614177195124425 -1.0047575171720275
v -0.8749999981373537 2.4853354340352602 -0.9470150463900726
v -0.8749999990686772 0.8446285376176916 -0.3350615105331207
v -0.8749999981373546 0.8685462521405096 -0.2773190397511658
v -0.7499999981373537 2.485335433322457 -0.9470150481109323
v -0.7499999990686763 2.4614177187996393 -1.0047575188928872
v -0.7499999981373546 0.868546251427706 -0.27731904147202546
v -0.7499999990686772 0.844628536904888 -0.3350615122539804
vt 0.5625 1
vt 0.59375 1
vt 0.59375 0.5625000000000002
vt 0.5625 0.5625000000000002
vt 0.59375 1
vt 0.6093749999999999 1
vt 0.6093749999999999 0.5625000000000002
vt 0.59375 0.5625000000000002
vt 0.59375 1
vt 0.6093749999999999 1
vt 0.6093749999999999 0.5625000000000002
vt 0.59375 0.5625000000000002
vt 0.609375 1
vt 0.640625 1
vt 0.640625 0.9843750000000001
vt 0.609375 0.9843750000000001
vn 1.49011612480539e-8 0.38268343236508984 0.9238795325112867
vn -1 5.702427985705835e-9 1.3766877700057566e-8
vn 1 -5.702427985705835e-9 -1.3766877700057566e-8
vn 4.90404742276898e-16 0.9238795325112867 -0.38268343236508984
usemtl m_9ab97e7e-4af0-9a69-2e2d-622299f7fcaa
f 12/12/3 15/11/3 13/10/3 10/9/3
f 11/16/4 12/15/4 10/14/4 9/13/4
f 15/20/5 16/19/5 14/18/5 13/17/5
f 14/24/6 9/23/6 10/22/6 13/21/6
o cube
v -1.1249999990686763 2.4614177209380497 -1.0047575137303082
v -1.1249999981373537 2.4853354354608674 -0.9470150429483533
v -1.1249999990686772 0.8446285390432986 -0.33506150709140126
v -1.1249999981373546 0.8685462535661166 -0.2773190363094463
v -0.9999999981373537 2.485335434748064 -0.9470150446692129
v -0.9999999990686763 2.461417720225246 -1.0047575154511679
v -0.9999999981373546 0.868546252853313 -0.2773190380303061
v -0.9999999990686772 0.844628538330495 -0.33506150881226104
vt 0.5625 1
vt 0.59375 1
vt 0.59375 0.5625000000000002
vt 0.5625 0.5625000000000002
vt 0.59375 1
vt 0.6093749999999999 1
vt 0.6093749999999999 0.5625000000000002
vt 0.59375 0.5625000000000002
vt 0.59375 1
vt 0.6093749999999999 1
vt 0.6093749999999999 0.5625000000000002
vt 0.59375 0.5625000000000002
vt 0.609375 1
vt 0.640625 1
vt 0.640625 0.9843750000000001
vt 0.609375 0.9843750000000001
vn 1.49011612480539e-8 0.38268343236508984 0.9238795325112867
vn -1 5.702427985705835e-9 1.3766877700057566e-8
vn 1 -5.702427985705835e-9 -1.3766877700057566e-8
vn 4.90404742276898e-16 0.9238795325112867 -0.38268343236508984
usemtl m_9ab97e7e-4af0-9a69-2e2d-622299f7fcaa
f 20/28/7 23/27/7 21/26/7 18/25/7
f 19/32/8 20/31/8 18/30/8 17/29/8
f 23/36/9 24/35/9 22/34/9 21/33/9
f 22/40/10 17/39/10 18/38/10 21/37/10
o cube
v -0.6249999990686763 2.4614177180868357 -1.004757520613747
v -0.6249999981373537 2.4853354326096535 -0.947015049831792
v -0.6249999990686772 0.8446285361920847 -0.3350615139748402
v -0.6249999981373546 0.8685462507149027 -0.27731904319288525
v -0.4999999981373538 2.48533543189685 -0.9470150515526519
v -0.49999999906867637 2.461417717374032 -1.0047575223346068
v -0.4999999981373547 0.8685462500020991 -0.2773190449137449
v -0.49999999906867726 0.8446285354792811 -0.33506151569569986
vt 0.5625 1
vt 0.59375 1
vt 0.59375 0.5625000000000002
vt 0.5625 0.5625000000000002
vt 0.59375 1
vt 0.6093749999999999 1
vt 0.6093749999999999 0.5625000000000002
vt 0.59375 0.5625000000000002
vt 0.59375 1
vt 0.6093749999999999 1
vt 0.6093749999999999 0.5625000000000002
vt 0.59375 0.5625000000000002
vt 0.609375 1
vt 0.640625 1
vt 0.640625 0.9843750000000001
vt 0.609375 0.9843750000000001
vn 1.49011612480539e-8 0.38268343236508984 0.9238795325112867
vn -1 5.702427985705835e-9 1.3766877700057566e-8
vn 1 -5.702427985705835e-9 -1.3766877700057566e-8
vn 4.90404742276898e-16 0.9238795325112867 -0.38268343236508984
usemtl m_9ab97e7e-4af0-9a69-2e2d-622299f7fcaa
f 28/44/11 31/43/11 29/42/11 26/41/11
f 27/48/12 28/47/12 26/46/12 25/45/12
f 31/52/13 32/51/13 30/50/13 29/49/13
f 30/56/14 25/55/14 26/54/14 29/53/14
o cube
v 0.12500000093132368 2.4614177138100146 -1.0047575309389052
v 0.12500000186264626 2.4853354283328324 -0.9470150601569503
v 0.1250000009313228 0.8446285319152635 -0.33506152429999847
v 0.12500000186264537 0.8685462464380815 -0.27731905351804353
v 0.25000000186264626 2.485335427620029 -0.9470150618778099
v 0.2500000009313237 2.461417713097211 -1.0047575326597649
v 0.25000000186264537 0.8685462457252782 -0.2773190552389032
v 0.2500000009313228 0.8446285312024602 -0.33506152602085815
vt 0.5625 1
vt 0.59375 1
vt 0.59375 0.5625000000000002
vt 0.5625 0.5625000000000002
vt 0.59375 1
vt 0.6093749999999999 1
vt 0.6093749999999999 0.5625000000000002
vt 0.59375 0.5625000000000002
vt 0.59375 1
vt 0.6093749999999999 1
vt 0.6093749999999999 0.5625000000000002
vt 0.59375 0.5625000000000002
vt 0.609375 1
vt 0.640625 1
vt 0.640625 0.9843750000000001
vt 0.609375 0.9843750000000001
vn 1.49011612480539e-8 0.38268343236508984 0.9238795325112867
vn -1 5.702427985705835e-9 1.3766877700057566e-8
vn 1 -5.702427985705835e-9 -1.3766877700057566e-8
vn 4.90404742276898e-16 0.9238795325112867 -0.38268343236508984
usemtl m_9ab97e7e-4af0-9a69-2e2d-622299f7fcaa
f 36/60/15 39/59/15 37/58/15 34/57/15
f 35/64/16 36/63/16 34/62/16 33/61/16
f 39/68/17 40/67/17 38/66/17 37/65/17
f 38/72/18 33/71/18 34/70/18 37/69/18
o cube
v -0.12499999906867637 2.461417715235622 -1.0047575274971858
v -0.1249999981373538 2.4853354297584396 -0.9470150567152309
v -0.12499999906867726 0.8446285333408705 -0.335061520858279
v -0.12499999813735468 0.8685462478636885 -0.27731905007632407
v 1.8626462594539817e-9 2.485335429045636 -0.9470150584360906
v 9.313235738162007e-10 2.461417714522818 -1.0047575292180455
v 1.862645371275562e-9 0.8685462471508851 -0.27731905179718375
v 9.313227966600834e-10 0.8446285326280671 -0.3350615225791387
vt 0.5625 1
vt 0.59375 1
vt 0.59375 0.5625000000000002
vt 0.5625 0.5625000000000002
vt 0.59375 1
vt 0.6093749999999999 1
vt 0.6093749999999999 0.5625000000000002
vt 0.59375 0.5625000000000002
vt 0.59375 1
vt 0.6093749999999999 1
vt 0.6093749999999999 0.5625000000000002
vt 0.59375 0.5625000000000002
vt 0.609375 1
vt 0.640625 1
vt 0.640625 0.9843750000000001
vt 0.609375 0.9843750000000001
vn 1.49011612480539e-8 0.38268343236508984 0.9238795325112867
vn -1 5.702427985705835e-9 1.3766877700057566e-8
vn 1 -5.702427985705835e-9 -1.3766877700057566e-8
vn 4.90404742276898e-16 0.9238795325112867 -0.38268343236508984
usemtl m_9ab97e7e-4af0-9a69-2e2d-622299f7fcaa
f 44/76/19 47/75/19 45/74/19 42/73/19
f 43/80/20 44/79/20 42/78/20 41/77/20
f 47/84/21 48/83/21 46/82/21 45/81/21
f 46/88/22 41/87/22 42/86/22 45/85/22
o cube
v -0.37499999906867637 2.4614177166612285 -1.0047575240554665
v -0.3749999981373538 2.4853354311840463 -0.9470150532735115
v -0.37499999906867726 0.8446285347664777 -0.33506151741655954
v -0.3749999981373547 0.8685462492892957 -0.2773190466346046
v -0.2499999981373538 2.485335430471243 -0.9470150549943712
v -0.24999999906867637 2.4614177159484254 -1.0047575257763262
v -0.24999999813735463 0.8685462485764921 -0.2773190483554644
v -0.2499999990686772 0.8446285340536741 -0.33506151913741933
vt 0.5625 1
vt 0.59375 1
vt 0.59375 0.5625000000000002
vt 0.5625 0.5625000000000002
vt 0.59375 1
vt 0.6093749999999999 1
vt 0.6093749999999999 0.5625000000000002
vt 0.59375 0.5625000000000002
vt 0.59375 1
vt 0.6093749999999999 1
vt 0.6093749999999999 0.5625000000000002
vt 0.59375 0.5625000000000002
vt 0.609375 1
vt 0.640625 1
vt 0.640625 0.9843750000000001
vt 0.609375 0.9843750000000001
vn 1.49011612480539e-8 0.38268343236508984 0.9238795325112867
vn -1 5.702427985705835e-9 1.3766877700057566e-8
vn 1 -5.702427985705835e-9 -1.3766877700057566e-8
vn 4.90404742276898e-16 0.9238795325112867 -0.38268343236508984
usemtl m_9ab97e7e-4af0-9a69-2e2d-622299f7fcaa
f 52/92/23 55/91/23 53/90/23 50/89/23
f 51/96/24 52/95/24 50/94/24 49/93/24
f 55/100/25 56/99/25 54/98/25 53/97/25
f 54/104/26 49/103/26 50/102/26 53/101/26
o cube
v 0.6875000009313237 2.461417710602399 -1.004757538682774
v 0.6875000018626463 2.485335425125217 -0.9470150679008191
v 0.6875000009313228 0.8446285287076478 -0.3350615320438671
v 0.6875000018626454 0.8685462432304658 -0.2773190612619122
v 0.8125000018626463 2.4853354244124133 -0.9470150696216788
v 0.8125000009313237 2.4614177098895955 -1.0047575404036337
v 0.8125000018626454 0.8685462425176624 -0.27731906298277187
v 0.8125000009313228 0.8446285279948444 -0.3350615337647268
vt 0.5625 1
vt 0.59375 1
vt 0.59375 0.5625000000000002
vt 0.5625 0.5625000000000002
vt 0.59375 1
vt 0.6093749999999999 1
vt 0.6093749999999999 0.5625000000000002
vt 0.59375 0.5625000000000002
vt 0.59375 1
vt 0.6093749999999999 1
vt 0.6093749999999999 0.5625000000000002
vt 0.59375 0.5625000000000002
vt 0.609375 1
vt 0.640625 1
vt 0.640625 0.9843750000000001
vt 0.609375 0.9843750000000001
vn 1.49011612480539e-8 0.38268343236508984 0.9238795325112867
vn -1 5.702427985705835e-9 1.3766877700057566e-8
vn 1 -5.702427985705835e-9 -1.3766877700057566e-8
vn 4.90404742276898e-16 0.9238795325112867 -0.38268343236508984
usemtl m_9ab97e7e-4af0-9a69-2e2d-622299f7fcaa
f 60/108/27 63/107/27 61/106/27 58/105/27
f 59/112/28 60/111/28 58/110/28 57/109/28
f 63/116/29 64/115/29 62/114/29 61/113/29
f 62/120/30 57/119/30 58/118/30 61/117/30
o cube
v 0.4375000009313237 2.461417712028006 -1.0047575352410545
v 0.43750000186264626 2.4853354265508236 -0.9470150644590996
v 0.4375000009313228 0.8446285301332548 -0.33506152860214766
v 0.43750000186264537 0.8685462446560728 -0.2773190578201927
v 0.5625000018626463 2.48533542583802 -0.9470150661799592
v 0.5625000009313237 2.4614177113152023 -1.0047575369619142
v 0.5625000018626454 0.8685462439432694 -0.2773190595410525
v 0.5625000009313228 0.8446285294204514 -0.33506153032300745
vt 0.5625 1
vt 0.59375 1
vt 0.59375 0.5625000000000002
vt 0.5625 0.5625000000000002
vt 0.59375 1
vt 0.6093749999999999 1
vt 0.6093749999999999 0.5625000000000002
vt 0.59375 0.5625000000000002
vt 0.59375 1
vt 0.6093749999999999 1
vt 0.6093749999999999 0.5625000000000002
vt 0.59375 0.5625000000000002
vt 0.609375 1
vt 0.640625 1
vt 0.640625 0.9843750000000001
vt 0.609375 0.9843750000000001
vn 1.49011612480539e-8 0.38268343236508984 0.9238795325112867
vn -1 5.702427985705835e-9 1.3766877700057566e-8
vn 1 -5.702427985705835e-9 -1.3766877700057566e-8
vn 4.90404742276898e-16 0.9238795325112867 -0.38268343236508984
usemtl m_9ab97e7e-4af0-9a69-2e2d-622299f7fcaa
f 68/124/31 71/123/31 69/122/31 66/121/31
f 67/128/32 68/127/32 66/126/32 65/125/32
f 71/132/33 72/131/33 70/130/33 69/129/33
f 70/136/34 65/135/34 66/134/34 69/133/34
o cube
v 1.0000000009313237 2.4614177088203903 -1.0047575429849231
v 1.0000000018626463 2.485335423343208 -0.9470150722029682
v 1.0000000009313228 0.8446285269256391 -0.33506153634601643
v 1.0000000018626454 0.868546241448457 -0.2773190655640615
v 1.1250000018626463 2.4853354226304045 -0.9470150739238281
v 1.1250000009313237 2.4614177081075868 -1.004757544705783
v 1.1250000018626454 0.8685462407356537 -0.2773190672849212
v 1.1250000009313228 0.8446285262128357 -0.3350615380668761
vt 0.5625 1
vt 0.59375 1
vt 0.59375 0.5625000000000002
vt 0.5625 0.5625000000000002
vt 0.59375 1
vt 0.6093749999999999 1
vt 0.6093749999999999 0.5625000000000002
vt 0.59375 0.5625000000000002
vt 0.59375 1
vt 0.6093749999999999 1
vt 0.6093749999999999 0.5625000000000002
vt 0.59375 0.5625000000000002
vt 0.609375 1
vt 0.640625 1
vt 0.640625 0.9843750000000001
vt 0.609375 0.9843750000000001
vn 1.49011612480539e-8 0.38268343236508984 0.9238795325112867
vn -1 5.702427985705835e-9 1.3766877700057566e-8
vn 1 -5.702427985705835e-9 -1.3766877700057566e-8
vn 4.90404742276898e-16 0.9238795325112867 -0.38268343236508984
usemtl m_9ab97e7e-4af0-9a69-2e2d-622299f7fcaa
f 76/140/35 79/139/35 77/138/35 74/137/35
f 75/144/36 76/143/36 74/142/36 73/141/36
f 79/148/37 80/147/37 78/146/37 77/145/37
f 78/152/38 73/151/38 74/150/38 77/149/38