# Made in Blockbench 4.9.0
mtllib base.mtl

o cube_selection_selection
v -0.6875 2.375 1.3125
v -0.6875 0.5 1.3125
v -0.6875 0.5 1.4375
v -0.6875 2.375 1.4375
v -0.3125 0.5 1.4375
v -0.3125 2.375 1.4375
v -0.3125 0.5 1.3125
v -0.3125 2.375 1.3125
v -0.3125 2.5 1.3125
v -0.6875 2.5 1.3125
vt 0.90625 0.46875
vt 0.90625 0
vt 0.875 0
vt 0.875 0.46875
vt 1 0
vt 0.90625 0
vt 0.90625 0.46875
vt 1 0.46875
vt 0.90625 0.46875
vt 0.90625 0
vt 0.875 0
vt 0.875 0.46875
vt 0.90625 0.46875
vt 0.90625 0.5
vt 0.875 0.46875
vt 0.90625 0.46875
vt 0.90625 0.515625
vt 1 0.515625
vt 1 0.46875
vt 0.90625 0.46875
vt 0.90625 0.5
vt 0.875 0.46875
vn 1 0 0
vn 0 0 1
vn -1 0 0
vn 1 0 0
vn 0 0.7071067811865476 0.7071067811865476
vn -1 0 0
usemtl m_5744a275-d86d-5600-2385-b1d571c12768
f 6/1/1 5/2/1 7/3/1 8/4/1
f 3/5/2 5/6/2 6/7/2 4/8/2
f 3/9/3 4/10/3 1/11/3 2/12/3
f 8/13/4 9/14/4 6/15/4
f 6/16/5 9/17/5 10/18/5 4/19/5
f 4/20/6 10/21/6 1/22/6
o cube
v 1.5 0.5 1.5
v 1.5 0.5 -1.5
v 1.5 -0.5 1.5
v 1.5 -0.5 -1.5
v -1.5 0.5 1.5
v -1.5 0.5 -1.5
v -1.5 -0.5 1.5
v -1.5 -0.5 -1.5
v 1.3125 0.5 -1.3125
v -1.3125 0.5 -1.3125
v 1.3125 0.5 1.3125
v -1.3125 0.5 1.3125
vt 0.75 0.75
vt 0.75 1
vt 0 1
vt 0 0.75
vt 0.75 0.75
vt 0.75 1
vt 0 1
vt 0 0.75
vt 0.0625 0.75
vt 0.0625 0.8125
vt 0 0.8125
vt 0 0.75
vt 0.75 0.75
vt 0.75 1
vt 0 1
vt 0 0.75
vt 0.75 0.75
vt 0.75 1
vt 0 1
vt 0 0.75
vt 0.04687500000000017 0.046875
vt 0.046874999999999944 0.703125
vt 0 0.75
vt 1.1102230246251565e-16 0
vt 0.09375000000000017 0.046875
vt 0.09374999999999994 0.703125
vt 0.046875 0.75
vt 0.04687500000000011 0
vt 0.04687500000000017 0.046875
vt 0.046874999999999944 0.703125
vt 0 0.75
vt 1.1102230246251565e-16 0
vt 0.09375000000000017 0.046875
vt 0.09374999999999994 0.703125
vt 0.046875 0.75
vt 0.04687500000000011 0
vn 1 0 0
vn -1 0 0
vn 0 -1 0
vn 0 0 1
vn 0 0 -1
vn 0 1 0
vn 0 1 0
vn 0 1 0
vn 0 1 0
usemtl m_5744a275-d86d-5600-2385-b1d571c12768
f 14/23/7 12/24/7 11/25/7 13/26/7
f 17/27/8 15/28/8 16/29/8 18/30/8
f 14/31/9 13/32/9 17/33/9 18/34/9
f 13/35/10 11/36/10 15/37/10 17/38/10
f 18/39/11 16/40/11 12/41/11 14/42/11
f 19/43/12 21/44/12 11/45/12 12/46/12
f 20/47/13 19/48/13 12/49/13 16/50/13
f 22/51/14 20/52/14 16/53/14 15/54/14
f 21/55/15 22/56/15 15/57/15 11/58/15
o cube_selection_selection
v 0.3125 2.375 1.3125
v 0.3125 0.5 1.3125
v 0.3125 0.5 1.4375
v 0.3125 2.375 1.4375
v 0.6875 0.5 1.4375
v 0.6875 2.375 1.4375
v 0.6875 0.5 1.3125
v 0.6875 2.375 1.3125
v 0.6875 2.5 1.3125
v 0.3125 2.5 1.3125
vt 0.90625 0.46875
vt 0.90625 0
vt 0.875 0
vt 0.875 0.46875
vt 1 0
vt 0.90625 0
vt 0.90625 0.46875
vt 1 0.46875
vt 0.90625 0.46875
vt 0.90625 0
vt 0.875 0
vt 0.875 0.46875
vt 0.90625 0.46875
vt 0.90625 0.5
vt 0.875 0.46875
vt 0.90625 0.46875
vt 0.90625 0.515625
vt 1 0.515625
vt 1 0.46875
vt 0.90625 0.46875
vt 0.90625 0.5
vt 0.875 0.46875
vn 1 0 0
vn 0 0 1
vn -1 0 0
vn 1 0 0
vn 0 0.7071067811865476 0.7071067811865476
vn -1 0 0
usemtl m_5744a275-d86d-5600-2385-b1d571c12768
f 28/59/16 27/60/16 29/61/16 30/62/16
f 25/63/17 27/64/17 28/65/17 26/66/17
f 25/67/18 26/68/18 23/69/18 24/70/18
f 30/71/19 31/72/19 28/73/19
f 28/74/20 31/75/20 32/76/20 26/77/20
f 26/78/21 32/79/21 23/80/21
o cube_selection
v 1.3125 0.5 -1.3125
v -1.3125 0.5 -1.3125
v 1.3125 0.5 1.3125
v -1.3125 0.5 1.3125
v -1.3125 2.375 1.3125
v 1.3125 2.375 1.3125
v -1.3125 2.375 -1.3125
v 1.3125 2.375 -1.3125
vt 0.65625 0.46875
vt 0 0.46875
vt 0 0
vt 0.65625 0
vt 0.65625 0.96875
vt 0 0.96875
vt 0 0.5
vt 0.65625 0.5
vt 0.65625 0.96875
vt 0 0.96875
vt 0 0.5
vt 0.65625 0.5
vt 0 0
vt 0.65625 0
vt 0.65625 0.46875
vt 0 0.46875
vn -1 0 0
vn 0 0 1
vn 0 0 -1
vn 1 0 0
usemtl m_2a81b916-1673-09ac-38c1-4535d2ace01d
f 37/81/22 39/82/22 34/83/22 36/84/22
f 38/85/23 37/86/23 36/87/23 35/88/23
f 39/89/24 40/90/24 33/91/24 34/92/24
f 35/93/25 33/94/25 40/95/25 38/96/25
o cube_selection_selection
v -1.3125 2.375 0.5
v 1.3125 2.375 0.5
v -1.3125 2.375 -0.5
v 1.3125 2.375 -0.5
v -0.6875000000000002 2.375 0.5
v -0.6875000000000002 2.375 -0.5
v 0.6874999999999999 2.375 0.5
v 0.6874999999999999 2.375 -0.5
v -0.6875000000000002 2.375 1.3125
v 0.6874999999999999 2.375 1.3125
v 0.6874999999999999 2.375 -1.3125
v -0.6875000000000002 2.375 -1.3125
v 0.6874999999999999 2.5 0.5
v 0.6874999999999999 2.5 -0.5
v -0.6875000000000002 2.5 -0.5
v -1.3125 2.5 0.5
v -1.3125 2.5 -0.5
v -0.6875000000000002 2.5 1.3125
v 0.6874999999999999 2.5 1.3125
v 0.6874999999999999 2.5 -1.3125
v -0.6875000000000002 2.5 -1.3125
v -0.6875000000000002 2.5 0.5
v 1.3125 2.5 -0.5
v 1.3125 2.5 0.5
v 1.3125 2.375 1.3125
v 1.3125 2.375 -1.3125
v -1.3125000000000002 2.375 -1.3125
v -1.3125 2.375 1.3125
vt 1 1
vt 0.84375 1
vt 0.84375 0.75
vt 1 0.75
vt 1 1
vt 0.84375 1
vt 0.84375 0.75
vt 1 0.75
vt 0.65625 0
vt 1 0
vt 1 0.25
vt 0.65625 0.25
vt 0.65625 0.71875
vt 0.65625 0.515625
vt 1 0.515625
vt 1 0.71875
vt 0.65625 0.71875
vt 0.65625 0.515625
vt 1 0.515625
vt 1 0.71875
vt 0.15625 1
vt 0 1
vt 0 0.96875
vt 0.15625 0.96875
vt 0.15625 1
vt 0 1
vt 0 0.96875
vt 0.15625 0.96875
vt 0.203125 1
vt 0 1
vt 0 0.96875
vt 0.203125 0.96875
vt 0.203125 1
vt 0 1
vt 0 0.96875
vt 0.203125 0.96875
vt 0.84375 0.65625
vt 0.84375 1
vt 0.8125 1
vt 0.8125 0.65625
vt 0.203125 1
vt 0 1
vt 0 0.96875
vt 0.203125 0.96875
vt 0.203125 1
vt 0 1
vt 0 0.96875
vt 0.203125 0.96875
vt 0.84375 0.65625
vt 0.84375 1
vt 0.8125 1
vt 0.8125 0.65625
vt 0.203125 1
vt 0 1
vt 0 0.96875
vt 0.203125 0.96875
vt 0.15625 1
vt 0 1
vt 0 0.96875
vt 0.15625 0.96875
vt 0.15625 1
vt 0 1
vt 0 0.96875
vt 0.15625 0.96875
vt 0.203125 1
vt 0 1
vt 0 0.96875
vt 0.203125 0.96875
vt 0.84375 0.546875
vt 1 0.546875
vt 1 0.75
vt 0.84375 0.75
vt 0.84375 0.75
vt 1 0.75
vt 1 0.546875
vt 0.84375 0.546875
vt 0.84375 0.546875
vt 1 0.546875
vt 1 0.75
vt 0.84375 0.75
vt 1 0.75
vt 1 0.546875
vt 0.84375 0.546875
vt 0.84375 0.75
vn 0 1 0
vn 0 1 0
vn 0 1 0
vn 0 1 0
vn 0 1 0
vn 0 0 1
vn 0 0 -1
vn -1 0 0
vn -1 0 0
vn 0 0 1
vn 1 0 0
vn 1 0 0
vn 0 0 -1
vn -1 0 0
vn 0 0 -1
vn 0 0 1
vn 1 0 0
vn 0 1 0
vn 0 1 0
vn 0 1 0
vn 0 1 0
usemtl m_2a81b916-1673-09ac-38c1-4535d2ace01d
f 63/97/26 54/98/26 53/99/26 64/100/26
f 56/101/27 62/102/27 55/103/27 57/104/27
f 62/105/28 53/106/28 54/107/28 55/108/28
usemtl m_5744a275-d86d-5600-2385-b1d571c12768
f 62/109/29 58/110/29 59/111/29 53/112/29
f 54/113/30 60/114/30 61/115/30 55/116/30
usemtl m_2a81b916-1673-09ac-38c1-4535d2ace01d
f 62/117/31 56/118/31 41/119/31 45/120/31
f 57/121/32 55/122/32 46/123/32 43/124/32
f 56/125/33 57/126/33 43/127/33 41/128/33
f 58/129/34 62/130/34 45/131/34 49/132/34
f 59/133/35 58/134/35 49/135/35 50/136/35
f 53/137/36 59/138/36 50/139/36 47/140/36
f 60/141/37 54/142/37 48/143/37 51/144/37
f 61/145/38 60/146/38 51/147/38 52/148/38
f 55/149/39 61/150/39 52/151/39 46/152/39
f 54/153/40 63/154/40 44/155/40 48/156/40
f 64/157/41 53/158/41 47/159/41 42/160/41
f 63/161/42 64/162/42 42/163/42 44/164/42
f 50/165/43 65/166/43 42/167/43 47/168/43
f 48/169/44 44/170/44 66/171/44 51/172/44
f 52/173/45 67/174/45 43/175/45 46/176/45
f 41/177/46 68/178/46 49/179/46 45/180/46
o cube_selection_selection
v 1.3125 0.5 1.0625
v 1.3125 1.9375 1.0625
v 1.3125 0.5 -1.0625
v 1.3125 1.9375 -1.0625
v 1.3125 2.125 0.875
v 1.3125 2.125 -0.875
v 1.4375 0.5 -1.0625
v 1.4375 1.9375 -1.0625
v 1.4375 0.5 1.0625
v 1.4375 1.9375 1.0625
v 1.4375 2.125 -0.875
v 1.4375 2.125 0.875
vt 0.09375 0
vt 0.625 0
vt 0.625 0.359375
vt 0.09375 0.359375
vt 0.625 0.390625
vt 0.578125 0.4375
vt 0.140625 0.4375
vt 0.09375 0.390625
vt 0.109375 0.359375
vt 0.109375 0
vt 0.078125 0
vt 0.078125 0.359375
vt 0.109375 0
vt 0.109375 0.359375
vt 0.078125 0.359375
vt 0.078125 0
vt 0.125 0.4375
vt 0.125 0.5
vt 0.09375 0.5
vt 0.09375 0.4375
vt 0.125 0.4375
vt 0.5625 0.4375
vt 0.5625 0.46875
vt 0.125 0.46875
vt 0.125 0.4375
vt 0.125 0.5
vt 0.09375 0.5
vt 0.09375 0.4375
vn 1 0 0
vn 1 0 0
vn 0 0 -1
vn 0 0 1
vn 0 0.7071067811865476 -0.7071067811865476
vn 0 1 0
vn 0 0.7071067811865476 0.7071067811865476
usemtl m_5744a275-d86d-5600-2385-b1d571c12768
f 77/181/47 75/182/47 76/183/47 78/184/47
f 76/185/48 79/186/48 80/187/48 78/188/48
f 76/189/49 75/190/49 71/191/49 72/192/49
f 77/193/50 78/194/50 70/195/50 69/196/50
f 79/197/51 76/198/51 72/199/51 74/200/51
f 80/201/52 79/202/52 74/203/52 73/204/52
f 78/205/53 80/206/53 73/207/53 70/208/53
o cube_selection_selection
v -0.31250000000000017 2.375 -1.3125
v -0.31250000000000017 0.5 -1.3125
v -0.31250000000000017 0.5 -1.4375
v -0.31250000000000017 2.375 -1.4375
v -0.6875000000000002 0.5 -1.4375
v -0.6875000000000002 2.375 -1.4375
v -0.6875000000000001 0.5 -1.3125
v -0.6875000000000001 2.375 -1.3125
v -0.6875000000000001 2.5 -1.3125
v -0.31250000000000017 2.5 -1.3125
vt 0.90625 0.46875
vt 0.90625 0
vt 0.875 0
vt 0.875 0.46875
vt 1 0
vt 0.90625 0
vt 0.90625 0.46875
vt 1 0.46875
vt 0.90625 0.46875
vt 0.90625 0
vt 0.875 0
vt 0.875 0.46875
vt 0.90625 0.46875
vt 0.90625 0.5
vt 0.875 0.46875
vt 0.90625 0.46875
vt 0.90625 0.515625
vt 1 0.515625
vt 1 0.46875
vt 0.90625 0.46875
vt 0.90625 0.5
vt 0.875 0.46875
vn -1 0 1.2246467991473532e-16
vn -1.2246467991473532e-16 0 -1
vn 1 0 -1.2246467991473532e-16
vn -1 0 1.2246467991473532e-16
vn -8.659560562354934e-17 0.7071067811865476 -0.7071067811865476
vn 1 0 -1.2246467991473532e-16
usemtl m_5744a275-d86d-5600-2385-b1d571c12768
f 86/209/54 85/210/54 87/211/54 88/212/54
f 83/213/55 85/214/55 86/215/55 84/216/55
f 83/217/56 84/218/56 81/219/56 82/220/56
f 88/221/57 89/222/57 86/223/57
f 86/224/58 89/225/58 90/226/58 84/227/58
f 84/228/59 90/229/59 81/230/59
o cube_selection_selection
v 0.6874999999999999 2.375 -1.3125
v 0.6874999999999999 0.5 -1.3125
v 0.6874999999999998 0.5 -1.4375
v 0.6874999999999998 2.375 -1.4375
v 0.31249999999999983 0.5 -1.4375
v 0.31249999999999983 2.375 -1.4375
v 0.31249999999999983 0.5 -1.3125
v 0.31249999999999983 2.375 -1.3125
v 0.31249999999999983 2.5 -1.3125
v 0.6874999999999999 2.5 -1.3125
vt 0.90625 0.46875
vt 0.90625 0
vt 0.875 0
vt 0.875 0.46875
vt 1 0
vt 0.90625 0
vt 0.90625 0.46875
vt 1 0.46875
vt 0.90625 0.46875
vt 0.90625 0
vt 0.875 0
vt 0.875 0.46875
vt 0.90625 0.46875
vt 0.90625 0.5
vt 0.875 0.46875
vt 0.90625 0.46875
vt 0.90625 0.515625
vt 1 0.515625
vt 1 0.46875
vt 0.90625 0.46875
vt 0.90625 0.5
vt 0.875 0.46875
vn -1 0 1.2246467991473532e-16
vn -1.2246467991473532e-16 0 -1
vn 1 0 -1.2246467991473532e-16
vn -1 0 1.2246467991473532e-16
vn -8.659560562354934e-17 0.7071067811865476 -0.7071067811865476
vn 1 0 -1.2246467991473532e-16
usemtl m_5744a275-d86d-5600-2385-b1d571c12768
f 96/231/60 95/232/60 97/233/60 98/234/60
f 93/235/61 95/236/61 96/237/61 94/238/61
f 93/239/62 94/240/62 91/241/62 92/242/62
f 98/243/63 99/244/63 96/245/63
f 96/246/64 99/247/64 100/248/64 94/249/64
f 94/250/65 100/251/65 91/252/65
o cube_selection_selection
v -1.3125000000000002 0.5 -1.0624999999999998
v -1.3125000000000002 1.9375 -1.0624999999999998
v -1.3124999999999998 0.5 1.0625000000000002
v -1.3124999999999998 1.9375 1.0625000000000002
v -1.3125 2.125 -0.8749999999999999
v -1.3125 2.125 0.8750000000000001
v -1.4374999999999998 0.5 1.0625000000000002
v -1.4374999999999998 1.9375 1.0625000000000002
v -1.4375000000000002 0.5 -1.0624999999999998
v -1.4375000000000002 1.9375 -1.0624999999999998
v -1.4375 2.125 0.8750000000000002
v -1.4375 2.125 -0.8749999999999998
vt 0.09375 0
vt 0.625 0
vt 0.625 0.359375
vt 0.09375 0.359375
vt 0.625 0.390625
vt 0.578125 0.4375
vt 0.140625 0.4375
vt 0.09375 0.390625
vt 0.109375 0.359375
vt 0.109375 0
vt 0.078125 0
vt 0.078125 0.359375
vt 0.109375 0
vt 0.109375 0.359375
vt 0.078125 0.359375
vt 0.078125 0
vt 0.125 0.4375
vt 0.125 0.5
vt 0.09375 0.5
vt 0.09375 0.4375
vt 0.125 0.4375
vt 0.5625 0.4375
vt 0.5625 0.46875
vt 0.125 0.46875
vt 0.125 0.4375
vt 0.125 0.5
vt 0.09375 0.5
vt 0.09375 0.4375
vn -1 0 1.2246467991473532e-16
vn -1 0 1.2246467991473532e-16
vn 1.2246467991473532e-16 0 1
vn -1.2246467991473532e-16 0 -1
vn 8.659560562354934e-17 0.7071067811865476 0.7071067811865476
vn 0 1 0
vn -8.659560562354934e-17 0.7071067811865476 -0.7071067811865476
usemtl m_5744a275-d86d-5600-2385-b1d571c12768
f 109/253/66 107/254/66 108/255/66 110/256/66
f 108/257/67 111/258/67 112/259/67 110/260/67
f 108/261/68 107/262/68 103/263/68 104/264/68
f 109/265/69 110/266/69 102/267/69 101/268/69
f 111/269/70 108/270/70 104/271/70 106/272/70
f 112/273/71 111/274/71 106/275/71 105/276/71
f 110/277/72 112/278/72 105/279/72 102/280/72