# Made in Blockbench 4.9.0
mtllib phage_ray.mtl

o cube
v -0.5 0.375 1.3125
v -0.5 0.375 -1.25
v -0.5 0 1.3125
v -0.5 0 -1.25
v -1 0.375 0.75
v -1 0.375 -0.75
v -1 0 0.75
v -1 0 -0.75
v 0.5 0.375 -1.25
v 0.5 0.375 1.3125
v 0.5 0 -1.25
v 0.5 0 1.3125
v 1 0.375 -0.75
v 1 0.375 0.75
v 1 0 -0.75
v 1 0 0.75
v 1.4375 0.375 -0.75
v 1.4375 0.375 0.75
v 1.4375 0 -0.75
v 1.4375 0 0.75
v 1.4375 1.5 0.75
v 1 1.5 0.75
v 1 1.5 -0.75
v 1.4375 1.5 -0.75
v -1.4375000000000004 0.375 0.7499999999999997
v -1.4375000000000004 0 0.7499999999999997
v -1 1.4999999999999991 0.75
v -1.4375000000000004 1.4999999999999991 0.7499999999999997
v -1.4375 0.375 -0.75
v -1.4375 0 -0.75
v -1.4375 1.4999999999999991 -0.75
v -0.9999999999999996 1.4999999999999991 -0.7499999999999997
vt 0.25 0.96875
vt 0.25 1
vt 0 1
vt 0 0.96875
vt 0.1875 0.75
vt 0.1875 1
vt 0 1
vt 0 0.75
vt 0.1875 0.75
vt 0.1875 1
vt 0 1
vt 0 0.75
vt 0.1875 0.96875
vt 0.1875 1
vt 0 1
vt 0 0.96875
vt 0.1875 0.96875
vt 0.1875 1
vt 0 1
vt 0 0.96875
vt 0.125 1
vt 0.125 0.96875
vt 0.140625 0.96875
vt 0.140625 1
vt 0.078125 0.75
vt 0.078125 1
vt 0.0625 1
vt 0.0625 0.75
vt 0.015625 0.96875
vt 0.015625 1
vt 0 1
vt 0 0.96875
vt 0.078125 0.75
vt 0.078125 1
vt 0.0625 1
vt 0.0625 0.75
vt 0.125 1
vt 0.125 0.96875
vt 0.140625 0.96875
vt 0.140625 1
vt 0.078125 0.75
vt 0.078125 1
vt 0.0625 1
vt 0.0625 0.75
vt 0.015625 0.96875
vt 0.015625 1
vt 0 1
vt 0 0.96875
vt 0.078125 0.75
vt 0.078125 1
vt 0.0625 1
vt 0.0625 0.75
vt 0.125 1
vt 0.125 0.96875
vt 0.140625 0.96875
vt 0.140625 1
vt 0.015625 0.96875
vt 0.015625 1
vt 0 1
vt 0 0.96875
vt 0.078125 0.75
vt 0.078125 1
vt 0.0625 1
vt 0.0625 0.75
vt 0.109375 0.984375
vt 0.109375 1
vt 0 1
vt 0 0.984375
vt 0.375 0.921875
vt 0.375 0.9375
vt 0 0.9375
vt 0 0.921875
vt 0.125 0.984375
vt 0.125 1
vt 0.015625 1
vt 0.015625 0.984375
vt 0.375 0.984375
vt 0.375 1
vt 0 1
vt 0 0.984375
vt 0.25 0.96875
vt 0.25 1
vt 0 1
vt 0 0.96875
vt 0.125 1
vt 0.125 0.96875
vt 0.140625 0.96875
vt 0.140625 1
vt 0.015625 0.96875
vt 0.015625 1
vt 0 1
vt 0 0.96875
vt 0.109375 0.984375
vt 0.109375 1
vt 0 1
vt 0 0.984375
vt 0.375 0.921875
vt 0.375 0.9375
vt 0 0.9375
vt 0 0.921875
vt 0.125 0.984375
vt 0.125 1
vt 0.015625 1
vt 0.015625 0.984375
vt 0.375 0.984375
vt 0.375 1
vt 0 1
vt 0 0.984375
vt 0 1
vt 0 0.625
vt 0.109375 0.625
vt 0.109375 1
vn 1 0 0
vn 0 1 0
vn 0 -1 0
vn -0.7474093186836598 0 0.6643638388299198
vn -0.7071067811865476 0 -0.7071067811865476
vn 0 0 -1
vn 0 1 0
vn 0 0 1
vn 0 -1 0
vn 0.7071067811865476 0 -0.7071067811865476
vn 0 1 0
vn 0.7474093186836598 0 0.6643638388299198
vn 0 -1 0
vn 0 0 -1
vn 0 0 1
vn 0 -1 0
vn 0 0 1
vn -1 0 0
vn 0 0 -1
vn 1 0 0
vn -1 0 -2.960594732333752e-16
vn -7.612957883143925e-16 0 1
vn 0 0 -1
vn 7.612957883143924e-16 0 -1
vn 1 -3.947459643111672e-16 2.9605947323337516e-16
vn -7.612957883143924e-16 0 1
vn -1 0 -2.9605947323337516e-16
vn 0 -1 0
usemtl m_7686b918-399f-0d3b-d365-805c91fc0861
f 19/1/1 17/2/1 18/3/1 20/4/1
f 1/5/2 2/6/2 6/7/2 5/8/2
f 4/9/3 3/10/3 7/11/3 8/12/3
f 3/13/4 1/14/4 5/15/4 7/16/4
f 8/17/5 6/18/5 2/19/5 4/20/5
f 9/21/6 11/22/6 4/23/6 2/24/6
f 10/25/7 9/26/7 2/27/7 1/28/7
f 12/29/8 10/30/8 1/31/8 3/32/8
f 11/33/9 12/34/9 3/35/9 4/36/9
f 13/37/10 15/38/10 11/39/10 9/40/10
f 14/41/11 13/42/11 9/43/11 10/44/11
f 16/45/12 14/46/12 10/47/12 12/48/12
f 15/49/13 16/50/13 12/51/13 11/52/13
f 17/53/14 19/54/14 15/55/14 13/56/14
f 20/57/15 18/58/15 14/59/15 16/60/15
f 19/61/16 20/62/16 16/63/16 15/64/16
f 18/65/17 21/66/17 22/67/17 14/68/17
f 14/69/18 22/70/18 23/71/18 13/72/18
f 13/73/19 23/74/19 24/75/19 17/76/19
f 17/77/20 24/78/20 21/79/20 18/80/20
f 26/81/21 25/82/21 29/83/21 30/84/21
f 25/85/22 26/86/22 7/87/22 5/88/22
f 30/89/23 29/90/23 6/91/23 8/92/23
f 29/93/24 31/94/24 32/95/24 6/96/24
f 6/97/25 32/98/25 27/99/25 5/100/25
f 5/101/26 27/102/26 28/103/26 25/104/26
f 25/105/27 28/106/27 31/107/27 29/108/27
f 26/109/28 30/110/28 8/111/28 7/112/28
o cube
v 1.5 1.8125 0.3125
v 1.5 1.8125 -0.3125
v 1.5 1.1875 0.3125
v 1.5 1.1875 -0.3125
v 0.875 1.8125 -0.3125
v 0.875 1.8125 0.3125
v 0.875 1.1875 -0.3125
v 0.875 1.1875 0.3125
vt 0 1
vt 0.15625 1
vt 0.15625 0.84375
vt 0 0.84375
vt 0 1
vt 0.15625 1
vt 0.15625 0.84375
vt 0 0.84375
vt 0 1
vt 0.15625 1
vt 0.15625 0.84375
vt 0 0.84375
vt 0 1
vt 0.15625 1
vt 0.15625 0.84375
vt 0 0.84375
vt 0 1
vt 0.15625 1
vt 0.15625 0.84375
vt 0 0.84375
vt 0 1
vt 0.15625 1
vt 0.15625 0.84375
vt 0 0.84375
vn 0 0 -1
vn 1 0 0
vn 0 0 1
vn -1 0 0
vn 0 1 0
vn 0 -1 0
usemtl m_7686b918-399f-0d3b-d365-805c91fc0861
f 36/116/29 39/115/29 37/114/29 34/113/29
f 35/120/30 36/119/30 34/118/30 33/117/30
f 40/124/31 35/123/31 33/122/31 38/121/31
f 39/128/32 40/127/32 38/126/32 37/125/32
f 38/132/33 33/131/33 34/130/33 37/129/33
f 39/136/34 36/135/34 35/134/34 40/133/34
o cube
v 1.4375 1.5 0.75
v 1.4375 2 0.3125
v 1.4375 1.5 0.3125
v 1 1.5 0.75
v 1 2 0.3125
v 1 1.5 0.3125
v 1 2 -0.75
v 1.4375 2 -0.75
v 1 1.5 -0.75
v 1.4375 1.5 -0.75
vt 0.203125 1
vt 0 1
vt 0.203125 0.875
vt 0.203125 1
vt 0 1
vt 0 0.875
vt 0.109375 0.796875
vt 0.109375 1
vt 0 1
vt 0 0.796875
vt 0.109375 0.796875
vt 0.109375 1
vt 0 1
vt 0 0.796875
vt 0.109375 0.875
vt 0.109375 1
vt 0 1
vt 0 0.875
vt 0.046875 1
vt 0.046875 0.875
vt 0.0625 0.875
vt 0.0625 1
vt 0.109375 1
vt 0 1
vt 0 0.984375
vt 0.109375 0.984375
vt 0.015625 0.875
vt 0.015625 1
vt 0 1
vt 0 0.875
vt 0 0.921875
vt 0.109375 0.921875
vt 0.109375 0.9375
vt 0 0.9375
vn 1 0 0
vn -1 0 0
vn 0 0.658504607868518 0.7525766947068778
vn 0 -1 0
vn 0 0 -1
vn -1 0 0
vn 0 1 0
vn 1 0 0
vn 0 -1 0
usemtl m_7686b918-399f-0d3b-d365-805c91fc0861
f 42/137/35 41/138/35 43/139/35
f 44/140/36 45/141/36 46/142/36
f 41/143/37 42/144/37 45/145/37 44/146/37
f 43/147/38 41/148/38 44/149/38 46/150/38
f 49/151/39 47/152/39 48/153/39 50/154/39
f 47/155/40 49/156/40 46/157/40 45/158/40
f 48/159/41 47/160/41 45/161/41 42/162/41
f 50/163/42 48/164/42 42/165/42 43/166/42
f 49/167/43 50/168/43 43/169/43 46/170/43
o cube
v -1 1.5 0.75
v -1 2 0.3125
v -1 1.5 0.3125
v -1.4375 1.5 0.75
v -1.4375 2 0.3125
v -1.4375 1.5 0.3125
v -1.4375 2 -0.75
v -1 2 -0.75
v -1.4375 1.5 -0.75
v -1 1.5 -0.75
vt 0.203125 1
vt 0 1
vt 0.203125 0.875
vt 0.203125 1
vt 0 1
vt 0 0.875
vt 0.109375 0.796875
vt 0.109375 1
vt 0 1
vt 0 0.796875
vt 0.109375 0.796875
vt 0.109375 1
vt 0 1
vt 0 0.796875
vt 0.109375 0.875
vt 0.109375 1
vt 0 1
vt 0 0.875
vt 0.046875 1
vt 0.046875 0.875
vt 0.0625 0.875
vt 0.0625 1
vt 0.109375 1
vt 0 1
vt 0 0.984375
vt 0.109375 0.984375
vt 0.015625 0.875
vt 0.015625 1
vt 0 1
vt 0 0.875
vt 0 0.921875
vt 0.109375 0.921875
vt 0.109375 0.9375
vt 0 0.9375
vn 1 0 0
vn -1 0 0
vn 0 0.658504607868518 0.7525766947068778
vn 0 -1 0
vn 0 0 -1
vn -1 0 0
vn 0 1 0
vn 1 0 0
vn 0 -1 0
usemtl m_7686b918-399f-0d3b-d365-805c91fc0861
f 52/171/44 51/172/44 53/173/44
f 54/174/45 55/175/45 56/176/45
f 51/177/46 52/178/46 55/179/46 54/180/46
f 53/181/47 51/182/47 54/183/47 56/184/47
f 59/185/48 57/186/48 58/187/48 60/188/48
f 57/189/49 59/190/49 56/191/49 55/192/49
f 58/193/50 57/194/50 55/195/50 52/196/50
f 60/197/51 58/198/51 52/199/51 53/200/51
f 59/201/52 60/202/52 53/203/52 56/204/52
o cube
v -0.875 1.8125 0.3125
v -0.875 1.8125 -0.3125
v -0.875 1.1875 0.3125
v -0.875 1.1875 -0.3125
v -1.5 1.8125 -0.3125
v -1.5 1.8125 0.3125
v -1.5 1.1875 -0.3125
v -1.5 1.1875 0.3125
vt 0 1
vt 0.15625 1
vt 0.15625 0.84375
vt 0 0.84375
vt 0 1
vt 0.15625 1
vt 0.15625 0.84375
vt 0 0.84375
vt 0 1
vt 0.15625 1
vt 0.15625 0.84375
vt 0 0.84375
vt 0 1
vt 0.15625 1
vt 0.15625 0.84375
vt 0 0.84375
vt 0 1
vt 0.15625 1
vt 0.15625 0.84375
vt 0 0.84375
vt 0 1
vt 0.15625 1
vt 0.15625 0.84375
vt 0 0.84375
vn 0 0 -1
vn 1 0 0
vn 0 0 1
vn -1 0 0
vn 0 1 0
vn 0 -1 0
usemtl m_7686b918-399f-0d3b-d365-805c91fc0861
f 64/208/53 67/207/53 65/206/53 62/205/53
f 63/212/54 64/211/54 62/210/54 61/209/54
f 68/216/55 63/215/55 61/214/55 66/213/55
f 67/220/56 68/219/56 66/218/56 65/217/56
f 66/224/57 61/223/57 62/222/57 65/221/57
f 67/228/58 64/227/58 63/226/58 68/225/58