# Made in Blockbench 4.9.0
mtllib phage_ray_item.mtl

o cube
v -0.5 0.375 1.25
v -0.5 0.375 -1.25
v -0.5 0 1.25
v -0.5 0 -1.25
v -1 0.375 0.75
v -1 0.375 -0.75
v -1 0 0.75
v -1 0 -0.75
v 0.5 0.375 -1.25
v 0.5 0.375 1.25
v 0.5 0 -1.25
v 0.5 0 1.25
v 1 0.375 -0.75
v 1 0.375 0.75
v 1 0 -0.75
v 1 0 0.75
v 1.4375 0.375 -0.75
v 1.4375 0.375 0.75
v 1.4375 0 -0.75
v 1.4375 0 0.75
v 1.4375 1.5 0.75
v 1 1.5 0.75
v 1 1.5 -0.75
v 1.4375 1.5 -0.75
v -1.4375000000000004 0.375 0.7499999999999996
v -1.4375000000000004 0 0.7499999999999996
v -1 1.4999999999999991 0.75
v -1.4375000000000004 1.4999999999999991 0.7499999999999996
v -1.4375 0.375 -0.75
v -1.4375 0 -0.75
v -1.4375 1.4999999999999991 -0.75
v -0.9999999999999996 1.4999999999999991 -0.7499999999999996
vt 0.484375 0.8125
vt 0.484375 0.90625
vt 0.109375 0.90625
vt 0.109375 0.8125
vt 0.75 0
vt 0.75 0.625
vt 0.625 0.5
vt 0.625 0.125
vt 0.43815 0.90625
vt 0.43815 1
vt 0.25 1
vt 0.25 0.90625
vt 0.43815 0.90625
vt 0.43815 1
vt 0.25 1
vt 0.25 0.90625
vt 0 1
vt 0 0.90625
vt 0.25 0.90625
vt 0.25 1
vt 1 0
vt 1 0.625
vt 0.75 0.625
vt 0.75 0
vt 0 0.90625
vt 0 1
vt 0.25 1
vt 0.25 0.90625
vt 0.43815 1
vt 0.43815 0.90625
vt 0.25 0.90625
vt 0.25 1
vt 0.625 0.125
vt 0.625 0.5
vt 0.75 0.625
vt 0.75 0
vt 0.43815 0.90625
vt 0.43815 1
vt 0.25 1
vt 0.25 0.90625
vt 0 0.90625
vt 0 0.8125
vt 0.109375 0.8125
vt 0.109375 0.90625
vt 0 0.8125
vt 0 0.90625
vt 0.109375 0.90625
vt 0.109375 0.8125
vt 0.59375 0
vt 0.59375 0.28125
vt 0.484375 0.28125
vt 0.484375 0
vt 0.375 0.28125
vt 0.375 0.5625
vt 0 0.5625
vt 0 0.28125
vt 0.484375 0
vt 0.484375 0.28125
vt 0.375 0.28125
vt 0.375 0
vt 0.375 0
vt 0.375 0.28125
vt 0 0.28125
vt 0 0
vt 0.484375 0.8125
vt 0.484375 0.90625
vt 0.109375 0.90625
vt 0.109375 0.8125
vt 0 0.90625
vt 0 0.8125
vt 0.109375 0.8125
vt 0.109375 0.90625
vt 0 0.8125
vt 0 0.90625
vt 0.109375 0.90625
vt 0.109375 0.8125
vt 0.484375 0
vt 0.484375 0.28125
vt 0.375 0.28125
vt 0.375 0
vt 0.375 0.28125
vt 0.375 0.5625
vt 0 0.5625
vt 0 0.28125
vt 0.59375 0
vt 0.59375 0.28125
vt 0.484375 0.28125
vt 0.484375 0
vt 0.375 0
vt 0.375 0.28125
vt 0 0.28125
vt 0 0
vn 1 0 0
vn 0 1 0
vn -0.7071067811865476 0 0.7071067811865476
vn -0.7071067811865476 0 -0.7071067811865476
vn 0 0 -1
vn 0 1 0
vn 0 0 1
vn 0.7071067811865476 0 -0.7071067811865476
vn 0 1 0
vn 0.7071067811865476 0 0.7071067811865476
vn 0 0 -1
vn 0 0 1
vn 0 0 1
vn -1 0 0
vn 0 0 -1
vn 1 0 0
vn -1 0 -2.960594732333752e-16
vn -1.0150610510858564e-15 0 1
vn 0 0 -1
vn 1.0150610510858564e-15 0 -1
vn 1 -3.947459643111672e-16 2.9605947323337516e-16
vn -1.0150610510858564e-15 0 1
vn -1 0 -2.9605947323337516e-16
usemtl m_7686b918-399f-0d3b-d365-805c91fc0861
f 19/1/1 17/2/1 18/3/1 20/4/1
f 1/5/2 2/6/2 6/7/2 5/8/2
f 3/9/3 1/10/3 5/11/3 7/12/3
f 8/13/4 6/14/4 2/15/4 4/16/4
f 9/17/5 11/18/5 4/19/5 2/20/5
f 10/21/6 9/22/6 2/23/6 1/24/6
f 12/25/7 10/26/7 1/27/7 3/28/7
f 13/29/8 15/30/8 11/31/8 9/32/8
f 14/33/9 13/34/9 9/35/9 10/36/9
f 16/37/10 14/38/10 10/39/10 12/40/10
f 17/41/11 19/42/11 15/43/11 13/44/11
f 20/45/12 18/46/12 14/47/12 16/48/12
f 18/49/13 21/50/13 22/51/13 14/52/13
f 14/53/14 22/54/14 23/55/14 13/56/14
f 13/57/15 23/58/15 24/59/15 17/60/15
f 17/61/16 24/62/16 21/63/16 18/64/16
f 26/65/17 25/66/17 29/67/17 30/68/17
f 25/69/18 26/70/18 7/71/18 5/72/18
f 30/73/19 29/74/19 6/75/19 8/76/19
f 29/77/20 31/78/20 32/79/20 6/80/20
f 6/81/21 32/82/21 27/83/21 5/84/21
f 5/85/22 27/86/22 28/87/22 25/88/22
f 25/89/23 28/90/23 31/91/23 29/92/23
o cube
v 1.5 1.8125 0.3125
v 1.5 1.8125 -0.3125
v 1.5 1.1875 0.3125
v 1.5 1.1875 -0.3125
v 0.875 1.8125 -0.3125
v 0.875 1.8125 0.3125
v 0.875 1.1875 -0.3125
v 0.875 1.1875 0.3125
vt 0.6875 0.84375
vt 0.84375 0.84375
vt 0.84375 1
vt 0.6875 1
vt 0.84375 1
vt 1 1
vt 1 0.84375
vt 0.84375 0.84375
vt 0.84375 1
vt 0.6875 1
vt 0.6875 0.84375
vt 0.84375 0.84375
vt 0.84375 1
vt 0.6875 1
vt 0.6875 0.84375
vt 0.84375 0.84375
vt 0.84375 1
vt 0.6875 1
vt 0.6875 0.84375
vt 0.84375 0.84375
vn 0 0 -1
vn 1 0 0
vn 0 0 1
vn 0 1 0
vn 0 -1 0
usemtl m_7686b918-399f-0d3b-d365-805c91fc0861
f 36/96/24 39/95/24 37/94/24 34/93/24
f 35/100/25 36/99/25 34/98/25 33/97/25
f 40/104/26 35/103/26 33/102/26 38/101/26
f 38/108/27 33/107/27 34/106/27 37/105/27
f 39/112/28 36/111/28 35/110/28 40/109/28
o cube
v 1.4375 1.5 0.75
v 1.4375 2 0.25
v 1.4375 1.5 0.25
v 1 1.5 0.75
v 1 2 0.25
v 1 1.5 0.25
v 1 2 -0.75
v 1.4375 2 -0.75
v 1 1.5 -0.75
v 1.4375 1.5 -0.75
vt 0.125 0.8125
vt 0 0.6875
vt 0.125 0.6875
vt 0.375 0.5625
vt 0.25 0.6875
vt 0.25 0.5625
vt 0.484375 0.28125
vt 0.484375 0.453125
vt 0.375 0.453125
vt 0.375 0.28125
vt 0.109375 0.796875
vt 0.109375 1
vt 0 1
vt 0 0.796875
vt 0.484375 0.5625
vt 0.484375 0.6875
vt 0.375 0.6875
vt 0.375 0.5625
vt 0 0.6875
vt 0 0.5625
vt 0.25 0.5625
vt 0.25 0.6875
vt 0.59375 0.53125
vt 0.484375 0.53125
vt 0.484375 0.28125
vt 0.59375 0.28125
vt 0 0.5625
vt 0 0.6875
vt 0.25 0.6875
vt 0.25 0.5625
vt 0 0.921875
vt 0.109375 0.921875
vt 0.109375 0.9375
vt 0 0.9375
vn 1 0 0
vn -1 0 0
vn 0 0.7071067811865476 0.7071067811865476
vn 0 -1 0
vn 0 0 -1
vn -1 0 0
vn 0 1 0
vn 1 0 0
vn 0 -1 0
usemtl m_7686b918-399f-0d3b-d365-805c91fc0861
f 42/113/29 41/114/29 43/115/29
f 44/116/30 45/117/30 46/118/30
f 41/119/31 42/120/31 45/121/31 44/122/31
f 43/123/32 41/124/32 44/125/32 46/126/32
f 49/127/33 47/128/33 48/129/33 50/130/33
f 47/131/34 49/132/34 46/133/34 45/134/34
f 48/135/35 47/136/35 45/137/35 42/138/35
f 50/139/36 48/140/36 42/141/36 43/142/36
f 49/143/37 50/144/37 43/145/37 46/146/37
o cube
v -1 1.5 0.75
v -1 2 0.25
v -1 1.5 0.25
v -1.4375 1.5 0.75
v -1.4375 2 0.25
v -1.4375 1.5 0.25
v -1.4375 2 -0.75
v -1 2 -0.75
v -1.4375 1.5 -0.75
v -1 1.5 -0.75
vt 0.25 0.6875
vt 0.375 0.5625
vt 0.25 0.5625
vt 0.375 0.5625
vt 0.25 0.6875
vt 0.25 0.5625
vt 0.484375 0.28125
vt 0.484375 0.453125
vt 0.375 0.453125
vt 0.375 0.28125
vt 0.109375 0.796875
vt 0.109375 1
vt 0 1
vt 0 0.796875
vt 0.484375 0.5625
vt 0.484375 0.6875
vt 0.375 0.6875
vt 0.375 0.5625
vt 0 0.6875
vt 0 0.5625
vt 0.25 0.5625
vt 0.25 0.6875
vt 0.59375 0.53125
vt 0.484375 0.53125
vt 0.484375 0.28125
vt 0.59375 0.28125
vt 0 0.6875
vt 0 0.5625
vt 0.25 0.5625
vt 0.25 0.6875
vt 0 0.921875
vt 0.109375 0.921875
vt 0.109375 0.9375
vt 0 0.9375
vn 1 0 0
vn -1 0 0
vn 0 0.7071067811865476 0.7071067811865476
vn 0 -1 0
vn 0 0 -1
vn -1 0 0
vn 0 1 0
vn 1 0 0
vn 0 -1 0
usemtl m_7686b918-399f-0d3b-d365-805c91fc0861
f 52/147/38 51/148/38 53/149/38
f 54/150/39 55/151/39 56/152/39
f 51/153/40 52/154/40 55/155/40 54/156/40
f 53/157/41 51/158/41 54/159/41 56/160/41
f 59/161/42 57/162/42 58/163/42 60/164/42
f 57/165/43 59/166/43 56/167/43 55/168/43
f 58/169/44 57/170/44 55/171/44 52/172/44
f 60/173/45 58/174/45 52/175/45 53/176/45
f 59/177/46 60/178/46 53/179/46 56/180/46
o cube
v -0.875 1.8125 0.3125
v -0.875 1.8125 -0.3125
v -0.875 1.1875 0.3125
v -0.875 1.1875 -0.3125
v -1.5 1.8125 -0.3125
v -1.5 1.8125 0.3125
v -1.5 1.1875 -0.3125
v -1.5 1.1875 0.3125
vt 0.84375 0.84375
vt 0.6875 0.84375
vt 0.6875 1
vt 0.84375 1
vt 0.6875 1
vt 0.84375 1
vt 0.84375 0.84375
vt 0.6875 0.84375
vt 0.84375 1
vt 1 1
vt 1 0.84375
vt 0.84375 0.84375
vt 0.6875 1
vt 0.84375 1
vt 0.84375 0.84375
vt 0.6875 0.84375
vt 0.6875 1
vt 0.84375 1
vt 0.84375 0.84375
vt 0.6875 0.84375
vn 0 0 -1
vn 0 0 1
vn -1 0 0
vn 0 1 0
vn 0 -1 0
usemtl m_7686b918-399f-0d3b-d365-805c91fc0861
f 64/184/47 67/183/47 65/182/47 62/181/47
f 68/188/48 63/187/48 61/186/48 66/185/48
f 67/192/49 68/191/49 66/190/49 65/189/49
f 66/196/50 61/195/50 62/194/50 65/193/50
f 67/200/51 64/199/51 63/198/51 68/197/51
o cube
v -0.7500000000000001 2.3125 -0.9999999999999999
v -0.7499999999999998 2.3125 1.5
v -0.7500000000000001 0.8125 -0.9999999999999999
v -0.7499999999999998 0.8125 1.5
v 0.7500000000000002 2.3125 1.5
v 0.75 2.3125 -1
v 0.7500000000000002 0.8125 1.5
v 0.75 0.8125 -1
vt 0.625 1
vt 1 1
vt 1 0.625
vt 0.625 0.625
vt 0.375 0
vt 0.375 0.625
vt 0.75 0.625
vt 0.75 0
vt 0.375 0.4375
vt 0.75 0.4375
vt 0.75 0.0625
vt 0.375 0.0625
vt 0.75 0
vt 0.75 0.625
vt 0.375 0.625
vt 0.375 0
vt 0 0.625
vt 0.375 0.625
vt 0.375 0
vt 0 0
vt 0.375 0
vt 0 0
vt 0 0.625
vt 0.375 0.625
vn 1.2246467991473532e-16 0 1
vn -1 0 1.2246467991473532e-16
vn -1.2246467991473532e-16 0 -1
vn 1 0 -1.2246467991473532e-16
vn 0 1 0
vn 0 -1 0
usemtl m_f0075f77-9fc7-0aac-f9ff-4d296373af1d
f 72/204/52 75/203/52 73/202/52 70/201/52
f 71/208/53 72/207/53 70/206/53 69/205/53
f 76/212/54 71/211/54 69/210/54 74/209/54
f 75/216/55 76/215/55 74/214/55 73/213/55
f 74/220/56 69/219/56 70/218/56 73/217/56
f 75/224/57 72/223/57 71/222/57 76/221/57
o cube
v -0.8750000000000001 2.1875 -0.8749999999999999
v -0.8749999999999998 2.1875 1.5
v -0.8750000000000001 0.9375 -0.8749999999999999
v -0.8749999999999998 0.9375 1.5
v -0.7499999999999998 2.1875 1.5
v -0.7500000000000001 2.1875 -0.8749999999999999
v -0.7499999999999998 0.9375 1.5
v -0.7500000000000001 0.9375 -0.8749999999999999
vt 1 0.3125
vt 0.96875 0.3125
vt 0.96875 0
vt 1 0
vt 0.59375 1
vt 0 1
vt 0 0.6875
vt 0.59375 0.6875
vt 1 0.625
vt 0.96875 0.625
vt 0.96875 0.3125
vt 1 0.3125
vt 0 0.65625
vt 0 0.6875
vt 0.59375 0.6875
vt 0.59375 0.65625
vt 0.59375 0.65625
vt 0.59375 0.6875
vt 0 0.6875
vt 0 0.65625
vn 1.2246467991473532e-16 0 1
vn -1 0 1.2246467991473532e-16
vn -1.2246467991473532e-16 0 -1
vn 0 1 0
vn 0 -1 0
usemtl m_f0075f77-9fc7-0aac-f9ff-4d296373af1d
f 80/228/58 83/227/58 81/226/58 78/225/58
f 79/232/59 80/231/59 78/230/59 77/229/59
f 84/236/60 79/235/60 77/234/60 82/233/60
f 82/240/61 77/239/61 78/238/61 81/237/61
f 83/244/62 80/243/62 79/242/62 84/241/62
o cube
v 0.75 2.1875 -0.8750000000000001
v 0.7500000000000002 2.1875 1.5
v 0.75 0.9375 -0.8750000000000001
v 0.7500000000000002 0.9375 1.5
v 0.8750000000000002 2.1875 1.5
v 0.875 2.1875 -0.8750000000000001
v 0.8750000000000002 0.9375 1.5
v 0.875 0.9375 -0.8750000000000001
vt 0.96875 0.3125
vt 1 0.3125
vt 1 0
vt 0.96875 0
vt 0.96875 0.625
vt 1 0.625
vt 1 0.3125
vt 0.96875 0.3125
vt 0 1
vt 0.59375 1
vt 0.59375 0.6875
vt 0 0.6875
vt 0 0.6875
vt 0 0.65625
vt 0.59375 0.65625
vt 0.59375 0.6875
vt 0.59375 0.65625
vt 0.59375 0.6875
vt 0 0.6875
vt 0 0.65625
vn 1.2246467991473532e-16 0 1
vn -1.2246467991473532e-16 0 -1
vn 1 0 -1.2246467991473532e-16
vn 0 1 0
vn 0 -1 0
usemtl m_f0075f77-9fc7-0aac-f9ff-4d296373af1d
f 88/248/63 91/247/63 89/246/63 86/245/63
f 92/252/64 87/251/64 85/250/64 90/249/64
f 91/256/65 92/255/65 90/254/65 89/253/65
f 90/260/66 85/259/66 86/258/66 89/257/66
f 91/264/67 88/263/67 87/262/67 92/261/67