# Made in Blockbench 4.9.0
mtllib charnel_pump.mtl

o cube
v 1.5 0.5 0.5
v 1.5 0.5 -0.5
v 1.5 -0.5 0.5
v 1.5 -0.5 -0.5
v 0.5 0.5 -0.5
v 0.5 0.5 0.5
v 0.5 -0.5 -0.5
v 0.5 -0.5 0.5
vt 0.75 1
vt 1 1
vt 1 0.75
vt 0.75 0.75
vt 0.75 1
vt 1 1
vt 1 0.75
vt 0.75 0.75
vt 0.75 0.75
vt 1 0.75
vt 1 0.5
vt 0.75 0.5
vn 1 0 0
vn 0 1 0
vn 0 -1 0
usemtl m_ed6657f6-98be-38d0-67b4-58bda411672a
f 3/4/1 4/3/1 2/2/1 1/1/1
f 6/8/2 1/7/2 2/6/2 5/5/2
f 7/12/3 4/11/3 3/10/3 8/9/3
o cube
v 0.5 0.5 0.5
v 0.5 0.5 -0.5
v 0.5 -0.5 0.5
v 0.5 -0.5 -0.5
v -0.5 0.5 -0.5
v -0.5 0.5 0.5
v -0.5 -0.5 -0.5
v -0.5 -0.5 0.5
vt 0.75 0.75
vt 1 0.75
vt 1 0.5
vt 0.75 0.5
vn 0 -1 0
usemtl m_ed6657f6-98be-38d0-67b4-58bda411672a
f 15/16/4 12/15/4 11/14/4 16/13/4
o cube
v -0.5 0.5 0.5
v -0.5 0.5 -0.5
v -0.5 -0.5 0.5
v -0.5 -0.5 -0.5
v -1.5 0.5 -0.5
v -1.5 0.5 0.5
v -1.5 -0.5 -0.5
v -1.5 -0.5 0.5
vt 0.75 1
vt 1 1
vt 1 0.75
vt 0.75 0.75
vt 0.75 1
vt 1 1
vt 1 0.75
vt 0.75 0.75
vt 0.75 0.75
vt 1 0.75
vt 1 0.5
vt 0.75 0.5
vn -1 0 0
vn 0 1 0
vn 0 -1 0
usemtl m_ed6657f6-98be-38d0-67b4-58bda411672a
f 23/20/5 24/19/5 22/18/5 21/17/5
f 22/24/6 17/23/6 18/22/6 21/21/6
f 23/28/7 20/27/7 19/26/7 24/25/7
o cube
v 1.5 0.5 1.5
v 1.5 0.5 0.5
v 1.5 -0.5 1.5
v 1.5 -0.5 0.5
v 0.5 0.5 0.5
v 0.5 0.5 1.5
v 0.5 -0.5 0.5
v 0.5 -0.5 1.5
vt 0.75 1
vt 1 1
vt 1 0.75
vt 0.75 0.75
vt 0.75 1
vt 1 1
vt 1 0.75
vt 0.75 0.75
vt 0.75 1
vt 1 1
vt 1 0.75
vt 0.75 0.75
vt 0.75 0.75
vt 1 0.75
vt 1 0.5
vt 0.75 0.5
vn 1 0 0
vn 0 0 1
vn 0 1 0
vn 0 -1 0
usemtl m_ed6657f6-98be-38d0-67b4-58bda411672a
f 27/32/8 28/31/8 26/30/8 25/29/8
f 32/36/9 27/35/9 25/34/9 30/33/9
f 30/40/10 25/39/10 26/38/10 29/37/10
f 31/44/11 28/43/11 27/42/11 32/41/11
o cube
v -0.5 0.5 1.5
v -0.5 0.5 0.5
v -0.5 -0.5 1.5
v -0.5 -0.5 0.5
v -1.5 0.5 0.5
v -1.5 0.5 1.5
v -1.5 -0.5 0.5
v -1.5 -0.5 1.5
vt 0.75 1
vt 1 1
vt 1 0.75
vt 0.75 0.75
vt 0.75 1
vt 1 1
vt 1 0.75
vt 0.75 0.75
vt 0.75 1
vt 1 1
vt 1 0.75
vt 0.75 0.75
vt 0.75 0.75
vt 1 0.75
vt 1 0.5
vt 0.75 0.5
vn 0 0 1
vn -1 0 0
vn 0 1 0
vn 0 -1 0
usemtl m_ed6657f6-98be-38d0-67b4-58bda411672a
f 40/48/12 35/47/12 33/46/12 38/45/12
f 39/52/13 40/51/13 38/50/13 37/49/13
f 38/56/14 33/55/14 34/54/14 37/53/14
f 39/60/15 36/59/15 35/58/15 40/57/15
o cube
v -0.5 0.5 -0.5
v -0.5 0.5 -1.5
v -0.5 -0.5 -0.5
v -0.5 -0.5 -1.5
v -1.5 0.5 -1.5
v -1.5 0.5 -0.5
v -1.5 -0.5 -1.5
v -1.5 -0.5 -0.5
vt 0.75 1
vt 1 1
vt 1 0.75
vt 0.75 0.75
vt 0.75 1
vt 1 1
vt 1 0.75
vt 0.75 0.75
vt 0.75 1
vt 1 1
vt 1 0.75
vt 0.75 0.75
vt 0.75 0.75
vt 1 0.75
vt 1 0.5
vt 0.75 0.5
vn 0 0 -1
vn -1 0 0
vn 0 1 0
vn 0 -1 0
usemtl m_ed6657f6-98be-38d0-67b4-58bda411672a
f 44/64/16 47/63/16 45/62/16 42/61/16
f 47/68/17 48/67/17 46/66/17 45/65/17
f 46/72/18 41/71/18 42/70/18 45/69/18
f 47/76/19 44/75/19 43/74/19 48/73/19
o cube
v 0.5 0.5 -0.5
v 0.5 0.5 -1.5
v 0.5 -0.5 -0.5
v 0.5 -0.5 -1.5
v -0.5 0.5 -1.5
v -0.5 0.5 -0.5
v -0.5 -0.5 -1.5
v -0.5 -0.5 -0.5
vt 0.75 1
vt 1 1
vt 1 0.75
vt 0.75 0.75
vt 0.75 1
vt 1 1
vt 1 0.75
vt 0.75 0.75
vt 0.75 0.75
vt 1 0.75
vt 1 0.5
vt 0.75 0.5
vn 0 0 -1
vn 0 1 0
vn 0 -1 0
usemtl m_ed6657f6-98be-38d0-67b4-58bda411672a
f 52/80/20 55/79/20 53/78/20 50/77/20
f 54/84/21 49/83/21 50/82/21 53/81/21
f 55/88/22 52/87/22 51/86/22 56/85/22
o cube
v 1.5 0.5 -0.5
v 1.5 0.5 -1.5
v 1.5 -0.5 -0.5
v 1.5 -0.5 -1.5
v 0.5 0.5 -1.5
v 0.5 0.5 -0.5
v 0.5 -0.5 -1.5
v 0.5 -0.5 -0.5
vt 0.75 1
vt 1 1
vt 1 0.75
vt 0.75 0.75
vt 0.75 1
vt 1 1
vt 1 0.75
vt 0.75 0.75
vt 0.75 1
vt 1 1
vt 1 0.75
vt 0.75 0.75
vt 0.75 0.75
vt 1 0.75
vt 1 0.5
vt 0.75 0.5
vn 0 0 -1
vn 1 0 0
vn 0 1 0
vn 0 -1 0
usemtl m_ed6657f6-98be-38d0-67b4-58bda411672a
f 60/92/23 63/91/23 61/90/23 58/89/23
f 59/96/24 60/95/24 58/94/24 57/93/24
f 62/100/25 57/99/25 58/98/25 61/97/25
f 63/104/26 60/103/26 59/102/26 64/101/26
o cube
v 0.5 0.5 1.5
v 0.5 0.5 0.5
v 0.5 -0.5 1.5
v 0.5 -0.5 0.5
v -0.5 0.5 0.5
v -0.5 0.5 1.5
v -0.5 -0.5 0.5
v -0.5 -0.5 1.5
vt 0.75 1
vt 1 1
vt 1 0.75
vt 0.75 0.75
vt 0.75 1
vt 1 1
vt 1 0.75
vt 0.75 0.75
vt 0.75 0.75
vt 1 0.75
vt 1 0.5
vt 0.75 0.5
vn 0 0 1
vn 0 1 0
vn 0 -1 0
usemtl m_ed6657f6-98be-38d0-67b4-58bda411672a
f 72/108/27 67/107/27 65/106/27 70/105/27
f 70/112/28 65/111/28 66/110/28 69/109/28
f 71/116/29 68/115/29 67/114/29 72/113/29
o cube
v 0.5 7.5 1.5
v 0.5 7.5 0.5
v 0.5 6.5 1.5
v 0.5 6.5 0.5
v -0.5 7.5 0.5
v -0.5 7.5 1.5
v -0.5 6.5 0.5
v -0.5 6.5 1.5
vt 0.75 1
vt 1 1
vt 1 0.75
vt 0.75 0.75
vt 0.75 1
vt 1 1
vt 1 0.75
vt 0.75 0.75
vt 0.75 1
vt 1 1
vt 1 0.75
vt 0.75 0.75
vn 0 0 1
vn 0 1 0
vn 0 -1 0
usemtl m_ed6657f6-98be-38d0-67b4-58bda411672a
f 80/120/30 75/119/30 73/118/30 78/117/30
f 78/124/31 73/123/31 74/122/31 77/121/31
f 79/128/32 76/127/32 75/126/32 80/125/32
o cube
v 0.5 7.5 -0.5
v 0.5 7.5 -1.5
v 0.5 6.5 -0.5
v 0.5 6.5 -1.5
v -0.5 7.5 -1.5
v -0.5 7.5 -0.5
v -0.5 6.5 -1.5
v -0.5 6.5 -0.5
vt 0.75 1
vt 1 1
vt 1 0.75
vt 0.75 0.75
vt 0.75 1
vt 1 1
vt 1 0.75
vt 0.75 0.75
vt 0.75 1
vt 1 1
vt 1 0.75
vt 0.75 0.75
vn 0 0 -1
vn 0 1 0
vn 0 -1 0
usemtl m_ed6657f6-98be-38d0-67b4-58bda411672a
f 84/132/33 87/131/33 85/130/33 82/129/33
f 86/136/34 81/135/34 82/134/34 85/133/34
f 87/140/35 84/139/35 83/138/35 88/137/35
o cube
v -0.5 7.5 0.5
v -0.5 7.5 -0.5
v -0.5 6.5 0.5
v -0.5 6.5 -0.5
v -1.5 7.5 -0.5
v -1.5 7.5 0.5
v -1.5 6.5 -0.5
v -1.5 6.5 0.5
vt 0.75 1
vt 1 1
vt 1 0.75
vt 0.75 0.75
vt 0.75 1
vt 1 1
vt 1 0.75
vt 0.75 0.75
vt 0.75 1
vt 1 1
vt 1 0.75
vt 0.75 0.75
vt 0.75 1
vt 1 1
vt 1 0.75
vt 0.75 0.75
vn 0 0 1
vn -1 0 0
vn 0 1 0
vn 0 -1 0
usemtl m_ed6657f6-98be-38d0-67b4-58bda411672a
f 96/144/36 91/143/36 89/142/36 94/141/36
f 95/148/37 96/147/37 94/146/37 93/145/37
f 94/152/38 89/151/38 90/150/38 93/149/38
f 95/156/39 92/155/39 91/154/39 96/153/39
o cube
v 0.5 7.5 0.5
v 0.5 7.5 -0.5
v 0.5 6.5 0.5
v 0.5 6.5 -0.5
v -0.5 7.5 -0.5
v -0.5 7.5 0.5
v -0.5 6.5 -0.5
v -0.5 6.5 0.5
vt 0.75 1
vt 1 1
vt 1 0.75
vt 0.75 0.75
vt 0.75 1
vt 1 1
vt 1 0.75
vt 0.75 0.75
vn 0 1 0
vn 0 -1 0
usemtl m_ed6657f6-98be-38d0-67b4-58bda411672a
f 102/160/40 97/159/40 98/158/40 101/157/40
f 103/164/41 100/163/41 99/162/41 104/161/41
o cube
v 1.5 7.5 0.5
v 1.5 7.5 -0.5
v 1.5 6.5 0.5
v 1.5 6.5 -0.5
v 0.5 7.5 -0.5
v 0.5 7.5 0.5
v 0.5 6.5 -0.5
v 0.5 6.5 0.5
vt 0.75 1
vt 1 1
vt 1 0.75
vt 0.75 0.75
vt 0.75 1
vt 1 1
vt 1 0.75
vt 0.75 0.75
vt 0.75 1
vt 1 1
vt 1 0.75
vt 0.75 0.75
vn 1 0 0
vn 0 1 0
vn 0 -1 0
usemtl m_ed6657f6-98be-38d0-67b4-58bda411672a
f 107/168/42 108/167/42 106/166/42 105/165/42
f 110/172/43 105/171/43 106/170/43 109/169/43
f 111/176/44 108/175/44 107/174/44 112/173/44
o cube
v 1.5 7.5 0.5
v 1.5 6.5 0.5
v 0.5 7.5 1.5
v 0.5 7.5 0.5
v 0.5 6.5 1.5
v 0.5 6.5 0.5
vt 1 0.5
vt 1 0.75
vt 0.75 0.75
vt 1 0.5
vt 1 0.75
vt 0.75 0.75
vt 1 0.5
vt 1 0.75
vt 0.75 0.75
vt 0.75 0.5
vn 0 1 0
vn 0 -1 0
vn 0.7071067811865476 0 0.7071067811865476
usemtl m_ed6657f6-98be-38d0-67b4-58bda411672a
f 113/177/45 116/178/45 115/179/45
f 114/180/46 117/181/46 118/182/46
f 114/183/47 113/184/47 115/185/47 117/186/47
o cube
v -0.49999999999999967 7.5 1.5
v -0.49999999999999967 6.5 1.5
v -1.5 7.5 0.5000000000000003
v -0.4999999999999999 7.5 0.5000000000000001
v -1.5 6.5 0.5000000000000003
v -0.4999999999999999 6.5 0.5000000000000001
vt 1 0.5
vt 1 0.75
vt 0.75 0.75
vt 1 0.5
vt 1 0.75
vt 0.75 0.75
vt 1 0.5
vt 1 0.75
vt 0.75 0.75
vt 0.75 0.5
vn 0 1 0
vn 0 -1 0
vn -0.7071067811865475 0 0.7071067811865477
usemtl m_ed6657f6-98be-38d0-67b4-58bda411672a
f 119/187/48 122/188/48 121/189/48
f 120/190/49 123/191/49 124/192/49
f 120/193/50 119/194/50 121/195/50 123/196/50
o cube
v 0.5000000000000003 7.5 -1.5000000000000018
v 0.5000000000000003 6.5 -1.5000000000000013
v 1.5 7.5 -0.5000000000000016
v 0.5000000000000001 7.5 -0.5000000000000018
v 1.5 6.5 -0.5000000000000013
v 0.5000000000000001 6.5 -0.5000000000000016
vt 1 0.5
vt 1 0.75
vt 0.75 0.75
vt 1 0.5
vt 1 0.75
vt 0.75 0.75
vt 1 0.5
vt 1 0.75
vt 0.75 0.75
vt 0.75 0.5
vn 3.0115213031032457e-33 1 -2.356072911435054e-16
vn -3.0115213031032457e-33 -1 2.356072911435054e-16
vn 0.7071067811865477 -1.6659951326456586e-16 -0.7071067811865475
usemtl m_ed6657f6-98be-38d0-67b4-58bda411672a
f 125/197/51 128/198/51 127/199/51
f 126/200/52 129/201/52 130/202/52
f 126/203/53 125/204/53 127/205/53 129/206/53
o cube
v -1.5000000000000009 7.5 -0.500000000000001
v -1.5000000000000009 6.5 -0.5000000000000009
v -0.500000000000001 7.5 -1.5000000000000009
v -0.500000000000001 7.5 -0.500000000000001
v -0.5000000000000009 6.5 -1.5000000000000009
v -0.5000000000000009 6.5 -0.5000000000000009
vt 1 0.5
vt 1 0.75
vt 0.75 0.75
vt 1 0.5
vt 1 0.75
vt 0.75 0.75
vt 1 0.5
vt 1 0.75
vt 0.75 0.75
vt 0.75 0.5
vn -1.2246467991473532e-16 1 -1.2246467991473532e-16
vn 1.2246467991473532e-16 -1 1.2246467991473532e-16
vn -0.7071067811865476 -1.7319121124709868e-16 -0.7071067811865476
usemtl m_ed6657f6-98be-38d0-67b4-58bda411672a
f 131/207/54 134/208/54 133/209/54
f 132/210/55 135/211/55 136/212/55
f 132/213/56 131/214/56 133/215/56 135/216/56
o cube
v 1 6.5 0.5
v 1 6.5 -0.5
v 1 2.5 0.5
v 1 2.5 -0.5
v -1 6.5 0.5
v -1 6.5 -0.5
v -1 2.5 0.5
v -1 2.5 -0.5
v -0.5 6.5 -1
v 0.5 6.5 -1
v -0.5 2.5 -1
v 0.5 2.5 -1
v 0.5 6.5 1
v -0.5 6.5 1
v 0.5 2.5 1
v -0.5 2.5 1
vt 0.25 0
vt 0.25 1
vt 0 1
vt 0 0
vt 0.25 0
vt 0.25 1
vt 0 1
vt 0 0
vt 0.25 1
vt 0.25 0
vt 0.421875 0
vt 0.421875 1
vt 0.421875 1
vt 0.421875 0
vt 0.25 0
vt 0.25 1
vt 0.25 1
vt 0.25 0
vt 0.421875 0
vt 0.421875 1
vt 0.421875 0
vt 0.421875 1
vt 0.25 1
vt 0.25 0
vn 0 0 1
vn 0 0 -1
vn -0.7071067811865476 0 -0.7071067811865476
vn 0.7071067811865476 0 -0.7071067811865476
vn 0.7071067811865476 0 0.7071067811865476
vn -0.7071067811865476 0 0.7071067811865476
usemtl m_b69234fd-f04c-9dc6-0efe-96e871da9ade
f 151/217/57 149/218/57 150/219/57 152/220/57
f 147/221/58 145/222/58 146/223/58 148/224/58
f 145/225/59 147/226/59 144/227/59 142/228/59
f 148/229/60 146/230/60 138/231/60 140/232/60
f 149/233/61 151/234/61 139/235/61 137/236/61
f 152/237/62 150/238/62 141/239/62 143/240/62
o cube
v 0.5 2.5 -1.125
v 1.125 2.5 0.5
v 1.125 2.5 -0.5
v 1.125 0.5 0.5
v 1.125 0.5 -0.5
v -1.125 2.5 0.5
v -1.125 2.5 -0.5
v -1.125 0.5 0.5
v -1.125 0.5 -0.5
v 0.5 2.5 1.125
v -0.5 2.5 1.125
v 0.5 0.5 1.125
v -0.5 0.5 1.125
v -0.5 2.5 -1.125
v -0.5 0.5 -1.125
v 0.5 0.5 -1.125
vt 1 0.5
vt 1 1
vt 0.75 1
vt 0.75 0.5
vt 1 0.5
vt 1 1
vt 0.75 1
vt 0.75 0.5
vt 0.78125 0.5
vt 0.78125 0
vt 1 0
vt 1 0.5
vt 0.78125 0
vt 0.78125 0.5
vt 1 0.5
vt 1 0
vt 0.78125 0.5
vt 0.78125 0
vt 1 0
vt 1 0.5
vt 0.78125 0
vt 0.78125 0.5
vt 1 0.5
vt 1 0
vt 0.15625 0.84375
vt 0.40625 0.84375
vt 0.5625 1
vt 0 1
vt 0.15625 0.84375
vt 0.40625 0.84375
vt 0.5625 1
vt 0 1
vt 0.5625 0.59375
vt 0.5625 0.84375
vt 0 0.84375
vt 0 0.59375
vn 0 0 1
vn 0 0 -1
vn 0.7071067811865476 0 0.7071067811865476
vn -0.7071067811865476 0 0.7071067811865476
vn -0.7071067811865476 0 -0.7071067811865476
vn 0.7071067811865476 0 -0.7071067811865476
vn 0 1 0
vn 0 1 0
vn 0 1 0
usemtl m_b69234fd-f04c-9dc6-0efe-96e871da9ade
f 164/241/63 162/242/63 163/243/63 165/244/63
f 167/245/64 166/246/64 153/247/64 168/248/64
f 162/249/65 164/250/65 156/251/65 154/252/65
f 165/253/66 163/254/66 158/255/66 160/256/66
f 166/257/67 167/258/67 161/259/67 159/260/67
f 168/261/68 153/262/68 155/263/68 157/264/68
usemtl m_ed6657f6-98be-38d0-67b4-58bda411672a
f 163/265/69 162/266/69 154/267/69 158/268/69
f 153/269/70 166/270/70 159/271/70 155/272/70
f 154/273/71 155/274/71 159/275/71 158/276/71
o cube
v 1.25 2.5 0.5
v 1.25 2.5 -0.5
v 1.25 0.5 0.5
v 1.25 0.5 -0.5
v 1 2.5 -0.5
v 1 2.5 0.5
v 1 0.5 -0.5
v 1 0.5 0.5
vt 0.671875 1
vt 0.609375 1
vt 0.609375 0.5
vt 0.671875 0.5
vt 0.421875 1
vt 0.671875 1
vt 0.671875 0.5
vt 0.421875 0.5
vt 0.609375 1
vt 0.671875 1
vt 0.671875 0.5
vt 0.609375 0.5
vn 0 0 -1
vn 1 0 0
vn 0 0 1
usemtl m_b69234fd-f04c-9dc6-0efe-96e871da9ade
f 172/280/72 175/279/72 173/278/72 170/277/72
f 171/284/73 172/283/73 170/282/73 169/281/73
f 176/288/74 171/287/74 169/286/74 174/285/74
o cube
v 1.25 4.5 0.5
v 1.25 4.5 -0.5
v 1.25 2.5 0.5
v 1.25 2.5 -0.5
v 1 4.5 -0.5
v 1 4.5 0.5
v 1 2.5 -0.5
v 1 2.5 0.5
vt 0.671875 1
vt 0.609375 1
vt 0.609375 0.5
vt 0.671875 0.5
vt 0.671875 1
vt 0.421875 1
vt 0.421875 0.5
vt 0.671875 0.5
vt 0.609375 1
vt 0.671875 1
vt 0.671875 0.5
vt 0.609375 0.5
vt 0.421875 1
vt 0.671875 1
vt 0.671875 0.5
vt 0.421875 0.5
vn 0 0 -1
vn 1 0 0
vn 0 0 1
vn -1 0 0
usemtl m_b69234fd-f04c-9dc6-0efe-96e871da9ade
f 180/292/75 183/291/75 181/290/75 178/289/75
f 179/296/76 180/295/76 178/294/76 177/293/76
f 184/300/77 179/299/77 177/298/77 182/297/77
f 183/304/78 184/303/78 182/302/78 181/301/78
o cube
v 1.25 6.5 0.5
v 1.25 6.5 -0.5
v 1.25 4.5 0.5
v 1.25 4.5 -0.5
v 1 6.5 -0.5
v 1 6.5 0.5
v 1 4.5 -0.5
v 1 4.5 0.5
vt 0.671875 1
vt 0.609375 1
vt 0.609375 0.5
vt 0.671875 0.5
vt 0.671875 1
vt 0.421875 1
vt 0.421875 0.5
vt 0.671875 0.5
vt 0.609375 1
vt 0.671875 1
vt 0.671875 0.5
vt 0.609375 0.5
vt 0.421875 1
vt 0.671875 1
vt 0.671875 0.5
vt 0.421875 0.5
vn 0 0 -1
vn 1 0 0
vn 0 0 1
vn -1 0 0
usemtl m_b69234fd-f04c-9dc6-0efe-96e871da9ade
f 188/308/79 191/307/79 189/306/79 186/305/79
f 187/312/80 188/311/80 186/310/80 185/309/80
f 192/316/81 187/315/81 185/314/81 190/313/81
f 191/320/82 192/319/82 190/318/82 189/317/82
o cube
v -1.25 4.5 -0.49999999999999983
v -1.25 4.5 0.5
v -1.25 2.5 -0.49999999999999983
v -1.25 2.5 0.5
v -0.9999999999999999 4.5 0.5
v -1 4.5 -0.4999999999999999
v -0.9999999999999999 2.5 0.5
v -1 2.5 -0.4999999999999999
vt 0.671875 1
vt 0.609375 1
vt 0.609375 0.5
vt 0.671875 0.5
vt 0.671875 1
vt 0.421875 1
vt 0.421875 0.5
vt 0.671875 0.5
vt 0.609375 1
vt 0.671875 1
vt 0.671875 0.5
vt 0.609375 0.5
vt 0.421875 1
vt 0.671875 1
vt 0.671875 0.5
vt 0.421875 0.5
vn 1.2246467991473532e-16 0 1
vn -1 0 1.2246467991473532e-16
vn -1.2246467991473532e-16 0 -1
vn 1 0 -1.2246467991473532e-16
usemtl m_b69234fd-f04c-9dc6-0efe-96e871da9ade
f 196/324/83 199/323/83 197/322/83 194/321/83
f 195/328/84 196/327/84 194/326/84 193/325/84
f 200/332/85 195/331/85 193/330/85 198/329/85
f 199/336/86 200/335/86 198/334/86 197/333/86
o cube
v -1.25 2.5 -0.49999999999999983
v -1.25 2.5 0.5
v -1.25 0.5 -0.49999999999999983
v -1.25 0.5 0.5
v -0.9999999999999999 2.5 0.5
v -1 2.5 -0.4999999999999999
v -0.9999999999999999 0.5 0.5
v -1 0.5 -0.4999999999999999
vt 0.671875 1
vt 0.609375 1
vt 0.609375 0.5
vt 0.671875 0.5
vt 0.421875 1
vt 0.671875 1
vt 0.671875 0.5
vt 0.421875 0.5
vt 0.609375 1
vt 0.671875 1
vt 0.671875 0.5
vt 0.609375 0.5
vn 1.2246467991473532e-16 0 1
vn -1 0 1.2246467991473532e-16
vn -1.2246467991473532e-16 0 -1
usemtl m_b69234fd-f04c-9dc6-0efe-96e871da9ade
f 204/340/87 207/339/87 205/338/87 202/337/87
f 203/344/88 204/343/88 202/342/88 201/341/88
f 208/348/89 203/347/89 201/346/89 206/345/89
o cube
v -1.25 6.5 -0.49999999999999983
v -1.25 6.5 0.5
v -1.25 4.5 -0.49999999999999983
v -1.25 4.5 0.5
v -0.9999999999999999 6.5 0.5
v -1 6.5 -0.4999999999999999
v -0.9999999999999999 4.5 0.5
v -1 4.5 -0.4999999999999999
vt 0.671875 1
vt 0.609375 1
vt 0.609375 0.5
vt 0.671875 0.5
vt 0.671875 1
vt 0.421875 1
vt 0.421875 0.5
vt 0.671875 0.5
vt 0.609375 1
vt 0.671875 1
vt 0.671875 0.5
vt 0.609375 0.5
vt 0.421875 1
vt 0.671875 1
vt 0.671875 0.5
vt 0.421875 0.5
vn 1.2246467991473532e-16 0 1
vn -1 0 1.2246467991473532e-16
vn -1.2246467991473532e-16 0 -1
vn 1 0 -1.2246467991473532e-16
usemtl m_b69234fd-f04c-9dc6-0efe-96e871da9ade
f 212/352/90 215/351/90 213/350/90 210/349/90
f 211/356/91 212/355/91 210/354/91 209/353/91
f 216/360/92 211/359/92 209/358/92 214/357/92
f 215/364/93 216/363/93 214/362/93 213/361/93