# Made in Blockbench 4.9.0
mtllib charnel_pump.mtl

o cube
v 1.5 0.5 0.5
v 1.5 0.5 -0.5
v 1.5 -0.5 0.5
v 1.5 -0.5 -0.5
v 0.5 0.5 -0.5
v 0.5 0.5 0.5
v 0.5 -0.5 -0.5
v 0.5 -0.5 0.5
vt 0.75 1
vt 1 1
vt 1 0.75
vt 0.75 0.75
vt 0.75 1
vt 1 1
vt 1 0.75
vt 0.75 0.75
vt 0.75 0.75
vt 1 0.75
vt 1 0.5
vt 0.75 0.5
vn 1 0 0
vn 0 1 0
vn 0 -1 0
usemtl m_ed6657f6-98be-38d0-67b4-58bda411672a
f 3/4/1 4/3/1 2/2/1 1/1/1
f 6/8/2 1/7/2 2/6/2 5/5/2
f 7/12/3 4/11/3 3/10/3 8/9/3
o cube
v 0.5 0.5 0.5
v 0.5 0.5 -0.5
v 0.5 -0.5 0.5
v 0.5 -0.5 -0.5
v -0.5 0.5 -0.5
v -0.5 0.5 0.5
v -0.5 -0.5 -0.5
v -0.5 -0.5 0.5
vt 0.75 0.75
vt 1 0.75
vt 1 0.5
vt 0.75 0.5
vn 0 -1 0
usemtl m_ed6657f6-98be-38d0-67b4-58bda411672a
f 15/16/4 12/15/4 11/14/4 16/13/4
o cube
v -0.5 0.5 0.5
v -0.5 0.5 -0.5
v -0.5 -0.5 0.5
v -0.5 -0.5 -0.5
v -1.5 0.5 -0.5
v -1.5 0.5 0.5
v -1.5 -0.5 -0.5
v -1.5 -0.5 0.5
vt 1 0.75
vt 0.75 0.75
vt 0.75 1
vt 1 1
vt 0.75 0.75
vt 1 0.75
vt 1 0.5
vt 0.75 0.5
vn 0 1 0
vn 0 -1 0
usemtl m_ed6657f6-98be-38d0-67b4-58bda411672a
f 22/20/5 17/19/5 18/18/5 21/17/5
f 23/24/6 20/23/6 19/22/6 24/21/6
o cube
v 1.5 0.5 1.5
v 1.5 0.5 0.5
v 1.5 -0.5 1.5
v 1.5 -0.5 0.5
v 0.5 0.5 0.5
v 0.5 0.5 1.5
v 0.5 -0.5 0.5
v 0.5 -0.5 1.5
vt 0.75 1
vt 1 1
vt 1 0.75
vt 0.75 0.75
vt 0.75 1
vt 1 1
vt 1 0.75
vt 0.75 0.75
vt 0.75 1
vt 1 1
vt 1 0.75
vt 0.75 0.75
vt 0.75 0.75
vt 1 0.75
vt 1 0.5
vt 0.75 0.5
vn 1 0 0
vn 0 0 1
vn 0 1 0
vn 0 -1 0
usemtl m_ed6657f6-98be-38d0-67b4-58bda411672a
f 27/28/7 28/27/7 26/26/7 25/25/7
f 32/32/8 27/31/8 25/30/8 30/29/8
f 30/36/9 25/35/9 26/34/9 29/33/9
f 31/40/10 28/39/10 27/38/10 32/37/10
o cube
v -0.5 0.5 1.5
v -0.5 0.5 0.5
v -0.5 -0.5 1.5
v -0.5 -0.5 0.5
v -1.5 0.5 0.5
v -1.5 0.5 1.5
v -1.5 -0.5 0.5
v -1.5 -0.5 1.5
vt 0.75 1
vt 1 1
vt 1 0.75
vt 0.75 0.75
vt 0.75 1
vt 1 1
vt 1 0.75
vt 0.75 0.75
vt 1 0.75
vt 0.75 0.75
vt 0.75 1
vt 1 1
vt 0.75 0.75
vt 1 0.75
vt 1 0.5
vt 0.75 0.5
vn 0 0 1
vn -1 0 0
vn 0 1 0
vn 0 -1 0
usemtl m_ed6657f6-98be-38d0-67b4-58bda411672a
f 40/44/11 35/43/11 33/42/11 38/41/11
f 39/48/12 40/47/12 38/46/12 37/45/12
f 38/52/13 33/51/13 34/50/13 37/49/13
f 39/56/14 36/55/14 35/54/14 40/53/14
o cube
v -0.5 0.5 -0.5
v -0.5 0.5 -1.5
v -0.5 -0.5 -0.5
v -0.5 -0.5 -1.5
v -1.5 0.5 -1.5
v -1.5 0.5 -0.5
v -1.5 -0.5 -1.5
v -1.5 -0.5 -0.5
vt 0.75 1
vt 1 1
vt 1 0.75
vt 0.75 0.75
vt 0.75 1
vt 1 1
vt 1 0.75
vt 0.75 0.75
vt 1 0.75
vt 0.75 0.75
vt 0.75 1
vt 1 1
vt 0.75 0.75
vt 1 0.75
vt 1 0.5
vt 0.75 0.5
vn 0 0 -1
vn -1 0 0
vn 0 1 0
vn 0 -1 0
usemtl m_ed6657f6-98be-38d0-67b4-58bda411672a
f 44/60/15 47/59/15 45/58/15 42/57/15
f 47/64/16 48/63/16 46/62/16 45/61/16
f 46/68/17 41/67/17 42/66/17 45/65/17
f 47/72/18 44/71/18 43/70/18 48/69/18
o cube
v 0.5 0.5 -0.5
v 0.5 0.5 -1.5
v 0.5 -0.5 -0.5
v 0.5 -0.5 -1.5
v -0.5 0.5 -1.5
v -0.5 0.5 -0.5
v -0.5 -0.5 -1.5
v -0.5 -0.5 -0.5
vt 0.5 0.5
vt 0.75 0.5
vt 0.75 0.25
vt 0.5 0.25
vt 1 0.75
vt 0.75 0.75
vt 0.75 1
vt 1 1
vt 0.75 0.75
vt 1 0.75
vt 1 0.5
vt 0.75 0.5
vn 0 0 -1
vn 0 1 0
vn 0 -1 0
usemtl m_ed6657f6-98be-38d0-67b4-58bda411672a
f 52/76/19 55/75/19 53/74/19 50/73/19
f 54/80/20 49/79/20 50/78/20 53/77/20
f 55/84/21 52/83/21 51/82/21 56/81/21
o cube
v 1.5 0.5 -0.5
v 1.5 0.5 -1.5
v 1.5 -0.5 -0.5
v 1.5 -0.5 -1.5
v 0.5 0.5 -1.5
v 0.5 0.5 -0.5
v 0.5 -0.5 -1.5
v 0.5 -0.5 -0.5
vt 0.75 1
vt 1 1
vt 1 0.75
vt 0.75 0.75
vt 0.75 1
vt 1 1
vt 1 0.75
vt 0.75 0.75
vt 1 0.75
vt 0.75 0.75
vt 0.75 1
vt 1 1
vt 0.75 0.75
vt 1 0.75
vt 1 0.5
vt 0.75 0.5
vn 0 0 -1
vn 1 0 0
vn 0 1 0
vn 0 -1 0
usemtl m_ed6657f6-98be-38d0-67b4-58bda411672a
f 60/88/22 63/87/22 61/86/22 58/85/22
f 59/92/23 60/91/23 58/90/23 57/89/23
f 62/96/24 57/95/24 58/94/24 61/93/24
f 63/100/25 60/99/25 59/98/25 64/97/25
o cube
v 0.5 0.5 1.5
v 0.5 0.5 0.5
v 0.5 -0.5 1.5
v 0.5 -0.5 0.5
v -0.5 0.5 0.5
v -0.5 0.5 1.5
v -0.5 -0.5 0.5
v -0.5 -0.5 1.5
vt 0.75 1
vt 1 1
vt 1 0.75
vt 0.75 0.75
vt 0.75 1
vt 1 1
vt 1 0.75
vt 0.75 0.75
vt 0.75 0.75
vt 1 0.75
vt 1 0.5
vt 0.75 0.5
vn 0 0 1
vn 0 1 0
vn 0 -1 0
usemtl m_ed6657f6-98be-38d0-67b4-58bda411672a
f 72/104/26 67/103/26 65/102/26 70/101/26
f 70/108/27 65/107/27 66/106/27 69/105/27
f 71/112/28 68/111/28 67/110/28 72/109/28
o cube
v 0.5 7.5 1.5
v 0.5 7.5 0.5
v 0.5 6.5 1.5
v 0.5 6.5 0.5
v -0.5 7.5 0.5
v -0.5 7.5 1.5
v -0.5 6.5 0.5
v -0.5 6.5 1.5
vt 0.75 1
vt 1 1
vt 1 0.75
vt 0.75 0.75
vt 0.75 1
vt 1 1
vt 1 0.75
vt 0.75 0.75
vt 0.75 1
vt 1 1
vt 1 0.75
vt 0.75 0.75
vn 0 0 1
vn 0 1 0
vn 0 -1 0
usemtl m_ed6657f6-98be-38d0-67b4-58bda411672a
f 80/116/29 75/115/29 73/114/29 78/113/29
f 78/120/30 73/119/30 74/118/30 77/117/30
f 79/124/31 76/123/31 75/122/31 80/121/31
o cube
v 0.5 7.5 -0.5
v 0.5 7.5 -1.5
v 0.5 6.5 -0.5
v 0.5 6.5 -1.5
v -0.5 7.5 -1.5
v -0.5 7.5 -0.5
v -0.5 6.5 -1.5
v -0.5 6.5 -0.5
vt 0.75 1
vt 1 1
vt 1 0.75
vt 0.75 0.75
vt 0.75 1
vt 1 1
vt 1 0.75
vt 0.75 0.75
vt 0.75 1
vt 1 1
vt 1 0.75
vt 0.75 0.75
vn 0 0 -1
vn 0 1 0
vn 0 -1 0
usemtl m_ed6657f6-98be-38d0-67b4-58bda411672a
f 84/128/32 87/127/32 85/126/32 82/125/32
f 86/132/33 81/131/33 82/130/33 85/129/33
f 87/136/34 84/135/34 83/134/34 88/133/34
o cube
v -0.5 7.5 0.5
v -0.5 7.5 -0.5
v -0.5 6.5 0.5
v -0.5 6.5 -0.5
v -1.5 7.5 -0.5
v -1.5 7.5 0.5
v -1.5 6.5 -0.5
v -1.5 6.5 0.5
vt 0.75 1
vt 1 1
vt 1 0.75
vt 0.75 0.75
vt 0.75 1
vt 1 1
vt 1 0.75
vt 0.75 0.75
vt 0.75 1
vt 1 1
vt 1 0.75
vt 0.75 0.75
vt 0.75 1
vt 1 1
vt 1 0.75
vt 0.75 0.75
vn 0 0 1
vn -1 0 0
vn 0 1 0
vn 0 -1 0
usemtl m_ed6657f6-98be-38d0-67b4-58bda411672a
f 96/140/35 91/139/35 89/138/35 94/137/35
f 95/144/36 96/143/36 94/142/36 93/141/36
f 94/148/37 89/147/37 90/146/37 93/145/37
f 95/152/38 92/151/38 91/150/38 96/149/38
o cube
v 0.5 7.5 0.5
v 0.5 7.5 -0.5
v 0.5 6.5 0.5
v 0.5 6.5 -0.5
v -0.5 7.5 -0.5
v -0.5 7.5 0.5
v -0.5 6.5 -0.5
v -0.5 6.5 0.5
vt 0.75 1
vt 1 1
vt 1 0.75
vt 0.75 0.75
vt 0.75 1
vt 1 1
vt 1 0.75
vt 0.75 0.75
vn 0 1 0
vn 0 -1 0
usemtl m_ed6657f6-98be-38d0-67b4-58bda411672a
f 102/156/39 97/155/39 98/154/39 101/153/39
f 103/160/40 100/159/40 99/158/40 104/157/40
o cube
v 1.5 7.5 0.5
v 1.5 7.5 -0.5
v 1.5 6.5 0.5
v 1.5 6.5 -0.5
v 0.5 7.5 -0.5
v 0.5 7.5 0.5
v 0.5 6.5 -0.5
v 0.5 6.5 0.5
vt 0.75 1
vt 1 1
vt 1 0.75
vt 0.75 0.75
vt 0.75 1
vt 1 1
vt 1 0.75
vt 0.75 0.75
vt 0.75 1
vt 1 1
vt 1 0.75
vt 0.75 0.75
vn 1 0 0
vn 0 1 0
vn 0 -1 0
usemtl m_ed6657f6-98be-38d0-67b4-58bda411672a
f 107/164/41 108/163/41 106/162/41 105/161/41
f 110/168/42 105/167/42 106/166/42 109/165/42
f 111/172/43 108/171/43 107/170/43 112/169/43
o cube
v 1.5 7.5 0.5
v 1.5 6.5 0.5
v 0.5 7.5 1.5
v 0.5 7.5 0.5
v 0.5 6.5 1.5
v 0.5 6.5 0.5
vt 1 0.5
vt 1 0.75
vt 0.75 0.75
vt 1 0.5
vt 1 0.75
vt 0.75 0.75
vt 1 0.5
vt 1 0.75
vt 0.75 0.75
vt 0.75 0.5
vn 0 1 0
vn 0 -1 0
vn 0.7071067811865476 0 0.7071067811865476
usemtl m_ed6657f6-98be-38d0-67b4-58bda411672a
f 113/173/44 116/174/44 115/175/44
f 114/176/45 117/177/45 118/178/45
f 114/179/46 113/180/46 115/181/46 117/182/46
o cube
v -0.49999999999999967 7.5 1.5
v -0.49999999999999967 6.5 1.5
v -1.5 7.5 0.5000000000000003
v -0.4999999999999999 7.5 0.5000000000000001
v -1.5 6.5 0.5000000000000003
v -0.4999999999999999 6.5 0.5000000000000001
vt 1 0.5
vt 1 0.75
vt 0.75 0.75
vt 1 0.5
vt 1 0.75
vt 0.75 0.75
vt 1 0.5
vt 1 0.75
vt 0.75 0.75
vt 0.75 0.5
vn 0 1 0
vn 0 -1 0
vn -0.7071067811865475 0 0.7071067811865477
usemtl m_ed6657f6-98be-38d0-67b4-58bda411672a
f 119/183/47 122/184/47 121/185/47
f 120/186/48 123/187/48 124/188/48
f 120/189/49 119/190/49 121/191/49 123/192/49
o cube
v 0.5000000000000003 7.5 -1.5000000000000018
v 0.5000000000000003 6.5 -1.5000000000000013
v 1.5 7.5 -0.5000000000000016
v 0.5000000000000001 7.5 -0.5000000000000018
v 1.5 6.5 -0.5000000000000013
v 0.5000000000000001 6.5 -0.5000000000000016
vt 1 0.5
vt 1 0.75
vt 0.75 0.75
vt 1 0.5
vt 1 0.75
vt 0.75 0.75
vt 1 0.5
vt 1 0.75
vt 0.75 0.75
vt 0.75 0.5
vn 3.0115213031032457e-33 1 -2.356072911435054e-16
vn -3.0115213031032457e-33 -1 2.356072911435054e-16
vn 0.7071067811865477 -1.6659951326456586e-16 -0.7071067811865475
usemtl m_ed6657f6-98be-38d0-67b4-58bda411672a
f 125/193/50 128/194/50 127/195/50
f 126/196/51 129/197/51 130/198/51
f 126/199/52 125/200/52 127/201/52 129/202/52
o cube
v -1.5000000000000009 7.5 -0.500000000000001
v -1.5000000000000009 6.5 -0.5000000000000009
v -0.500000000000001 7.5 -1.5000000000000009
v -0.500000000000001 7.5 -0.500000000000001
v -0.5000000000000009 6.5 -1.5000000000000009
v -0.5000000000000009 6.5 -0.5000000000000009
vt 1 0.5
vt 1 0.75
vt 0.75 0.75
vt 1 0.5
vt 1 0.75
vt 0.75 0.75
vt 1 0.5
vt 1 0.75
vt 0.75 0.75
vt 0.75 0.5
vn -1.2246467991473532e-16 1 -1.2246467991473532e-16
vn 1.2246467991473532e-16 -1 1.2246467991473532e-16
vn -0.7071067811865476 -1.7319121124709868e-16 -0.7071067811865476
usemtl m_ed6657f6-98be-38d0-67b4-58bda411672a
f 131/203/53 134/204/53 133/205/53
f 132/206/54 135/207/54 136/208/54
f 132/209/55 131/210/55 133/211/55 135/212/55
o cube
v 1 6.5 0.5
v 1 6.5 -0.5
v 1 2.5 0.5
v 1 2.5 -0.5
v -1 6.5 0.5
v -1 6.5 -0.5
v -1 2.5 0.5
v -1 2.5 -0.5
v -0.5 6.5 -1
v 0.5 6.5 -1
v -0.5 2.5 -1
v 0.5 2.5 -1
v 0.5 6.5 1
v -0.5 6.5 1
v 0.5 2.5 1
v -0.5 2.5 1
vt 0.25 0
vt 0.25 1
vt 0 1
vt 0 0
vt 0.25 0
vt 0.25 1
vt 0 1
vt 0 0
vt 0.25 1
vt 0.25 0
vt 0.421875 0
vt 0.421875 1
vt 0.421875 1
vt 0.421875 0
vt 0.25 0
vt 0.25 1
vt 0.25 1
vt 0.25 0
vt 0.421875 0
vt 0.421875 1
vt 0.421875 0
vt 0.421875 1
vt 0.25 1
vt 0.25 0
vn 0 0 1
vn 0 0 -1
vn -0.7071067811865476 0 -0.7071067811865476
vn 0.7071067811865476 0 -0.7071067811865476
vn 0.7071067811865476 0 0.7071067811865476
vn -0.7071067811865476 0 0.7071067811865476
usemtl m_b69234fd-f04c-9dc6-0efe-96e871da9ade
f 151/213/56 149/214/56 150/215/56 152/216/56
f 147/217/57 145/218/57 146/219/57 148/220/57
f 145/221/58 147/222/58 144/223/58 142/224/58
f 148/225/59 146/226/59 138/227/59 140/228/59
f 149/229/60 151/230/60 139/231/60 137/232/60
f 152/233/61 150/234/61 141/235/61 143/236/61
o cube
v 0.5 2.5 -1.125
v 1.125 2.5 0.5
v 1.125 2.5 -0.5
v 1.125 0.5 0.5
v 1.125 0.5 -0.5
v -1.125 2.5 0.5
v -1.125 2.5 -0.5
v -1.125 0.5 0.5
v -1.125 0.5 -0.5
v 0.5 2.5 1.125
v -0.5 2.5 1.125
v 0.5 0.5 1.125
v -0.5 0.5 1.125
v -0.5 2.5 -1.125
v -0.5 0.5 -1.125
v 0.5 0.5 -1.125
vt 1 0.5
vt 1 1
vt 0.75 1
vt 0.75 0.5
vt 1 0.5
vt 1 1
vt 0.75 1
vt 0.75 0.5
vt 0.78125 0.5
vt 0.78125 0
vt 1 0
vt 1 0.5
vt 0.78125 0
vt 0.78125 0.5
vt 1 0.5
vt 1 0
vt 0.78125 0.5
vt 0.78125 0
vt 1 0
vt 1 0.5
vt 0.78125 0
vt 0.78125 0.5
vt 1 0.5
vt 1 0
vt 0.15625 0.84375
vt 0.40625 0.84375
vt 0.5625 1
vt 0 1
vt 0.15625 0.84375
vt 0.40625 0.84375
vt 0.5625 1
vt 0 1
vt 0.5625 0.59375
vt 0.5625 0.84375
vt 0 0.84375
vt 0 0.59375
vn 0 0 1
vn 0 0 -1
vn 0.7071067811865476 0 0.7071067811865476
vn -0.7071067811865476 0 0.7071067811865476
vn -0.7071067811865476 0 -0.7071067811865476
vn 0.7071067811865476 0 -0.7071067811865476
vn 0 1 0
vn 0 1 0
vn 0 1 0
usemtl m_b69234fd-f04c-9dc6-0efe-96e871da9ade
f 164/237/62 162/238/62 163/239/62 165/240/62
f 167/241/63 166/242/63 153/243/63 168/244/63
f 162/245/64 164/246/64 156/247/64 154/248/64
f 165/249/65 163/250/65 158/251/65 160/252/65
f 166/253/66 167/254/66 161/255/66 159/256/66
f 168/257/67 153/258/67 155/259/67 157/260/67
usemtl m_ed6657f6-98be-38d0-67b4-58bda411672a
f 163/261/68 162/262/68 154/263/68 158/264/68
f 153/265/69 166/266/69 159/267/69 155/268/69
f 154/269/70 155/270/70 159/271/70 158/272/70
o cube
v 1.25 2.5 0.5
v 1.25 2.5 -0.5
v 1.25 0.5 0.5
v 1.25 0.5 -0.5
v 1 2.5 -0.5
v 1 2.5 0.5
v 1 0.5 -0.5
v 1 0.5 0.5
vt 0.671875 1
vt 0.609375 1
vt 0.609375 0.5
vt 0.671875 0.5
vt 0.421875 1
vt 0.671875 1
vt 0.671875 0.5
vt 0.421875 0.5
vt 0.609375 1
vt 0.671875 1
vt 0.671875 0.5
vt 0.609375 0.5
vn 0 0 -1
vn 1 0 0
vn 0 0 1
usemtl m_b69234fd-f04c-9dc6-0efe-96e871da9ade
f 172/276/71 175/275/71 173/274/71 170/273/71
f 171/280/72 172/279/72 170/278/72 169/277/72
f 176/284/73 171/283/73 169/282/73 174/281/73
o cube
v 1.25 4.5 0.5
v 1.25 4.5 -0.5
v 1.25 2.5 0.5
v 1.25 2.5 -0.5
v 1 4.5 -0.5
v 1 4.5 0.5
v 1 2.5 -0.5
v 1 2.5 0.5
vt 0.671875 1
vt 0.609375 1
vt 0.609375 0.5
vt 0.671875 0.5
vt 0.671875 1
vt 0.421875 1
vt 0.421875 0.5
vt 0.671875 0.5
vt 0.609375 1
vt 0.671875 1
vt 0.671875 0.5
vt 0.609375 0.5
vt 0.421875 1
vt 0.671875 1
vt 0.671875 0.5
vt 0.421875 0.5
vn 0 0 -1
vn 1 0 0
vn 0 0 1
vn -1 0 0
usemtl m_b69234fd-f04c-9dc6-0efe-96e871da9ade
f 180/288/74 183/287/74 181/286/74 178/285/74
f 179/292/75 180/291/75 178/290/75 177/289/75
f 184/296/76 179/295/76 177/294/76 182/293/76
f 183/300/77 184/299/77 182/298/77 181/297/77
o cube
v 1.25 6.5 0.5
v 1.25 6.5 -0.5
v 1.25 4.5 0.5
v 1.25 4.5 -0.5
v 1 6.5 -0.5
v 1 6.5 0.5
v 1 4.5 -0.5
v 1 4.5 0.5
vt 0.671875 1
vt 0.609375 1
vt 0.609375 0.5
vt 0.671875 0.5
vt 0.671875 1
vt 0.421875 1
vt 0.421875 0.5
vt 0.671875 0.5
vt 0.609375 1
vt 0.671875 1
vt 0.671875 0.5
vt 0.609375 0.5
vt 0.421875 1
vt 0.671875 1
vt 0.671875 0.5
vt 0.421875 0.5
vn 0 0 -1
vn 1 0 0
vn 0 0 1
vn -1 0 0
usemtl m_b69234fd-f04c-9dc6-0efe-96e871da9ade
f 188/304/78 191/303/78 189/302/78 186/301/78
f 187/308/79 188/307/79 186/306/79 185/305/79
f 192/312/80 187/311/80 185/310/80 190/309/80
f 191/316/81 192/315/81 190/314/81 189/313/81
o cube
v -1.25 4.5 -0.49999999999999983
v -1.25 4.5 0.5
v -1.25 2.5 -0.49999999999999983
v -1.25 2.5 0.5
v -0.9999999999999999 4.5 0.5
v -1 4.5 -0.4999999999999999
v -0.9999999999999999 2.5 0.5
v -1 2.5 -0.4999999999999999
vt 0.671875 1
vt 0.609375 1
vt 0.609375 0.5
vt 0.671875 0.5
vt 0.671875 1
vt 0.421875 1
vt 0.421875 0.5
vt 0.671875 0.5
vt 0.609375 1
vt 0.671875 1
vt 0.671875 0.5
vt 0.609375 0.5
vt 0.421875 1
vt 0.671875 1
vt 0.671875 0.5
vt 0.421875 0.5
vn 1.2246467991473532e-16 0 1
vn -1 0 1.2246467991473532e-16
vn -1.2246467991473532e-16 0 -1
vn 1 0 -1.2246467991473532e-16
usemtl m_b69234fd-f04c-9dc6-0efe-96e871da9ade
f 196/320/82 199/319/82 197/318/82 194/317/82
f 195/324/83 196/323/83 194/322/83 193/321/83
f 200/328/84 195/327/84 193/326/84 198/325/84
f 199/332/85 200/331/85 198/330/85 197/329/85
o cube
v -1.25 2.5 -0.49999999999999983
v -1.25 2.5 0.5
v -1.25 0.5 -0.49999999999999983
v -1.25 0.5 0.5
v -0.9999999999999999 2.5 0.5
v -1 2.5 -0.4999999999999999
v -0.9999999999999999 0.5 0.5
v -1 0.5 -0.4999999999999999
vt 0.671875 1
vt 0.609375 1
vt 0.609375 0.5
vt 0.671875 0.5
vt 0.421875 1
vt 0.671875 1
vt 0.671875 0.5
vt 0.421875 0.5
vt 0.609375 1
vt 0.671875 1
vt 0.671875 0.5
vt 0.609375 0.5
vn 1.2246467991473532e-16 0 1
vn -1 0 1.2246467991473532e-16
vn -1.2246467991473532e-16 0 -1
usemtl m_b69234fd-f04c-9dc6-0efe-96e871da9ade
f 204/336/86 207/335/86 205/334/86 202/333/86
f 203/340/87 204/339/87 202/338/87 201/337/87
f 208/344/88 203/343/88 201/342/88 206/341/88
o cube
v -1.25 6.5 -0.49999999999999983
v -1.25 6.5 0.5
v -1.25 4.5 -0.49999999999999983
v -1.25 4.5 0.5
v -0.9999999999999999 6.5 0.5
v -1 6.5 -0.4999999999999999
v -0.9999999999999999 4.5 0.5
v -1 4.5 -0.4999999999999999
vt 0.671875 1
vt 0.609375 1
vt 0.609375 0.5
vt 0.671875 0.5
vt 0.671875 1
vt 0.421875 1
vt 0.421875 0.5
vt 0.671875 0.5
vt 0.609375 1
vt 0.671875 1
vt 0.671875 0.5
vt 0.609375 0.5
vt 0.421875 1
vt 0.671875 1
vt 0.671875 0.5
vt 0.421875 0.5
vn 1.2246467991473532e-16 0 1
vn -1 0 1.2246467991473532e-16
vn -1.2246467991473532e-16 0 -1
vn 1 0 -1.2246467991473532e-16
usemtl m_b69234fd-f04c-9dc6-0efe-96e871da9ade
f 212/348/89 215/347/89 213/346/89 210/345/89
f 211/352/90 212/351/90 210/350/90 209/349/90
f 216/356/91 211/355/91 209/354/91 214/353/91
f 215/360/92 216/359/92 214/358/92 213/357/92
o cube
v 1.5 0.5 0.5
v 1.5 0.5 -0.5
v 1.5 -0.5 0.5
v 1.5 -0.5 -0.5
v 0.5 0.5 -0.5
v 0.5 0.5 0.5
v 0.5 -0.5 -0.5
v 0.5 -0.5 0.5
vt 0.75 1
vt 1 1
vt 1 0.75
vt 0.75 0.75
vt 0.75 1
vt 1 1
vt 1 0.75
vt 0.75 0.75
vt 0.75 0.75
vt 1 0.75
vt 1 0.5
vt 0.75 0.5
vn 1 0 0
vn 0 1 0
vn 0 -1 0
usemtl m_ed6657f6-98be-38d0-67b4-58bda411672a
f 219/364/93 220/363/93 218/362/93 217/361/93
f 222/368/94 217/367/94 218/366/94 221/365/94
f 223/372/95 220/371/95 219/370/95 224/369/95
o cube
v 1.5 0.5 0.5
v 1.5 0.5 -0.5
v 1.5 -0.5 0.5
v 1.5 -0.5 -0.5
v 0.5 0.5 -0.5
v 0.5 0.5 0.5
v 0.5 -0.5 -0.5
v 0.5 -0.5 0.5
vt 0.75 1
vt 1 1
vt 1 0.75
vt 0.75 0.75
vt 0.75 1
vt 1 1
vt 1 0.75
vt 0.75 0.75
vt 0.75 0.75
vt 1 0.75
vt 1 0.5
vt 0.75 0.5
vn 1 0 0
vn 0 1 0
vn 0 -1 0
usemtl m_ed6657f6-98be-38d0-67b4-58bda411672a
f 227/376/96 228/375/96 226/374/96 225/373/96
f 230/380/97 225/379/97 226/378/97 229/377/97
f 231/384/98 228/383/98 227/382/98 232/381/98
o cube
v -2.5 0.5 -0.49999999999999967
v -2.5 0.5 0.5000000000000004
v -2.5 -0.5 -0.49999999999999967
v -2.5 -0.5 0.5000000000000004
v -1.5 0.5 0.5000000000000002
v -1.5 0.5 -0.49999999999999983
v -1.5 -0.5 0.5000000000000002
v -1.5 -0.5 -0.49999999999999983
vt 0.75 1
vt 1 1
vt 1 0.75
vt 0.75 0.75
vt 0.75 1
vt 1 1
vt 1 0.75
vt 0.75 0.75
vt 0.75 1
vt 1 1
vt 1 0.75
vt 0.75 0.75
vt 0.75 0.75
vt 1 0.75
vt 1 0.5
vt 0.75 0.5
vn 1.2246467991473532e-16 0 1
vn -1 0 1.2246467991473532e-16
vn -1.2246467991473532e-16 0 -1
vn 0 -1 0
usemtl m_ed6657f6-98be-38d0-67b4-58bda411672a
f 236/388/99 239/387/99 237/386/99 234/385/99
f 235/392/100 236/391/100 234/390/100 233/389/100
f 240/396/101 235/395/101 233/394/101 238/393/101
f 239/400/102 236/399/102 235/398/102 240/397/102
o cube
v -2.5 1.5 -0.49999999999999967
v -2.5 1.5 0.5000000000000004
v -2.5 0.5 -0.49999999999999967
v -2.5 0.5 0.5000000000000004
v -1.5 1.5 0.5000000000000002
v -1.5 1.5 -0.49999999999999983
v -1.5 0.5 0.5000000000000002
v -1.5 0.5 -0.49999999999999983
vt 0.75 0.75
vt 1 0.75
vt 1 0.5
vt 0.75 0.5
vt 0.5 0.25
vt 0.75 0.25
vt 0.75 0
vt 0.5 0
vt 0.75 0.75
vt 1 0.75
vt 1 0.5
vt 0.75 0.5
vt 0.75 0.75
vt 1 0.75
vt 1 0.5
vt 0.75 0.5
vt 0.75 0.75
vt 1 0.75
vt 1 1
vt 0.75 1
vn 1.2246467991473532e-16 0 1
vn -1 0 1.2246467991473532e-16
vn -1.2246467991473532e-16 0 -1
vn 1 0 -1.2246467991473532e-16
vn 0 1 0
usemtl m_ed6657f6-98be-38d0-67b4-58bda411672a
f 244/404/103 247/403/103 245/402/103 242/401/103
f 243/408/104 244/407/104 242/406/104 241/405/104
f 248/412/105 243/411/105 241/410/105 246/409/105
f 247/416/106 248/415/106 246/414/106 245/413/106
f 246/420/107 241/419/107 242/418/107 245/417/107